<svg width="36" height="36" viewBox="0 0 36 36" fill="none" xmlns="http://www.w3.org/2000/svg">
<path d="M27 19.5C27 24.465 22.965 28.5 18 28.5C13.035 28.5 9 24.465 9 19.5C9 14.535 13.035 10.5 18 10.5V16.5L25.5 9L18 1.5V7.5C11.37 7.5 6 12.87 6 19.5C6 26.13 11.37 31.5 18 31.5C24.63 31.5 30 26.13 30 19.5H27Z" fill="#EEEEF2" fill-opacity="0.75"/>
<path d="M16.29 23.91V17.505H16.155L13.5 18.45V19.485L15.015 19.02V23.91H16.29ZM18.375 20.16V21.27C18.375 24.12 20.34 24 20.535 24C20.745 24 22.695 24.135 22.695 21.27V20.16C22.695 17.31 20.73 17.43 20.535 17.43C20.325 17.43 18.375 17.295 18.375 20.16ZM21.435 19.98V21.435C21.435 22.59 21.12 22.98 20.55 22.98C19.98 22.98 19.65 22.59 19.65 21.435V19.98C19.65 18.855 19.98 18.465 20.535 18.465C21.105 18.45 21.435 18.855 21.435 19.98Z" fill="#EEEEF2" fill-opacity="0.75"/>
</svg>
