<svg width="25" height="25" viewBox="0 0 25 25" fill="none" xmlns="http://www.w3.org/2000/svg">
<g clip-path="url(#clip0_1469_1616)">
<path d="M24.125 23.75H21.1134C23.3738 21.845 22.0421 18.125 19.0625 18.125H18.7966C18.9813 17.4721 18.8475 17.2109 18.3425 14.9362C17.8783 12.8503 16.3156 11.1146 14.1718 10.4898C14.6822 10.1459 15.0812 9.64916 15.3036 9.06594C15.3815 9.01616 15.3612 9.0298 15.84 8.38212C17.5044 6.13062 16.3625 3.13934 14 2.26283V2C14 1.17289 13.3271 0.5 12.5 0.5C11.6729 0.5 11 1.17289 11 2V2.26283C8.6367 3.13958 7.49619 6.13142 9.16002 8.38212C9.64062 9.03223 9.61845 9.01616 9.69636 9.06594C9.91873 9.64883 10.3173 10.1453 10.8273 10.4892C10.0301 10.7216 9.28334 11.1187 8.64073 11.6613C8.48248 11.7949 6.28054 14.2739 6.89366 15C7.28899 15.0993 8.96633 12.368 9.12458 12.2343C10.5078 11.0664 12.4216 10.6789 14.1896 11.2821C13.6465 13.3235 11.9882 14.8565 9.88386 15.2277L9.60017 15.2778L9.86605 14.0813C9.91095 13.8792 9.7835 13.6789 9.58133 13.6339C9.37916 13.589 9.17886 13.7165 9.13391 13.9186C9.04677 14.3108 8.56152 16.4945 8.44916 17H8C7.79291 17 7.625 17.1679 7.625 17.375C7.625 17.582 7.79291 17.75 8 17.75H9.40902C10.5351 17.75 11.5938 17.3114 12.3902 16.5151C12.5366 16.3687 12.5367 16.1313 12.3902 15.9848C12.2438 15.8384 12.0064 15.8384 11.8599 15.9848C11.2052 16.6395 10.3348 17 9.40902 17H9.21748L9.42406 16.0705C10.3573 15.9058 11.8261 15.7084 13.2701 14.2917C14.0405 13.5357 14.5937 12.6047 14.8868 11.5775C15.9375 12.1148 16.745 12.9713 17.2319 14H15.8841L15.866 13.9187C15.8211 13.7165 15.6208 13.589 15.4186 13.634C15.2165 13.6789 15.089 13.8792 15.1339 14.0814L15.7825 17H15.591C14.6652 17 13.7948 16.6395 13.1402 15.9848C12.9937 15.8383 12.7563 15.8384 12.6099 15.9848C12.4634 16.1313 12.4634 16.3687 12.6099 16.5151C13.983 17.8883 15.3711 17.75 17 17.75C17.2071 17.75 17.375 17.5821 17.375 17.375C17.375 17.1679 17.2071 17 17 17H16.5508L16.0508 14.75H17.5186C17.5939 15.0035 17.5556 14.8527 18.0936 17.2755C18.276 18.0958 17.6506 18.875 16.8105 18.875H13.6855C14.1018 18.0011 13.4571 17 12.4999 17C12.2928 17 12.1249 17.1679 12.1249 17.375C12.1249 17.5821 12.2928 17.75 12.4999 17.75C12.65 17.75 12.7912 17.8085 12.8975 17.9148C13.2489 18.2661 13.0028 18.875 12.5 18.875H8.18937C7.46464 18.875 6.875 18.2854 6.875 17.5606C6.875 17.3641 6.86436 17.4647 7.38959 15.0993C7.44247 14.8623 7.51194 14.6281 7.59608 14.4033C7.66864 14.2093 7.57025 13.9933 7.37628 13.9207C7.18236 13.8481 6.96627 13.9465 6.89366 14.1405C6.79742 14.3976 6.71802 14.6653 6.65755 14.9364C6.15012 17.2216 6.01977 17.4776 6.20408 18.125H5.9375C2.97242 18.125 1.62064 21.8381 3.88414 23.75H0.875C0.667906 23.75 0.5 23.9179 0.5 24.125C0.5 24.3321 0.667906 24.5 0.875 24.5H24.125C24.3321 24.5 24.5 24.3321 24.5 24.125C24.5 23.9179 24.3321 23.75 24.125 23.75ZM11.75 2C11.75 1.58647 12.0865 1.25 12.5 1.25C12.9135 1.25 13.25 1.58647 13.25 2C13.25 2.15211 13.2932 1.97605 12.3637 2.00192C11.6817 2.021 11.75 2.12937 11.75 2ZM9.45575 4.616C10.6691 2.12408 14.3286 2.1192 15.5443 4.616C16.0052 5.56259 15.9821 6.61691 15.5 7.51962C15.5 6.01128 15.584 5 15.0162 5C14.8205 5 14.6239 5.03492 14.5229 4.83228C14.3433 4.47312 13.9824 4.25 13.5809 4.25C11.2494 4.25 11.2047 4.19895 10.8646 4.40759C10.4269 4.67923 10.5258 5 10.2059 5H9.98375C9.41291 5 9.5 6.01906 9.5 7.51962C9.01789 6.61691 8.99487 5.56259 9.45575 4.616ZM10.25 8C10.25 5.94031 10.2395 5.99623 10.2815 5.74733C10.6522 5.72122 10.9797 5.50414 11.1482 5.16716C11.1731 5.11709 11.2118 5.07481 11.2584 5.04589C11.3626 4.982 11.2357 5 13.5809 5C13.8998 5 13.8013 5.32039 14.2413 5.59344C14.3866 5.68255 14.5502 5.73514 14.7185 5.74728C14.7627 6.00941 14.75 5.97898 14.75 8C14.75 9.24064 13.7406 10.25 12.5 10.25C11.2594 10.25 10.25 9.24064 10.25 8ZM9.03392 22.3325L8.65742 22.4832C8.14616 22.6877 7.89219 23.24 8.04289 23.75H6.875V21.7928L9.03392 22.3325ZM9.04583 23.75C8.72281 23.75 8.63389 23.3003 8.93595 23.1795C10.5128 22.5488 10.4112 22.5932 10.458 22.562C11.2525 22.0323 11.4032 21.875 11.8187 21.875C12.2888 21.875 12.7046 22.1747 12.8532 22.6206L12.8942 22.7436C12.9561 22.9295 13.1505 23.0364 13.3409 22.9888L18.125 21.7928V23.75H9.04583ZM18.875 23.75V21.6053L19.3409 21.4888C19.5418 21.4385 19.664 21.235 19.6138 21.034C19.5636 20.8331 19.36 20.711 19.159 20.7612L13.4833 22.1801C13.1826 21.5411 12.5384 21.125 11.8187 21.125C11.1486 21.125 10.7977 21.4342 10.18 21.8459L5.84094 20.7612C5.63994 20.711 5.43641 20.8331 5.38616 21.034C5.33595 21.235 5.45811 21.4385 5.65902 21.4888L6.12495 21.6053V23.75H5.93745C4.58956 23.75 3.49995 22.6594 3.49995 21.3125C3.49995 19.9685 4.59341 18.875 5.93745 18.875H6.59867C6.97761 19.3328 7.54995 19.625 8.18933 19.625H16.8106C17.4322 19.625 18.007 19.3516 18.4021 18.875C19.1678 18.875 19.9888 18.7922 20.786 19.5886C22.3082 21.1122 21.2395 23.75 19.0625 23.75H18.875Z" fill="#E49C28"/>
</g>
<defs>
<clipPath id="clip0_1469_1616">
<rect width="24" height="24" fill="white" transform="translate(0.5 0.5)"/>
</clipPath>
</defs>
</svg>
