<svg width="25" height="24" viewBox="0 0 25 24" fill="none" xmlns="http://www.w3.org/2000/svg">
<g clip-path="url(#clip0_1469_208)">
<path d="M24.125 23.25H21.1134C23.3738 21.345 22.0421 17.625 19.0625 17.625H18.7966C18.9813 16.9721 18.8475 16.7109 18.3425 14.4362C17.8783 12.3503 16.3156 10.6146 14.1718 9.98981C14.6822 9.64594 15.0812 9.14916 15.3036 8.56594C15.3815 8.51616 15.3612 8.5298 15.84 7.88212C17.5044 5.63062 16.3625 2.63934 14 1.76283V1.5C14 0.672891 13.3271 0 12.5 0C11.6729 0 11 0.672891 11 1.5V1.76283C8.6367 2.63958 7.49619 5.63142 9.16002 7.88212C9.64062 8.53223 9.61845 8.51616 9.69636 8.56594C9.91873 9.14883 10.3173 9.64533 10.8273 9.9892C10.0301 10.2216 9.28334 10.6187 8.64073 11.1613C8.48248 11.2949 6.28054 13.7739 6.89366 14.5C7.28899 14.5993 8.96633 11.868 9.12458 11.7343C10.5078 10.5664 12.4216 10.1789 14.1896 10.7821C13.6465 12.8235 11.9882 14.3565 9.88386 14.7277L9.60017 14.7778L9.86605 13.5813C9.91095 13.3792 9.7835 13.1789 9.58133 13.1339C9.37916 13.089 9.17886 13.2165 9.13391 13.4186C9.04677 13.8108 8.56152 15.9945 8.44916 16.5H8C7.79291 16.5 7.625 16.6679 7.625 16.875C7.625 17.082 7.79291 17.25 8 17.25H9.40902C10.5351 17.25 11.5938 16.8114 12.3902 16.0151C12.5366 15.8687 12.5367 15.6313 12.3902 15.4848C12.2438 15.3384 12.0064 15.3384 11.8599 15.4848C11.2052 16.1395 10.3348 16.5 9.40902 16.5H9.21748L9.42406 15.5705C10.3573 15.4058 11.8261 15.2084 13.2701 13.7917C14.0405 13.0357 14.5937 12.1047 14.8868 11.0775C15.9375 11.6148 16.745 12.4713 17.2319 13.5H15.8841L15.866 13.4187C15.8211 13.2165 15.6208 13.089 15.4186 13.134C15.2165 13.1789 15.089 13.3792 15.1339 13.5814L15.7825 16.5H15.591C14.6652 16.5 13.7948 16.1395 13.1402 15.4848C12.9937 15.3383 12.7563 15.3384 12.6099 15.4848C12.4634 15.6313 12.4634 15.8687 12.6099 16.0151C13.983 17.3883 15.3711 17.25 17 17.25C17.2071 17.25 17.375 17.0821 17.375 16.875C17.375 16.6679 17.2071 16.5 17 16.5H16.5508L16.0508 14.25H17.5186C17.5939 14.5035 17.5556 14.3527 18.0936 16.7755C18.276 17.5958 17.6506 18.375 16.8105 18.375H13.6855C14.1018 17.5011 13.4571 16.5 12.4999 16.5C12.2928 16.5 12.1249 16.6679 12.1249 16.875C12.1249 17.0821 12.2928 17.25 12.4999 17.25C12.65 17.25 12.7912 17.3085 12.8975 17.4148C13.2489 17.7661 13.0028 18.375 12.5 18.375H8.18937C7.46464 18.375 6.875 17.7854 6.875 17.0606C6.875 16.8641 6.86436 16.9647 7.38959 14.5993C7.44247 14.3623 7.51194 14.1281 7.59608 13.9033C7.66864 13.7093 7.57025 13.4933 7.37628 13.4207C7.18236 13.3481 6.96627 13.4465 6.89366 13.6405C6.79742 13.8976 6.71802 14.1653 6.65755 14.4364C6.15012 16.7216 6.01977 16.9776 6.20408 17.625H5.9375C2.97242 17.625 1.62064 21.3381 3.88414 23.25H0.875C0.667906 23.25 0.5 23.4179 0.5 23.625C0.5 23.8321 0.667906 24 0.875 24H24.125C24.3321 24 24.5 23.8321 24.5 23.625C24.5 23.4179 24.3321 23.25 24.125 23.25ZM11.75 1.5C11.75 1.08647 12.0865 0.75 12.5 0.75C12.9135 0.75 13.25 1.08647 13.25 1.5C13.25 1.65211 13.2932 1.47605 12.3637 1.50192C11.6817 1.521 11.75 1.62937 11.75 1.5ZM9.45575 4.116C10.6691 1.62408 14.3286 1.6192 15.5443 4.116C16.0052 5.06259 15.9821 6.11691 15.5 7.01962C15.5 5.51128 15.584 4.5 15.0162 4.5C14.8205 4.5 14.6239 4.53492 14.5229 4.33228C14.3433 3.97312 13.9824 3.75 13.5809 3.75C11.2494 3.75 11.2047 3.69895 10.8646 3.90759C10.4269 4.17923 10.5258 4.5 10.2059 4.5H9.98375C9.41291 4.5 9.5 5.51906 9.5 7.01962C9.01789 6.11691 8.99487 5.06259 9.45575 4.116ZM10.25 7.5C10.25 5.44031 10.2395 5.49623 10.2815 5.24733C10.6522 5.22122 10.9797 5.00414 11.1482 4.66716C11.1731 4.61709 11.2118 4.57481 11.2584 4.54589C11.3626 4.482 11.2357 4.5 13.5809 4.5C13.8998 4.5 13.8013 4.82039 14.2413 5.09344C14.3866 5.18255 14.5502 5.23514 14.7185 5.24728C14.7627 5.50941 14.75 5.47898 14.75 7.5C14.75 8.74064 13.7406 9.75 12.5 9.75C11.2594 9.75 10.25 8.74064 10.25 7.5ZM9.03392 21.8325L8.65742 21.9832C8.14616 22.1877 7.89219 22.74 8.04289 23.25H6.875V21.2928L9.03392 21.8325ZM9.04583 23.25C8.72281 23.25 8.63389 22.8003 8.93595 22.6795C10.5128 22.0488 10.4112 22.0932 10.458 22.062C11.2525 21.5323 11.4032 21.375 11.8187 21.375C12.2888 21.375 12.7046 21.6747 12.8532 22.1206L12.8942 22.2436C12.9561 22.4295 13.1505 22.5364 13.3409 22.4888L18.125 21.2928V23.25H9.04583ZM18.875 23.25V21.1053L19.3409 20.9888C19.5418 20.9385 19.664 20.735 19.6138 20.534C19.5636 20.3331 19.36 20.211 19.159 20.2612L13.4833 21.6801C13.1826 21.0411 12.5384 20.625 11.8187 20.625C11.1486 20.625 10.7977 20.9342 10.18 21.3459L5.84094 20.2612C5.63994 20.211 5.43641 20.3331 5.38616 20.534C5.33595 20.735 5.45811 20.9385 5.65902 20.9888L6.12495 21.1053V23.25H5.93745C4.58956 23.25 3.49995 22.1594 3.49995 20.8125C3.49995 19.4685 4.59341 18.375 5.93745 18.375H6.59867C6.97761 18.8328 7.54995 19.125 8.18933 19.125H16.8106C17.4322 19.125 18.007 18.8516 18.4021 18.375C19.1678 18.375 19.9888 18.2922 20.786 19.0886C22.3082 20.6122 21.2395 23.25 19.0625 23.25H18.875Z" fill="#17120B"/>
</g>
<defs>
<clipPath id="clip0_1469_208">
<rect width="24" height="24" fill="white" transform="translate(0.5)"/>
</clipPath>
</defs>
</svg>
