<svg width="20" height="20" viewBox="0 0 20 20" fill="none" xmlns="http://www.w3.org/2000/svg">
<path fill-rule="evenodd" clip-rule="evenodd" d="M10 16.6667L10 5.00001C10 5.00001 8.33332 3.33334 6.66665 3.33334C4.99998 3.33334 2.49998 5.00001 2.49998 5.00001V16.6667C2.49998 16.6667 4.99998 15 6.66665 15C8.33333 15 10 16.6667 10 16.6667Z" fill="#FAF9F5" stroke="#E49C28" stroke-width="1.5" stroke-linecap="round" stroke-linejoin="round"/>
<path fill-rule="evenodd" clip-rule="evenodd" d="M10 16.6667L10 5.00001C10 5.00001 11.6667 3.33334 13.3333 3.33334C15 3.33334 17.5 5.00001 17.5 5.00001V16.6667C17.5 16.6667 15 15 13.3333 15C11.6667 15 10 16.6667 10 16.6667Z" fill="#FAF9F5" stroke="#E49C28" stroke-width="1.5" stroke-linecap="round" stroke-linejoin="round"/>
</svg>
