<svg width="78" height="78" viewBox="0 0 78 78" fill="none" xmlns="http://www.w3.org/2000/svg">
<circle cx="39" cy="39" r="38.5" fill="#E49C28" fill-opacity="0.25" stroke="#E49C28"/>
<rect x="5" y="5" width="68" height="68" rx="34" fill="#E49C28"/>
<path d="M40.111 48.6054L44.254 44.4623C44.5967 44.1196 45.1357 44.072 45.5332 44.3492L51.6924 48.6449C52.203 49.001 52.2677 49.7321 51.8275 50.1723L50.2574 51.7423C49.5471 52.4526 48.5303 52.7596 47.5667 52.4761C44.7179 51.638 38.4836 49.3456 33.3924 44.2544C28.3012 39.1633 26.0089 32.9289 25.1708 30.0802C24.8873 29.1165 25.1942 28.0997 25.9045 27.3894L27.4746 25.8193C27.9147 25.3792 28.6458 25.4438 29.0019 25.9544L33.2976 32.1136C33.5749 32.5111 33.5272 33.0501 33.1845 33.3928L29.0415 37.5359" stroke="#FAF9F5" stroke-width="2" stroke-linecap="round"/>
</svg>
