<svg width="56" height="56" viewBox="0 0 56 56" fill="none" xmlns="http://www.w3.org/2000/svg">
<mask id="path-1-inside-1_0_10156" fill="white">
<path d="M0 28C0 12.536 12.536 0 28 0V0C43.464 0 56 12.536 56 28V28C56 43.464 43.464 56 28 56V56C12.536 56 0 43.464 0 28V28Z"/>
</mask>
<path d="M0 28C0 12.536 12.536 0 28 0V0C43.464 0 56 12.536 56 28V28C56 43.464 43.464 56 28 56V56C12.536 56 0 43.464 0 28V28Z" fill="#C0322E" fill-opacity="0.05"/>
<path d="M35.5 28H20.5" stroke="#C0322E" stroke-width="2" stroke-linecap="round"/>
<path fill-rule="evenodd" clip-rule="evenodd" d="M28 43C36.2843 43 43 36.2843 43 28C43 19.7157 36.2843 13 28 13C19.7157 13 13 19.7157 13 28C13 36.2843 19.7157 43 28 43Z" stroke="#C0322E" stroke-width="2"/>
<path d="M-1 27.5C-1 11.7599 11.7599 -1 27.5 -1C43.2401 -1 56 11.7599 56 27.5V28C56 13.0883 43.464 1 28 1C13.0883 1 1 13.0883 1 28L-1 27.5ZM56 56H0H56ZM27.5 56C11.7599 56 -1 43.2401 -1 27.5C-1 11.7599 11.7599 -1 27.5 -1L28 1C13.0883 1 1 13.0883 1 28C1 43.464 13.0883 56 28 56H27.5ZM56 0V56V0Z" fill="#C0322E" mask="url(#path-1-inside-1_0_10156)"/>
</svg>
