<svg width="16" height="16" viewBox="0 0 16 16" fill="none" xmlns="http://www.w3.org/2000/svg">
<path d="M8 16C12.4183 16 16 12.4183 16 8C16 3.58172 12.4183 0 8 0C3.58172 0 0 3.58172 0 8C0 12.4183 3.58172 16 8 16Z" fill="url(#paint0_radial_0_7927)"/>
<path d="M13.3733 7.00161C13.3163 6.69382 13.2332 6.39091 13.1263 6.10116C13.0052 5.77338 13.1728 5.40955 13.5006 5.28855C13.8281 5.16737 14.1922 5.33506 14.3132 5.6629C14.4451 6.02008 14.5475 6.39308 14.6174 6.77155C14.681 7.11515 14.454 7.44517 14.1104 7.50867C13.7693 7.57217 13.4372 7.34727 13.3733 7.00161Z" fill="#FDB0BF"/>
<path d="M13.5807 10.5337C13.2495 10.4223 13.0713 10.0636 13.1825 9.73241C13.2527 9.52362 13.3108 9.30826 13.3551 9.09218C13.4253 8.74988 13.7598 8.52933 14.102 8.59959C14.4443 8.66985 14.6648 9.00422 14.5945 9.34647C14.5399 9.6127 14.4684 9.8781 14.3819 10.1354C14.2711 10.4655 13.9133 10.6453 13.5807 10.5337Z" fill="#FDB0BF"/>
<path d="M9.34295 8.00012L11.7756 5.56752C12.1462 5.19693 12.1462 4.59604 11.7756 4.22545C11.405 3.85486 10.8041 3.85486 10.4335 4.22545L8.00089 6.65805L5.56829 4.22545C5.1977 3.85486 4.59681 3.85486 4.22623 4.22545C3.85558 4.59604 3.85558 5.19693 4.22623 5.56752L6.65883 8.00012L4.22623 10.4327C3.85558 10.8033 3.85558 11.4042 4.22623 11.7748C4.41149 11.96 4.65438 12.0528 4.89726 12.0528C5.14014 12.0528 5.38303 11.9601 5.56829 11.7748L8.00089 9.34218L10.4335 11.7748C10.6188 11.96 10.8616 12.0528 11.1045 12.0528C11.3474 12.0528 11.5903 11.9601 11.7756 11.7748C12.1462 11.4042 12.1462 10.8033 11.7756 10.4327L9.34295 8.00012Z" fill="white"/>
<defs>
<radialGradient id="paint0_radial_0_7927" cx="0" cy="0" r="1" gradientUnits="userSpaceOnUse" gradientTransform="translate(8 8) scale(8 8)">
<stop stop-color="#FD869C"/>
<stop offset="0.9788" stop-color="#F3385D"/>
</radialGradient>
</defs>
</svg>
