<svg width="16" height="16" viewBox="0 0 16 16" fill="none" xmlns="http://www.w3.org/2000/svg">
<path d="M7.99999 16C12.4183 16 16 12.4183 16 8C16 3.58172 12.4183 0 7.99999 0C3.58172 0 0 3.58172 0 8C0 12.4183 3.58172 16 7.99999 16Z" fill="url(#paint0_radial_0_7915)"/>
<path d="M10.9638 13.3435C10.7643 13.0566 10.8354 12.6623 11.1223 12.4629C11.3517 12.3035 11.574 12.1265 11.7833 11.9369C12.0421 11.7023 12.4422 11.722 12.6769 11.9809C12.9115 12.2398 12.8919 12.6399 12.6329 12.8745C12.3835 13.1005 12.1182 13.3116 11.8444 13.5019C11.5575 13.7014 11.1632 13.6304 10.9638 13.3435Z" fill="#ADEDE3"/>
<path d="M13.2698 11.1414C12.953 10.994 12.8156 10.6178 12.963 10.3009C13.1476 9.90405 13.2843 9.48243 13.3693 9.04781C13.4364 8.70486 13.7688 8.48126 14.1117 8.54841C14.4546 8.61549 14.6781 8.94786 14.6111 9.29076C14.5064 9.82562 14.3379 10.3451 14.1102 10.8345C13.9631 11.1509 13.5871 11.289 13.2698 11.1414Z" fill="#ADEDE3"/>
<path d="M5.38093 11.329L3.04005 8.64989C2.69516 8.2552 2.73561 7.65572 3.13024 7.31088C3.52494 6.96599 4.12447 7.00644 4.46925 7.40108L6.18355 9.36308L11.6158 4.58336C12.0093 4.23706 12.6089 4.27551 12.9552 4.66891C13.3014 5.06243 13.2631 5.66203 12.8696 6.00827L6.72241 11.417C6.32818 11.7639 5.72647 11.7245 5.38093 11.329Z" fill="white"/>
<defs>
<radialGradient id="paint0_radial_0_7915" cx="0" cy="0" r="1" gradientUnits="userSpaceOnUse" gradientTransform="translate(7.99999 8) scale(7.99999 8)">
<stop offset="0.0206" stop-color="#77E4D3"/>
<stop offset="1" stop-color="#01C2A0"/>
</radialGradient>
</defs>
</svg>
