<svg width="24" height="24" viewBox="0 0 24 24" fill="none" xmlns="http://www.w3.org/2000/svg">
<g clip-path="url(#clip0_0_7907)">
<path d="M8.49013 16.6394C8.62742 16.7767 8.80738 16.8454 8.98728 16.8454C9.16719 16.8454 9.34719 16.7768 9.48444 16.6394L10.1169 16.0069L10.7494 16.6394C10.8867 16.7767 11.0666 16.8454 11.2466 16.8454C11.4265 16.8454 11.6065 16.7767 11.7437 16.6394C12.0183 16.3649 12.0183 15.9196 11.7437 15.6451L11.1112 15.0125L11.7437 14.38C12.0183 14.1054 12.0183 13.6602 11.7437 13.3856C11.4692 13.111 11.024 13.111 10.7494 13.3856L10.1169 14.0182L9.48448 13.3857C9.20989 13.1111 8.76472 13.1111 8.49013 13.3857C8.21553 13.6602 8.21553 14.1054 8.49013 14.38L9.12266 15.0126L8.49013 15.6451C8.21553 15.9196 8.21553 16.3649 8.49013 16.6394Z" fill="#F77B4D"/>
<path d="M23.7941 3.97158L20.0284 0.205969C19.8966 0.0741094 19.7178 0 19.5313 0H6.72813C6.33982 0 6.02501 0.314812 6.02501 0.703125V8.23439C6.02501 8.6227 6.33982 8.93752 6.72813 8.93752H9.79062V10.5438H4.46876C4.28229 10.5438 4.10346 10.6179 3.9716 10.7498L0.205945 14.5153C-0.0686484 14.7899 -0.0686484 15.2351 0.205945 15.5097L3.97155 19.2753C4.10341 19.4071 4.28224 19.4813 4.46871 19.4813H9.79057V23.2969C9.79057 23.6852 10.1054 24 10.4937 24H13.5062C13.8945 24 14.2093 23.6852 14.2093 23.2969V19.4813H17.2718C17.6601 19.4813 17.9749 19.1664 17.9749 18.7781V11.2469C17.9749 10.8585 17.6601 10.5437 17.2718 10.5437H14.2093V8.93747H19.5312C19.7177 8.93747 19.8965 8.86336 20.0283 8.7315L23.794 4.96589C23.9258 4.83403 23.9999 4.6552 23.9999 4.46873C23.9999 4.28227 23.926 4.10344 23.7941 3.97158ZM12.8031 22.5938H11.1969V19.4813H12.8031V22.5938ZM16.5688 11.95V18.075H4.76004L1.69755 15.0125L4.76004 11.95H16.5688V11.95ZM11.1969 10.5437V8.93747H12.8032V10.5437H11.1969ZM19.24 7.53127H7.43126V1.40625H19.24L22.3025 4.46873L19.24 7.53127Z" fill="#F77B4D"/>
<path d="M15.6448 2.84191L13.8826 4.60409L13.2501 3.9716C12.9756 3.69701 12.5303 3.69701 12.2557 3.9716C11.9812 4.2462 11.9812 4.69137 12.2557 4.96596L13.3854 6.09565C13.5227 6.23295 13.7026 6.30162 13.8826 6.30162C14.0625 6.30162 14.2425 6.23295 14.3798 6.09565L16.6391 3.83627C16.9137 3.56173 16.9137 3.11651 16.6391 2.84191C16.3646 2.56737 15.9195 2.56732 15.6448 2.84191Z" fill="#F77B4D"/>
</g>
<defs>
<clipPath id="clip0_0_7907">
<rect width="24" height="24" fill="white"/>
</clipPath>
</defs>
</svg>
