<svg width="40" height="40" viewBox="0 0 40 40" fill="none" xmlns="http://www.w3.org/2000/svg">
<rect x="0.5" y="0.5" width="39" height="39" rx="19.5" fill="white"/>
<path fill-rule="evenodd" clip-rule="evenodd" d="M20 28C20 28 20 14 20 14C20 14 18 12 16 12C14 12 11 14 11 14C11 14 11 28 11 28C11 28 14 26 16 26C18 26 20 28 20 28Z" stroke="#E49C28" stroke-width="1.5" stroke-linecap="round" stroke-linejoin="round"/>
<path fill-rule="evenodd" clip-rule="evenodd" d="M20 28C20 28 20 14 20 14C20 14 22 12 24 12C26 12 29 14 29 14C29 14 29 28 29 28C29 28 26 26 24 26C22 26 20 28 20 28Z" stroke="#E49C28" stroke-width="1.5" stroke-linecap="round" stroke-linejoin="round"/>
<rect x="0.5" y="0.5" width="39" height="39" rx="19.5" stroke="#E49C28"/>
</svg>
