<svg width="24" height="24" viewBox="0 0 24 24" fill="none" xmlns="http://www.w3.org/2000/svg">
<path fill-rule="evenodd" clip-rule="evenodd" d="M17.9857 5.42367C14.0076 4.97906 9.99224 4.97906 6.01407 5.42367C5.7449 5.45376 5.61528 5.76941 5.78562 5.97998L9.30264 10.3275C10.5625 11.8849 11.2499 13.8275 11.2499 15.8307V18.7199L12.7499 19.8199V15.8307C12.7499 13.8275 13.4373 11.8849 14.6972 10.3275L18.2142 5.97998C18.3845 5.76941 18.2549 5.45376 17.9857 5.42367ZM5.84746 3.93296C9.93636 3.47596 14.0634 3.47596 18.1523 3.93296C19.5993 4.09467 20.2961 5.79146 19.3804 6.92339L15.8633 11.2709C14.8194 12.5614 14.2499 14.1709 14.2499 15.8307V21.3C14.2499 21.5826 14.091 21.8413 13.8389 21.969C13.5868 22.0968 13.2843 22.0719 13.0564 21.9048L10.0564 19.7048C9.86372 19.5635 9.7499 19.3389 9.7499 19.1V15.8307C9.7499 14.1709 9.18037 12.5614 8.13646 11.2709L4.61944 6.92339C3.70375 5.79146 4.40053 4.09467 5.84746 3.93296Z" fill="white"/>
</svg>
