<svg width="383" height="386" viewBox="0 0 383 386" fill="none" xmlns="http://www.w3.org/2000/svg">
<rect width="382" height="386" rx="8" fill="white" fill-opacity="0.05"/>
<g clip-path="url(#clip0_427_8455)">
<path d="M19.3029 30.4163C19.1325 30.4163 18.9922 30.276 18.9922 30.1056V22.0963C18.9922 22.0696 18.9754 22.0429 18.9487 22.0362C17.6957 21.6753 16.5296 21.4916 15.4871 21.4916C14.1539 21.4916 13.0245 21.7956 12.129 22.3904C11.2502 22.9751 10.6521 23.8673 10.4416 24.9031C10.2345 25.9389 10.4416 26.9914 11.0264 27.8735C11.3237 28.3179 11.7748 28.622 12.2994 28.7289C12.4297 28.7557 12.5634 28.769 12.697 28.769C13.0913 28.769 13.4722 28.6521 13.803 28.4315C14.0135 28.2912 14.1572 28.0774 14.2073 27.8301C14.2575 27.5828 14.2073 27.3289 14.067 27.1184C13.9968 27.0148 13.8832 26.9547 13.7563 26.9547C13.6827 26.9547 13.6126 26.9747 13.5524 27.0182C13.5023 27.0516 13.4422 27.0716 13.382 27.0716C13.2784 27.0716 13.1815 27.0215 13.1247 26.9346C13.0312 26.7909 13.0679 26.6005 13.2116 26.5036C13.3753 26.3967 13.5625 26.3365 13.7596 26.3365C14.0937 26.3365 14.4045 26.5002 14.5883 26.7776C14.8221 27.1251 14.9023 27.5427 14.8188 27.9537C14.7353 28.3647 14.498 28.7189 14.1505 28.9495C13.7162 29.2368 13.215 29.3905 12.7004 29.3905C12.5266 29.3905 12.3495 29.3738 12.1791 29.3371C11.4908 29.2001 10.8994 28.8024 10.5118 28.2177C9.8335 27.2019 9.59293 25.979 9.8335 24.7828C10.0741 23.5832 10.7657 22.5508 11.7849 21.8758C12.7939 21.2042 14.0436 20.8634 15.4971 20.8634C15.6508 20.8634 15.8078 20.8667 15.9615 20.8734C15.9916 20.8734 16.0183 20.85 16.0217 20.8199C16.025 20.7899 16.0083 20.7598 15.9749 20.7498C15.2465 20.5526 14.5248 20.3923 13.8298 20.2753C12.6102 20.0681 11.2202 19.9512 9.9137 19.9512C7.49122 19.9512 3.16082 20.3588 1.3732 23.082C0.795146 23.9642 0.591323 25.02 0.808511 26.0558C1.02236 27.0917 1.62714 27.9805 2.50926 28.5585C2.83671 28.7724 3.21429 28.886 3.60522 28.886C4.28352 28.886 4.91169 28.5485 5.28258 27.9805C5.41958 27.77 5.4697 27.516 5.41624 27.2688C5.36612 27.0215 5.2191 26.8076 5.00859 26.6707C4.94845 26.6306 4.87828 26.6105 4.80477 26.6105C4.6778 26.6105 4.56085 26.674 4.49402 26.7776C4.43722 26.8645 4.34032 26.9179 4.2334 26.9179C4.17325 26.9179 4.11311 26.9012 4.06299 26.8678C3.91931 26.7742 3.87921 26.5804 3.97277 26.4368C4.11979 26.2162 4.34032 26.0625 4.60095 26.0091C4.66777 25.9957 4.73794 25.989 4.80477 25.989C4.99857 25.989 5.18568 26.0458 5.34607 26.1527C6.0678 26.6272 6.27162 27.5995 5.79715 28.3213C5.30931 29.0631 4.48734 29.5041 3.59854 29.5041C3.08731 29.5041 2.58945 29.3571 2.16176 29.0731C1.1393 28.4015 0.440962 27.3757 0.190361 26.1761C-0.0568991 24.9799 0.173654 23.757 0.845266 22.7345C2.8033 19.7507 7.32749 19.3063 9.85021 19.3063C11.1801 19.3063 12.5901 19.4266 13.9267 19.6538C15.751 19.9646 17.669 20.5359 19.3263 21.2577C19.3965 21.271 19.4432 21.2944 19.4867 21.3278C20.0179 21.5684 20.5125 21.8157 20.9702 22.0763L21.0471 22.1064C21.0805 22.1197 21.1106 22.1398 21.1406 22.1699C21.9225 22.6276 22.5975 23.1121 23.1555 23.6167C23.219 23.6768 23.2591 23.7603 23.2591 23.8472V26.6205C23.2591 26.6539 23.2858 26.684 23.3225 26.684H26.6171C26.6505 26.684 26.6806 26.6573 26.6806 26.6205V23.326C26.6806 23.2925 26.6539 23.2625 26.6171 23.2625H23.8438C23.7569 23.2625 23.6734 23.2257 23.6132 23.1589C23.1087 22.6009 22.6242 21.9259 22.1731 21.1574C22.133 21.114 22.113 21.0839 22.103 21.0538L22.0762 20.9837C21.8123 20.5159 21.565 20.0214 21.3344 19.5068C21.291 19.45 21.2676 19.3999 21.2609 19.3464C20.5325 17.6724 19.9645 15.7545 19.6537 13.9334C18.8719 9.34574 19.2093 3.16424 22.7345 0.852024C23.4829 0.360845 24.3483 0.10022 25.2371 0.10022C25.5512 0.10022 25.8653 0.133633 26.1761 0.197119C27.3723 0.444379 28.4014 1.14606 29.073 2.16852C29.8683 3.37809 29.5274 5.00867 28.3179 5.80391C28.0606 5.97098 27.7665 6.06119 27.4591 6.06119C26.9279 6.06119 26.4367 5.79723 26.146 5.35283C25.999 5.1323 25.9489 4.86499 26.0057 4.6077C26.0591 4.34708 26.2128 4.12655 26.4333 3.97953C26.4835 3.94612 26.5436 3.92941 26.6038 3.92941C26.7073 3.92941 26.8076 3.98287 26.8644 4.06975C26.9579 4.21342 26.9178 4.40722 26.7742 4.50078C26.6038 4.61439 26.5536 4.84494 26.6672 5.01535C26.8443 5.28266 27.1384 5.44304 27.4591 5.44304C27.6429 5.44304 27.8233 5.38958 27.9771 5.28934C28.9026 4.68456 29.1599 3.43823 28.5518 2.51268C27.9737 1.63056 27.0849 1.02577 26.0491 0.811928C25.7818 0.755125 25.5078 0.728394 25.2371 0.728394C24.472 0.728394 23.7235 0.952265 23.0753 1.37662C19.5735 3.67547 19.6604 10.288 20.2652 13.8332C20.3822 14.5282 20.5425 15.2499 20.7397 15.9783C20.7464 16.0051 20.7731 16.0251 20.7998 16.0251C20.7998 16.0251 20.8065 16.0251 20.8098 16.0251C20.8399 16.0218 20.8633 15.9917 20.8633 15.9616C20.7865 14.3077 21.1239 12.9043 21.8657 11.7849C22.544 10.7692 23.5765 10.0742 24.7727 9.83358C25.0734 9.77343 25.3808 9.74336 25.6815 9.74336C26.5804 9.74336 27.4525 10.0107 28.2076 10.5119C28.7923 10.8995 29.19 11.4942 29.327 12.1792C29.464 12.8675 29.327 13.5659 28.9394 14.1506C28.7088 14.4981 28.3546 14.7353 27.9436 14.8189C27.8401 14.8389 27.7365 14.8489 27.6329 14.8489C27.3255 14.8489 27.0281 14.7587 26.7675 14.585C26.3131 14.2809 26.1894 13.6661 26.4901 13.2083C26.547 13.1215 26.6439 13.0713 26.7508 13.0713C26.8109 13.0713 26.8711 13.0881 26.9212 13.1248C27.0649 13.2184 27.1016 13.4122 27.0081 13.5558C26.9546 13.6394 26.9345 13.7363 26.9546 13.8332C26.9746 13.9301 27.0314 14.0136 27.1116 14.0704C27.2687 14.174 27.4491 14.2275 27.6362 14.2275C27.9537 14.2275 28.2477 14.0704 28.4248 13.8064C28.7222 13.362 28.8258 12.8274 28.7222 12.3028C28.6152 11.7782 28.3145 11.3238 27.8668 11.0298C27.2152 10.5954 26.4601 10.3649 25.6849 10.3649C25.4243 10.3649 25.1569 10.3916 24.8997 10.445C23.8638 10.6522 22.9717 11.2503 22.387 12.1324C21.0471 14.1439 21.4547 16.9507 22.0328 18.9521C22.0395 18.9789 22.0662 18.9956 22.0929 18.9956H30.1021C30.2726 18.9956 30.4129 19.1359 30.4129 19.3063V30.4197H19.3029V30.4163ZM19.6738 22.2668C19.6738 22.2668 19.6471 22.2701 19.637 22.2768C19.6203 22.2901 19.6103 22.3068 19.6103 22.3269V29.7313C19.6103 29.7647 19.637 29.7948 19.6738 29.7948H29.7313C29.7647 29.7948 29.7947 29.7681 29.7947 29.7313V19.6739C29.7947 19.6404 29.768 19.6104 29.7313 19.6104H22.3268C22.3068 19.6104 22.2867 19.6204 22.2767 19.6371C22.2667 19.6538 22.2633 19.6739 22.27 19.6939C22.3836 20.0347 22.5139 20.3856 22.6509 20.7331C22.6576 20.7464 22.6777 20.7665 22.6944 20.7732C22.7044 20.7732 22.7178 20.7799 22.7311 20.7799C22.7378 20.7799 22.7445 20.7799 22.7478 20.7765C22.798 20.7464 22.8514 20.7331 22.9049 20.7331H28.4649C28.6353 20.7331 28.7756 20.8734 28.7756 21.0438V28.7757H21.0437C20.8733 28.7757 20.733 28.6354 20.733 28.465V22.9049C20.733 22.8515 20.7464 22.798 20.7764 22.7479C20.7865 22.7345 20.7865 22.7145 20.7831 22.7011C20.7798 22.6844 20.7664 22.6711 20.753 22.6644C20.3888 22.5174 20.038 22.387 19.6972 22.2734C19.6905 22.2734 19.6838 22.2734 19.6771 22.2734L19.6738 22.2668ZM21.4113 23.082C21.4113 23.082 21.3912 23.082 21.3812 23.0887C21.3612 23.0987 21.3478 23.1221 21.3478 23.1422V28.0907C21.3478 28.1241 21.3745 28.1542 21.4113 28.1542H28.0873C28.1207 28.1542 28.1508 28.1275 28.1508 28.0907V21.4147C28.1508 21.3813 28.1241 21.3512 28.0873 21.3512H23.1388C23.1154 21.3512 23.0953 21.3646 23.0853 21.3846C23.0753 21.4047 23.0753 21.4281 23.0853 21.4481C23.3827 21.9025 23.6734 22.2868 23.9708 22.631C23.9841 22.6443 24.0008 22.651 24.0175 22.651H26.9947C27.1651 22.651 27.3054 22.7913 27.3054 22.9618V27.3122H22.9583C22.7879 27.3122 22.6476 27.1719 22.6476 27.0014V24.0243C22.6476 24.0076 22.6409 23.9909 22.6275 23.9775C22.2867 23.6801 21.8991 23.3894 21.4447 23.0921C21.4347 23.0854 21.4213 23.082 21.4113 23.082Z" fill="url(#paint0_radial_427_8455)"/>
<path d="M43.0868 2.35567H33.0895C32.919 2.35567 32.7787 2.496 32.7787 2.66641V3.44829C32.7787 3.6187 32.919 3.75903 33.0895 3.75903C33.2599 3.75903 33.4002 3.6187 33.4002 3.44829V3.0373C33.4002 3.00389 33.4269 2.97382 33.4637 2.97382H40.2232C40.2533 2.97382 40.28 2.99721 40.2834 3.02728C40.2867 3.05735 40.2667 3.08742 40.2366 3.09411L30.5534 5.65358C30.5534 5.65358 30.5433 5.65358 30.5367 5.65358C30.5166 5.65358 30.4999 5.64356 30.4865 5.62685C30.4698 5.6068 30.4698 5.58007 30.4865 5.55668C31.666 3.65545 31.1548 2.07833 30.7438 1.30648C30.7338 1.28643 30.7338 1.26304 30.7438 1.24634C30.7539 1.22629 30.7739 1.21626 30.7973 1.21626H51.6106V0.604797H30.1056C29.982 0.604797 29.8717 0.678307 29.8216 0.788572C29.7715 0.902178 29.7915 1.03249 29.8751 1.12271C29.9519 1.20958 31.7529 3.25783 29.3739 6.02447C29.2837 6.12805 29.2736 6.27507 29.3471 6.39202C29.4039 6.48224 29.5042 6.53904 29.6111 6.53904C29.6378 6.53904 29.6646 6.5357 29.6913 6.52902L43.167 2.96379C43.3173 2.9237 43.4142 2.77668 43.3942 2.62297C43.3741 2.46927 43.2405 2.35232 43.0868 2.35232V2.35567Z" fill="url(#paint1_radial_427_8455)"/>
<path d="M44.6471 3.32132C44.2161 3.32132 43.8652 2.97048 43.8652 2.53944C43.8652 2.10841 44.2161 1.75757 44.6471 1.75757C45.0781 1.75757 45.429 2.10841 45.429 2.53944C45.429 2.97048 45.0781 3.32132 44.6471 3.32132ZM44.6471 2.3824C44.5602 2.3824 44.4867 2.45257 44.4867 2.54279C44.4867 2.633 44.5569 2.70317 44.6471 2.70317C44.7373 2.70317 44.8075 2.633 44.8075 2.54279C44.8075 2.45257 44.7373 2.3824 44.6471 2.3824Z" fill="url(#paint2_radial_427_8455)"/>
<path d="M20.1717 20.1717C15.691 18.735 10.8694 17.8762 7.25074 17.8762C5.30941 17.8762 3.7657 18.1168 2.6664 18.5946C2.6263 18.6113 2.58621 18.6214 2.54277 18.6214C2.45924 18.6214 2.38238 18.5879 2.32224 18.5311L0.0868752 16.2958C0.0233895 16.2323 0.00334135 16.1521 0 16.0986V16.0519C0.00334135 16.0017 0.0233895 15.9215 0.0868752 15.8581L2.07498 13.87C2.13178 13.8132 2.21198 13.7797 2.29551 13.7797H2.3189C2.67642 13.8098 11.13 14.5148 17.4051 17.4886C17.4151 17.492 17.4218 17.4953 17.4318 17.4953C17.4485 17.4953 17.4653 17.4886 17.4753 17.4786C17.4953 17.4586 17.4987 17.4318 17.4886 17.4084C14.5148 11.13 13.8098 2.67642 13.7797 2.32224C13.7731 2.23202 13.8065 2.14181 13.87 2.07832L15.8547 0.0868752C15.9182 0.0233895 15.9984 0.00334135 16.0519 0H16.0986C16.1488 0.00334135 16.2289 0.0233895 16.2924 0.0868752L18.5278 2.32224C18.618 2.41246 18.6447 2.54611 18.5946 2.6664C16.9975 6.35191 18.2872 14.2976 20.1684 20.1717H20.1717ZM7.23737 17.2715C10.5253 17.2715 14.7821 17.9531 18.9154 19.1426C18.9221 19.1426 18.9254 19.1426 18.9321 19.1426C18.9555 19.1426 18.9789 19.1292 18.9889 19.1059C19.0023 19.0758 18.9889 19.0424 18.9655 19.029C13.1382 15.5139 3.5151 14.5182 2.43919 14.4146C2.43919 14.4146 2.43585 14.4146 2.4325 14.4146C2.4158 14.4146 2.39909 14.4213 2.38907 14.4313L0.788559 16.0318C0.76517 16.0552 0.76517 16.0953 0.788559 16.1187L2.58621 17.9163C2.58621 17.9163 2.61294 17.933 2.62964 17.933C2.63633 17.933 2.64301 17.933 2.65303 17.9297C3.79244 17.492 5.33614 17.2681 7.24071 17.2681L7.23737 17.2715ZM16.0752 0.771852C16.0752 0.771852 16.0418 0.778535 16.0318 0.788559L14.4313 2.38907C14.4313 2.38907 14.4113 2.41914 14.4146 2.43919C14.5182 3.51844 15.5139 13.1382 19.029 18.9655C19.039 18.9856 19.0624 18.9956 19.0825 18.9956C19.0891 18.9956 19.0992 18.9956 19.1059 18.9889C19.1359 18.9755 19.1493 18.9455 19.1393 18.9154C17.6657 13.7931 16.4628 6.45883 17.9297 2.64969C17.9397 2.6263 17.9297 2.59957 17.9163 2.58287L16.1187 0.785218C16.1187 0.785218 16.092 0.768511 16.0752 0.768511V0.771852Z" fill="url(#paint3_radial_427_8455)"/>
<path d="M15.4303 15.4304C11.1834 13.5292 7.45445 12.5267 4.63435 12.5267C3.7656 12.5267 2.9737 12.6203 2.28538 12.8108C2.25865 12.8174 2.23192 12.8208 2.20519 12.8208C2.10829 12.8208 2.01473 12.774 1.95793 12.6972L0.0633828 10.1644C0.0132625 10.0976 -0.00678562 10.0174 0.00323844 9.93386C0.0166038 9.85032 0.0567001 9.78016 0.123527 9.73003L2.3756 8.04933C2.42906 8.00924 2.49589 7.98919 2.56271 7.98919C2.5861 7.98919 2.60615 7.98919 2.62954 7.99587C2.78993 8.03263 6.60575 8.89136 10.7089 10.7959C10.719 10.7993 10.7256 10.8026 10.7357 10.8026C10.7524 10.8026 10.7691 10.7959 10.7791 10.7859C10.7991 10.7659 10.8025 10.7391 10.7925 10.7157C8.8879 6.61255 8.02917 2.79673 7.99241 2.633C7.97236 2.54613 7.99241 2.45257 8.04587 2.37906L9.72992 0.126987C9.78004 0.0601599 9.85355 0.0167223 9.93374 0.00669829C9.95045 0.00669829 9.96381 0.00335693 9.98052 0.00335693C10.0473 0.00335693 10.1108 0.0234051 10.1643 0.0668426L12.697 1.95805C12.8006 2.0349 12.8441 2.16521 12.8106 2.28884C12.0054 5.25596 12.9109 9.8002 15.4303 15.4337V15.4304ZM4.61096 11.9119C7.19717 11.9119 10.3948 12.6804 14.1138 14.1941C14.1205 14.1941 14.1305 14.1974 14.1372 14.1974C14.1539 14.1974 14.1706 14.1907 14.1806 14.1807C14.1973 14.164 14.204 14.1373 14.194 14.1139C12.1992 9.21547 11.4942 5.15572 12.1491 2.36903C12.1557 2.34565 12.1457 2.31891 12.1257 2.30555L10.0908 0.785233C10.0908 0.785233 10.0674 0.771868 10.054 0.771868C10.054 0.771868 10.0473 0.771868 10.044 0.771868C10.0273 0.771868 10.0139 0.781892 10.0039 0.795258L8.64732 2.60961C8.64732 2.60961 8.63395 2.64303 8.63729 2.65973C8.8478 3.53183 10.0006 8.03597 12.3028 12.3029C8.03585 10.004 3.53171 8.84792 2.65961 8.63741C2.65627 8.63741 2.64959 8.63741 2.64625 8.63741C2.63288 8.63741 2.61952 8.64075 2.60949 8.65078L0.795139 10.0074C0.795139 10.0074 0.771749 10.0308 0.771749 10.0475C0.771749 10.0642 0.771749 10.0809 0.785115 10.0942L2.30543 12.1291C2.30543 12.1291 2.3355 12.1525 2.35555 12.1525C2.35889 12.1525 2.36557 12.1525 2.36892 12.1525C3.03719 11.9955 3.79233 11.9153 4.61096 11.9153V11.9119Z" fill="url(#paint4_radial_427_8455)"/>
<path d="M7.20727 7.84881C5.89078 7.84881 4.20674 7.68843 2.8869 6.4421C1.66063 5.286 0.945579 3.40481 0.70166 0.70166C3.40816 0.94892 5.286 1.66397 6.4421 2.8869C7.76862 4.29361 7.89559 6.17145 7.83545 7.83545C7.62828 7.84213 7.41778 7.84881 7.20727 7.84881ZM1.47351 1.41003C1.47351 1.41003 1.4401 1.41671 1.43008 1.42673C1.41671 1.4401 1.41003 1.46015 1.41337 1.4802C1.70407 3.57856 2.32556 5.05544 3.3146 5.98768C4.47071 7.0803 5.981 7.22398 7.16718 7.22398C7.16718 7.22398 7.20059 7.2173 7.21062 7.20727C7.22064 7.19725 7.22732 7.18054 7.22732 7.16384C7.22732 5.97766 7.0803 4.47071 5.99102 3.31126C5.05878 2.32222 3.58525 1.70072 1.48354 1.41003C1.48354 1.41003 1.47685 1.41003 1.47351 1.41003Z" fill="url(#paint5_radial_427_8455)"/>
<path d="M1.22296 50V30.7973C1.22296 30.7739 1.23299 30.7538 1.25304 30.7438C1.26306 30.7371 1.27308 30.7338 1.28645 30.7338C1.29647 30.7338 1.3065 30.7338 1.31652 30.7405C1.72417 30.9576 2.37573 31.2149 3.18768 31.2149C3.99963 31.2149 4.78485 30.9677 5.56672 30.4832C5.57675 30.4765 5.58677 30.4732 5.60014 30.4732C5.6135 30.4732 5.62687 30.4765 5.63689 30.4865C5.65694 30.4999 5.66696 30.5266 5.66028 30.5533L3.1008 40.2366C3.09412 40.2633 3.06739 40.2834 3.04066 40.2834H3.03398C3.0039 40.28 2.98051 40.2533 2.98051 40.2232V33.4637C2.98051 33.4303 3.00725 33.4002 3.044 33.4002H3.45499C3.6254 33.4002 3.76573 33.2598 3.76573 33.0894C3.76573 32.919 3.6254 32.7787 3.45499 32.7787H2.67311C2.5027 32.7787 2.36236 32.919 2.36236 33.0894V43.0868C2.36236 43.2438 2.47931 43.3741 2.63301 43.3942C2.64638 43.3942 2.65974 43.3942 2.67311 43.3942C2.81345 43.3942 2.93708 43.3006 2.97383 43.1636L6.53906 29.6879C6.54574 29.6612 6.54908 29.6345 6.54908 29.6077C6.54908 29.5008 6.49562 29.4006 6.40206 29.3438C6.35194 29.3137 6.29514 29.297 6.23833 29.297C6.16482 29.297 6.09131 29.3237 6.03451 29.3705C5.08891 30.1858 4.12326 30.5968 3.16763 30.5968C1.9447 30.5968 1.16282 29.9018 1.12941 29.8717C1.0726 29.8182 0.999093 29.7915 0.9189 29.7915C0.875463 29.7915 0.832025 29.8015 0.791929 29.8182C0.678323 29.8684 0.608154 29.9786 0.608154 30.1023V49.9933H1.22965L1.22296 50Z" fill="url(#paint6_radial_427_8455)"/>
<path d="M2.53944 45.4257C2.10841 45.4257 1.75757 45.0748 1.75757 44.6438C1.75757 44.2128 2.10841 43.8619 2.53944 43.8619C2.97048 43.8619 3.32132 44.2128 3.32132 44.6438C3.32132 45.0748 2.97048 45.4257 2.53944 45.4257ZM2.53944 44.4868C2.45257 44.4868 2.37906 44.5569 2.37906 44.6472C2.37906 44.7374 2.44923 44.8075 2.53944 44.8075C2.62966 44.8075 2.69983 44.7374 2.69983 44.6472C2.69983 44.5569 2.62966 44.4868 2.53944 44.4868Z" fill="url(#paint7_radial_427_8455)"/>
</g>
<g clip-path="url(#clip1_427_8455)">
<path d="M362.759 30.4163C362.929 30.4163 363.069 30.276 363.069 30.1056V22.0963C363.069 22.0696 363.086 22.0429 363.113 22.0362C364.366 21.6753 365.532 21.4916 366.574 21.4916C367.908 21.4916 369.037 21.7956 369.932 22.3904C370.811 22.9751 371.409 23.8673 371.62 24.9031C371.827 25.9389 371.62 26.9914 371.035 27.8735C370.738 28.3179 370.287 28.622 369.762 28.7289C369.632 28.7557 369.498 28.769 369.364 28.769C368.97 28.769 368.589 28.6521 368.258 28.4315C368.048 28.2912 367.904 28.0774 367.854 27.8301C367.804 27.5828 367.854 27.3289 367.994 27.1184C368.065 27.0148 368.178 26.9547 368.305 26.9547C368.379 26.9547 368.449 26.9747 368.509 27.0182C368.559 27.0516 368.619 27.0716 368.679 27.0716C368.783 27.0716 368.88 27.0215 368.937 26.9346C369.03 26.7909 368.993 26.6005 368.85 26.5036C368.686 26.3967 368.499 26.3365 368.302 26.3365C367.968 26.3365 367.657 26.5002 367.473 26.7776C367.239 27.1251 367.159 27.5427 367.243 27.9537C367.326 28.3647 367.563 28.7189 367.911 28.9495C368.345 29.2368 368.846 29.3905 369.361 29.3905C369.535 29.3905 369.712 29.3738 369.882 29.3371C370.571 29.2001 371.162 28.8024 371.55 28.2177C372.228 27.2019 372.468 25.979 372.228 24.7828C371.987 23.5832 371.296 22.5508 370.277 21.8758C369.267 21.2042 368.018 20.8634 366.564 20.8634C366.411 20.8634 366.254 20.8667 366.1 20.8734C366.07 20.8734 366.043 20.85 366.04 20.8199C366.036 20.7899 366.053 20.7598 366.086 20.7498C366.815 20.5526 367.537 20.3923 368.232 20.2753C369.451 20.0681 370.841 19.9512 372.148 19.9512C374.57 19.9512 378.901 20.3588 380.688 23.082C381.266 23.9642 381.47 25.02 381.253 26.0558C381.039 27.0917 380.434 27.9805 379.552 28.5585C379.225 28.7724 378.847 28.886 378.456 28.886C377.778 28.886 377.15 28.5485 376.779 27.9805C376.642 27.77 376.592 27.516 376.645 27.2688C376.695 27.0215 376.842 26.8076 377.053 26.6707C377.113 26.6306 377.183 26.6105 377.257 26.6105C377.384 26.6105 377.501 26.674 377.567 26.7776C377.624 26.8645 377.721 26.9179 377.828 26.9179C377.888 26.9179 377.948 26.9012 377.998 26.8678C378.142 26.7742 378.182 26.5804 378.089 26.4368C377.942 26.2162 377.721 26.0625 377.46 26.0091C377.394 25.9957 377.323 25.989 377.257 25.989C377.063 25.989 376.876 26.0458 376.715 26.1527C375.994 26.6272 375.79 27.5995 376.264 28.3213C376.752 29.0631 377.574 29.5041 378.463 29.5041C378.974 29.5041 379.472 29.3571 379.9 29.0731C380.922 28.4015 381.62 27.3757 381.871 26.1761C382.118 24.9799 381.888 23.757 381.216 22.7345C379.258 19.7507 374.734 19.3063 372.211 19.3063C370.881 19.3063 369.471 19.4266 368.135 19.6538C366.31 19.9646 364.392 20.5359 362.735 21.2577C362.665 21.271 362.618 21.2944 362.575 21.3278C362.043 21.5684 361.549 21.8157 361.091 22.0763L361.014 22.1064C360.981 22.1197 360.951 22.1398 360.921 22.1699C360.139 22.6276 359.464 23.1121 358.906 23.6167C358.842 23.6768 358.802 23.7603 358.802 23.8472V26.6205C358.802 26.6539 358.776 26.684 358.739 26.684H355.444C355.411 26.684 355.381 26.6573 355.381 26.6205V23.326C355.381 23.2925 355.408 23.2625 355.444 23.2625H358.218C358.304 23.2625 358.388 23.2257 358.448 23.1589C358.953 22.6009 359.437 21.9259 359.888 21.1574C359.928 21.114 359.948 21.0839 359.958 21.0538L359.985 20.9837C360.249 20.5159 360.496 20.0214 360.727 19.5068C360.77 19.45 360.794 19.3999 360.8 19.3464C361.529 17.6724 362.097 15.7545 362.408 13.9334C363.19 9.34574 362.852 3.16424 359.327 0.852024C358.578 0.360845 357.713 0.10022 356.824 0.10022C356.51 0.10022 356.196 0.133633 355.885 0.197119C354.689 0.444379 353.66 1.14606 352.988 2.16852C352.193 3.37809 352.534 5.00867 353.744 5.80391C354.001 5.97098 354.295 6.06119 354.602 6.06119C355.134 6.06119 355.625 5.79723 355.915 5.35283C356.062 5.1323 356.113 4.86499 356.056 4.6077C356.002 4.34708 355.849 4.12655 355.628 3.97953C355.578 3.94612 355.518 3.92941 355.458 3.92941C355.354 3.92941 355.254 3.98287 355.197 4.06975C355.103 4.21342 355.144 4.40722 355.287 4.50078C355.458 4.61439 355.508 4.84494 355.394 5.01535C355.217 5.28266 354.923 5.44304 354.602 5.44304C354.418 5.44304 354.238 5.38958 354.084 5.28934C353.159 4.68456 352.902 3.43823 353.51 2.51268C354.088 1.63056 354.976 1.02577 356.012 0.811928C356.28 0.755125 356.554 0.728394 356.824 0.728394C357.589 0.728394 358.338 0.952265 358.986 1.37662C362.488 3.67547 362.401 10.288 361.796 13.8332C361.679 14.5282 361.519 15.2499 361.322 15.9783C361.315 16.0051 361.288 16.0251 361.262 16.0251C361.262 16.0251 361.255 16.0251 361.252 16.0251C361.221 16.0218 361.198 15.9917 361.198 15.9616C361.275 14.3077 360.937 12.9043 360.196 11.7849C359.517 10.7692 358.485 10.0742 357.289 9.83358C356.988 9.77343 356.681 9.74336 356.38 9.74336C355.481 9.74336 354.609 10.0107 353.854 10.5119C353.269 10.8995 352.871 11.4942 352.734 12.1792C352.597 12.8675 352.734 13.5659 353.122 14.1506C353.353 14.4981 353.707 14.7353 354.118 14.8189C354.221 14.8389 354.325 14.8489 354.429 14.8489C354.736 14.8489 355.033 14.7587 355.294 14.585C355.748 14.2809 355.872 13.6661 355.571 13.2083C355.514 13.1215 355.418 13.0713 355.311 13.0713C355.25 13.0713 355.19 13.0881 355.14 13.1248C354.997 13.2184 354.96 13.4122 355.053 13.5558C355.107 13.6394 355.127 13.7363 355.107 13.8332C355.087 13.9301 355.03 14.0136 354.95 14.0704C354.793 14.174 354.612 14.2275 354.425 14.2275C354.108 14.2275 353.814 14.0704 353.637 13.8064C353.339 13.362 353.236 12.8274 353.339 12.3028C353.446 11.7782 353.747 11.3238 354.195 11.0298C354.846 10.5954 355.601 10.3649 356.377 10.3649C356.637 10.3649 356.904 10.3916 357.162 10.445C358.198 10.6522 359.09 11.2503 359.674 12.1324C361.014 14.1439 360.607 16.9507 360.029 18.9521C360.022 18.9789 359.995 18.9956 359.968 18.9956H351.959C351.789 18.9956 351.649 19.1359 351.649 19.3063V30.4197H362.759V30.4163ZM362.388 22.2668C362.388 22.2668 362.414 22.2701 362.424 22.2768C362.441 22.2901 362.451 22.3068 362.451 22.3269V29.7313C362.451 29.7647 362.424 29.7948 362.388 29.7948H352.33C352.297 29.7948 352.267 29.7681 352.267 29.7313V19.6739C352.267 19.6404 352.293 19.6104 352.33 19.6104H359.735C359.755 19.6104 359.775 19.6204 359.785 19.6371C359.795 19.6538 359.798 19.6739 359.791 19.6939C359.678 20.0347 359.547 20.3856 359.41 20.7331C359.404 20.7464 359.384 20.7665 359.367 20.7732C359.357 20.7732 359.344 20.7799 359.33 20.7799C359.324 20.7799 359.317 20.7799 359.314 20.7765C359.263 20.7464 359.21 20.7331 359.157 20.7331H353.597C353.426 20.7331 353.286 20.8734 353.286 21.0438V28.7757H361.018C361.188 28.7757 361.328 28.6354 361.328 28.465V22.9049C361.328 22.8515 361.315 22.798 361.285 22.7479C361.275 22.7345 361.275 22.7145 361.278 22.7011C361.282 22.6844 361.295 22.6711 361.308 22.6644C361.673 22.5174 362.023 22.387 362.364 22.2734C362.371 22.2734 362.378 22.2734 362.384 22.2734L362.388 22.2668ZM360.65 23.082C360.65 23.082 360.67 23.082 360.68 23.0887C360.7 23.0987 360.714 23.1221 360.714 23.1422V28.0907C360.714 28.1241 360.687 28.1542 360.65 28.1542H353.974C353.941 28.1542 353.911 28.1275 353.911 28.0907V21.4147C353.911 21.3813 353.937 21.3512 353.974 21.3512H358.923C358.946 21.3512 358.966 21.3646 358.976 21.3846C358.986 21.4047 358.986 21.4281 358.976 21.4481C358.679 21.9025 358.388 22.2868 358.091 22.631C358.077 22.6443 358.061 22.651 358.044 22.651H355.067C354.896 22.651 354.756 22.7913 354.756 22.9618V27.3122H359.103C359.273 27.3122 359.414 27.1719 359.414 27.0014V24.0243C359.414 24.0076 359.42 23.9909 359.434 23.9775C359.775 23.6801 360.162 23.3894 360.617 23.0921C360.627 23.0854 360.64 23.082 360.65 23.082Z" fill="url(#paint8_radial_427_8455)"/>
<path d="M338.975 2.35567H348.972C349.142 2.35567 349.283 2.496 349.283 2.66641V3.44829C349.283 3.6187 349.142 3.75903 348.972 3.75903C348.802 3.75903 348.661 3.6187 348.661 3.44829V3.0373C348.661 3.00389 348.635 2.97382 348.598 2.97382H341.838C341.808 2.97382 341.781 2.99721 341.778 3.02728C341.775 3.05735 341.795 3.08742 341.825 3.09411L351.508 5.65358C351.508 5.65358 351.518 5.65358 351.525 5.65358C351.545 5.65358 351.562 5.64356 351.575 5.62685C351.592 5.6068 351.592 5.58007 351.575 5.55668C350.395 3.65545 350.907 2.07833 351.318 1.30648C351.328 1.28643 351.328 1.26304 351.318 1.24634C351.308 1.22629 351.288 1.21626 351.264 1.21626H330.451V0.604797H351.956C352.08 0.604797 352.19 0.678307 352.24 0.788572C352.29 0.902178 352.27 1.03249 352.186 1.12271C352.11 1.20958 350.309 3.25783 352.688 6.02447C352.778 6.12805 352.788 6.27507 352.714 6.39202C352.658 6.48224 352.557 6.53904 352.45 6.53904C352.424 6.53904 352.397 6.5357 352.37 6.52902L338.895 2.96379C338.744 2.9237 338.647 2.77668 338.667 2.62297C338.687 2.46927 338.821 2.35232 338.975 2.35232V2.35567Z" fill="url(#paint9_radial_427_8455)"/>
<path d="M337.414 3.32132C337.845 3.32132 338.196 2.97048 338.196 2.53944C338.196 2.10841 337.845 1.75757 337.414 1.75757C336.983 1.75757 336.633 2.10841 336.633 2.53944C336.633 2.97048 336.983 3.32132 337.414 3.32132ZM337.414 2.3824C337.501 2.3824 337.575 2.45257 337.575 2.54279C337.575 2.633 337.505 2.70317 337.414 2.70317C337.324 2.70317 337.254 2.633 337.254 2.54279C337.254 2.45257 337.324 2.3824 337.414 2.3824Z" fill="url(#paint10_radial_427_8455)"/>
<path d="M361.89 20.1717C366.371 18.735 371.192 17.8762 374.811 17.8762C376.752 17.8762 378.296 18.1168 379.395 18.5946C379.435 18.6113 379.475 18.6214 379.519 18.6214C379.602 18.6214 379.679 18.5879 379.739 18.5311L381.975 16.2958C382.038 16.2323 382.058 16.1521 382.062 16.0986V16.0519C382.058 16.0017 382.038 15.9215 381.975 15.8581L379.987 13.87C379.93 13.8132 379.85 13.7797 379.766 13.7797H379.743C379.385 13.8098 370.931 14.5148 364.656 17.4886C364.646 17.492 364.64 17.4953 364.63 17.4953C364.613 17.4953 364.596 17.4886 364.586 17.4786C364.566 17.4586 364.563 17.4318 364.573 17.4084C367.547 11.13 368.252 2.67642 368.282 2.32224C368.288 2.23202 368.255 2.14181 368.192 2.07832L366.207 0.0868752C366.143 0.0233895 366.063 0.00334135 366.01 0H365.963C365.913 0.00334135 365.833 0.0233895 365.769 0.0868752L363.534 2.32224C363.444 2.41246 363.417 2.54611 363.467 2.6664C365.064 6.35191 363.774 14.2976 361.893 20.1717H361.89ZM374.824 17.2715C371.536 17.2715 367.279 17.9531 363.146 19.1426C363.139 19.1426 363.136 19.1426 363.129 19.1426C363.106 19.1426 363.083 19.1292 363.073 19.1059C363.059 19.0758 363.073 19.0424 363.096 19.029C368.923 15.5139 378.546 14.5182 379.622 14.4146C379.622 14.4146 379.626 14.4146 379.629 14.4146C379.646 14.4146 379.662 14.4213 379.672 14.4313L381.273 16.0318C381.296 16.0552 381.296 16.0953 381.273 16.1187L379.475 17.9163C379.475 17.9163 379.449 17.933 379.432 17.933C379.425 17.933 379.419 17.933 379.408 17.9297C378.269 17.492 376.725 17.2681 374.821 17.2681L374.824 17.2715ZM365.986 0.771852C365.986 0.771852 366.02 0.778535 366.03 0.788559L367.63 2.38907C367.63 2.38907 367.65 2.41914 367.647 2.43919C367.543 3.51844 366.548 13.1382 363.033 18.9655C363.022 18.9856 362.999 18.9956 362.979 18.9956C362.972 18.9956 362.962 18.9956 362.956 18.9889C362.926 18.9755 362.912 18.9455 362.922 18.9154C364.396 13.7931 365.599 6.45883 364.132 2.64969C364.122 2.6263 364.132 2.59957 364.145 2.58287L365.943 0.785218C365.943 0.785218 365.97 0.768511 365.986 0.768511V0.771852Z" fill="url(#paint11_radial_427_8455)"/>
<path d="M366.631 15.4304C370.878 13.5292 374.607 12.5267 377.427 12.5267C378.296 12.5267 379.088 12.6203 379.776 12.8108C379.803 12.8174 379.829 12.8208 379.856 12.8208C379.953 12.8208 380.047 12.774 380.103 12.6972L381.998 10.1644C382.048 10.0976 382.068 10.0174 382.058 9.93386C382.045 9.85032 382.005 9.78016 381.938 9.73003L379.686 8.04933C379.632 8.00924 379.566 7.98919 379.499 7.98919C379.475 7.98919 379.455 7.98919 379.432 7.99587C379.271 8.03263 375.456 8.89136 371.352 10.7959C371.342 10.7993 371.336 10.8026 371.326 10.8026C371.309 10.8026 371.292 10.7959 371.282 10.7859C371.262 10.7659 371.259 10.7391 371.269 10.7157C373.174 6.61255 374.032 2.79673 374.069 2.633C374.089 2.54613 374.069 2.45257 374.016 2.37906L372.331 0.126987C372.281 0.0601599 372.208 0.0167223 372.128 0.00669829C372.111 0.00669829 372.098 0.00335693 372.081 0.00335693C372.014 0.00335693 371.951 0.0234051 371.897 0.0668426L369.364 1.95805C369.261 2.0349 369.217 2.16521 369.251 2.28884C370.056 5.25596 369.151 9.8002 366.631 15.4337V15.4304ZM377.45 11.9119C374.864 11.9119 371.667 12.6804 367.948 14.1941C367.941 14.1941 367.931 14.1974 367.924 14.1974C367.908 14.1974 367.891 14.1907 367.881 14.1807C367.864 14.164 367.857 14.1373 367.867 14.1139C369.862 9.21547 370.567 5.15572 369.912 2.36903C369.906 2.34565 369.916 2.31891 369.936 2.30555L371.971 0.785233C371.971 0.785233 371.994 0.771868 372.007 0.771868C372.007 0.771868 372.014 0.771868 372.017 0.771868C372.034 0.771868 372.047 0.781892 372.057 0.795258L373.414 2.60961C373.414 2.60961 373.427 2.64303 373.424 2.65973C373.214 3.53183 372.061 8.03597 369.759 12.3029C374.026 10.004 378.53 8.84792 379.402 8.63741C379.405 8.63741 379.412 8.63741 379.415 8.63741C379.429 8.63741 379.442 8.64075 379.452 8.65078L381.266 10.0074C381.266 10.0074 381.29 10.0308 381.29 10.0475C381.29 10.0642 381.29 10.0809 381.276 10.0942L379.756 12.1291C379.756 12.1291 379.726 12.1525 379.706 12.1525C379.703 12.1525 379.696 12.1525 379.692 12.1525C379.024 11.9955 378.269 11.9153 377.45 11.9153V11.9119Z" fill="url(#paint12_radial_427_8455)"/>
<path d="M374.854 7.84881C376.171 7.84881 377.855 7.68843 379.175 6.4421C380.401 5.286 381.116 3.40481 381.36 0.70166C378.653 0.94892 376.776 1.66397 375.619 2.8869C374.293 4.29361 374.166 6.17145 374.226 7.83545C374.433 7.84213 374.644 7.84881 374.854 7.84881ZM380.588 1.41003C380.588 1.41003 380.621 1.41671 380.631 1.42673C380.645 1.4401 380.651 1.46015 380.648 1.4802C380.357 3.57856 379.736 5.05544 378.747 5.98768C377.591 7.0803 376.081 7.22398 374.894 7.22398C374.894 7.22398 374.861 7.2173 374.851 7.20727C374.841 7.19725 374.834 7.18054 374.834 7.16384C374.834 5.97766 374.981 4.47071 376.071 3.31126C377.003 2.32222 378.476 1.70072 380.578 1.41003C380.578 1.41003 380.585 1.41003 380.588 1.41003Z" fill="url(#paint13_radial_427_8455)"/>
<path d="M380.839 50V30.7973C380.839 30.7739 380.829 30.7538 380.808 30.7438C380.798 30.7371 380.788 30.7338 380.775 30.7338C380.765 30.7338 380.755 30.7338 380.745 30.7405C380.337 30.9576 379.686 31.2149 378.874 31.2149C378.062 31.2149 377.277 30.9677 376.495 30.4832C376.485 30.4765 376.475 30.4732 376.461 30.4732C376.448 30.4732 376.435 30.4765 376.425 30.4865C376.405 30.4999 376.395 30.5266 376.401 30.5533L378.961 40.2366C378.967 40.2633 378.994 40.2834 379.021 40.2834H379.028C379.058 40.28 379.081 40.2533 379.081 40.2232V33.4637C379.081 33.4303 379.054 33.4002 379.018 33.4002H378.607C378.436 33.4002 378.296 33.2598 378.296 33.0894C378.296 32.919 378.436 32.7787 378.607 32.7787H379.388C379.559 32.7787 379.699 32.919 379.699 33.0894V43.0868C379.699 43.2438 379.582 43.3741 379.429 43.3942C379.415 43.3942 379.402 43.3942 379.388 43.3942C379.248 43.3942 379.124 43.3006 379.088 43.1636L375.522 29.6879C375.516 29.6612 375.512 29.6345 375.512 29.6077C375.512 29.5008 375.566 29.4006 375.659 29.3438C375.71 29.3137 375.766 29.297 375.823 29.297C375.897 29.297 375.97 29.3237 376.027 29.3705C376.973 30.1858 377.938 30.5968 378.894 30.5968C380.117 30.5968 380.899 29.9018 380.932 29.8717C380.989 29.8182 381.062 29.7915 381.143 29.7915C381.186 29.7915 381.229 29.8015 381.27 29.8182C381.383 29.8684 381.453 29.9786 381.453 30.1023V49.9933H380.832L380.839 50Z" fill="url(#paint14_radial_427_8455)"/>
<path d="M379.522 45.4257C379.953 45.4257 380.304 45.0748 380.304 44.6438C380.304 44.2128 379.953 43.8619 379.522 43.8619C379.091 43.8619 378.74 44.2128 378.74 44.6438C378.74 45.0748 379.091 45.4257 379.522 45.4257ZM379.522 44.4868C379.609 44.4868 379.682 44.5569 379.682 44.6472C379.682 44.7374 379.612 44.8075 379.522 44.8075C379.432 44.8075 379.362 44.7374 379.362 44.6472C379.362 44.5569 379.432 44.4868 379.522 44.4868Z" fill="url(#paint15_radial_427_8455)"/>
</g>
<g clip-path="url(#clip2_427_8455)">
<path d="M19.3029 355.584C19.1325 355.584 18.9922 355.724 18.9922 355.894V363.904C18.9922 363.93 18.9754 363.957 18.9487 363.964C17.6957 364.325 16.5296 364.508 15.4871 364.508C14.1539 364.508 13.0245 364.204 12.129 363.61C11.2502 363.025 10.6521 362.133 10.4416 361.097C10.2345 360.061 10.4416 359.009 11.0264 358.126C11.3237 357.682 11.7748 357.378 12.2994 357.271C12.4297 357.244 12.5634 357.231 12.697 357.231C13.0913 357.231 13.4722 357.348 13.803 357.568C14.0135 357.709 14.1572 357.923 14.2073 358.17C14.2575 358.417 14.2073 358.671 14.067 358.882C13.9968 358.985 13.8832 359.045 13.7563 359.045C13.6827 359.045 13.6126 359.025 13.5524 358.982C13.5023 358.948 13.4422 358.928 13.382 358.928C13.2784 358.928 13.1815 358.978 13.1247 359.065C13.0312 359.209 13.0679 359.399 13.2116 359.496C13.3753 359.603 13.5625 359.663 13.7596 359.663C14.0937 359.663 14.4045 359.5 14.5883 359.222C14.8221 358.875 14.9023 358.457 14.8188 358.046C14.7353 357.635 14.498 357.281 14.1505 357.051C13.7162 356.763 13.215 356.609 12.7004 356.609C12.5266 356.609 12.3495 356.626 12.1791 356.663C11.4908 356.8 10.8994 357.198 10.5118 357.782C9.8335 358.798 9.59293 360.021 9.8335 361.217C10.0741 362.417 10.7657 363.449 11.7849 364.124C12.7939 364.796 14.0436 365.137 15.4971 365.137C15.6508 365.137 15.8078 365.133 15.9615 365.127C15.9916 365.127 16.0183 365.15 16.0217 365.18C16.025 365.21 16.0083 365.24 15.9749 365.25C15.2465 365.447 14.5248 365.608 13.8298 365.725C12.6102 365.932 11.2202 366.049 9.9137 366.049C7.49122 366.049 3.16082 365.641 1.3732 362.918C0.795146 362.036 0.591323 360.98 0.808511 359.944C1.02236 358.908 1.62714 358.02 2.50926 357.441C2.83671 357.228 3.21429 357.114 3.60522 357.114C4.28352 357.114 4.91169 357.451 5.28258 358.02C5.41958 358.23 5.4697 358.484 5.41624 358.731C5.36612 358.978 5.2191 359.192 5.00859 359.329C4.94845 359.369 4.87828 359.389 4.80477 359.389C4.6778 359.389 4.56085 359.326 4.49402 359.222C4.43722 359.136 4.34032 359.082 4.2334 359.082C4.17325 359.082 4.11311 359.099 4.06299 359.132C3.91931 359.226 3.87921 359.42 3.97277 359.563C4.11979 359.784 4.34032 359.937 4.60095 359.991C4.66777 360.004 4.73794 360.011 4.80477 360.011C4.99857 360.011 5.18568 359.954 5.34607 359.847C6.0678 359.373 6.27162 358.4 5.79715 357.679C5.30931 356.937 4.48734 356.496 3.59854 356.496C3.08731 356.496 2.58945 356.643 2.16176 356.927C1.1393 357.598 0.440962 358.624 0.190361 359.824C-0.0568991 361.02 0.173654 362.243 0.845266 363.265C2.8033 366.249 7.32749 366.694 9.85021 366.694C11.1801 366.694 12.5901 366.573 13.9267 366.346C15.751 366.035 17.669 365.464 19.3263 364.742C19.3965 364.729 19.4432 364.706 19.4867 364.672C20.0179 364.432 20.5125 364.184 20.9702 363.924L21.0471 363.894C21.0805 363.88 21.1106 363.86 21.1406 363.83C21.9225 363.372 22.5975 362.888 23.1555 362.383C23.219 362.323 23.2591 362.24 23.2591 362.153V359.379C23.2591 359.346 23.2858 359.316 23.3225 359.316H26.6171C26.6505 359.316 26.6806 359.343 26.6806 359.379V362.674C26.6806 362.707 26.6539 362.737 26.6171 362.737H23.8438C23.7569 362.737 23.6734 362.774 23.6132 362.841C23.1087 363.399 22.6242 364.074 22.1731 364.843C22.133 364.886 22.113 364.916 22.103 364.946L22.0762 365.016C21.8123 365.484 21.565 365.979 21.3344 366.493C21.291 366.55 21.2676 366.6 21.2609 366.654C20.5325 368.328 19.9645 370.246 19.6537 372.067C18.8719 376.654 19.2093 382.836 22.7345 385.148C23.4829 385.639 24.3483 385.9 25.2371 385.9C25.5512 385.9 25.8653 385.866 26.1761 385.803C27.3723 385.556 28.4014 384.854 29.073 383.831C29.8683 382.622 29.5274 380.991 28.3179 380.196C28.0606 380.029 27.7665 379.939 27.4591 379.939C26.9279 379.939 26.4367 380.203 26.146 380.647C25.999 380.868 25.9489 381.135 26.0057 381.392C26.0591 381.653 26.2128 381.873 26.4333 382.02C26.4835 382.054 26.5436 382.071 26.6038 382.071C26.7073 382.071 26.8076 382.017 26.8644 381.93C26.9579 381.787 26.9178 381.593 26.7742 381.499C26.6038 381.386 26.5536 381.155 26.6672 380.985C26.8443 380.717 27.1384 380.557 27.4591 380.557C27.6429 380.557 27.8233 380.61 27.9771 380.711C28.9026 381.315 29.1599 382.562 28.5518 383.487C27.9737 384.369 27.0849 384.974 26.0491 385.188C25.7818 385.245 25.5078 385.272 25.2371 385.272C24.472 385.272 23.7235 385.048 23.0753 384.623C19.5735 382.325 19.6604 375.712 20.2652 372.167C20.3822 371.472 20.5425 370.75 20.7397 370.022C20.7464 369.995 20.7731 369.975 20.7998 369.975C20.7998 369.975 20.8065 369.975 20.8098 369.975C20.8399 369.978 20.8633 370.008 20.8633 370.038C20.7865 371.692 21.1239 373.096 21.8657 374.215C22.544 375.231 23.5765 375.926 24.7727 376.166C25.0734 376.227 25.3808 376.257 25.6815 376.257C26.5804 376.257 27.4525 375.989 28.2076 375.488C28.7923 375.1 29.19 374.506 29.327 373.821C29.464 373.132 29.327 372.434 28.9394 371.849C28.7088 371.502 28.3546 371.265 27.9436 371.181C27.8401 371.161 27.7365 371.151 27.6329 371.151C27.3255 371.151 27.0281 371.241 26.7675 371.415C26.3131 371.719 26.1894 372.334 26.4901 372.792C26.547 372.878 26.6439 372.929 26.7508 372.929C26.8109 372.929 26.8711 372.912 26.9212 372.875C27.0649 372.782 27.1016 372.588 27.0081 372.444C26.9546 372.361 26.9345 372.264 26.9546 372.167C26.9746 372.07 27.0314 371.986 27.1116 371.93C27.2687 371.826 27.4491 371.773 27.6362 371.773C27.9537 371.773 28.2477 371.93 28.4248 372.194C28.7222 372.638 28.8258 373.173 28.7222 373.697C28.6152 374.222 28.3145 374.676 27.8668 374.97C27.2152 375.405 26.4601 375.635 25.6849 375.635C25.4243 375.635 25.1569 375.608 24.8997 375.555C23.8638 375.348 22.9717 374.75 22.387 373.868C21.0471 371.856 21.4547 369.049 22.0328 367.048C22.0395 367.021 22.0662 367.004 22.0929 367.004H30.1021C30.2726 367.004 30.4129 366.864 30.4129 366.694V355.58H19.3029V355.584ZM19.6738 363.733C19.6738 363.733 19.6471 363.73 19.637 363.723C19.6203 363.71 19.6103 363.693 19.6103 363.673V356.269C19.6103 356.235 19.637 356.205 19.6738 356.205H29.7313C29.7647 356.205 29.7947 356.232 29.7947 356.269V366.326C29.7947 366.36 29.768 366.39 29.7313 366.39H22.3268C22.3068 366.39 22.2867 366.38 22.2767 366.363C22.2667 366.346 22.2633 366.326 22.27 366.306C22.3836 365.965 22.5139 365.614 22.6509 365.267C22.6576 365.254 22.6777 365.233 22.6944 365.227C22.7044 365.227 22.7178 365.22 22.7311 365.22C22.7378 365.22 22.7445 365.22 22.7478 365.223C22.798 365.254 22.8514 365.267 22.9049 365.267H28.4649C28.6353 365.267 28.7756 365.127 28.7756 364.956V357.224H21.0437C20.8733 357.224 20.733 357.365 20.733 357.535V363.095C20.733 363.148 20.7464 363.202 20.7764 363.252C20.7865 363.265 20.7865 363.285 20.7831 363.299C20.7798 363.316 20.7664 363.329 20.753 363.336C20.3888 363.483 20.038 363.613 19.6972 363.727C19.6905 363.727 19.6838 363.727 19.6771 363.727L19.6738 363.733ZM21.4113 362.918C21.4113 362.918 21.3912 362.918 21.3812 362.911C21.3612 362.901 21.3478 362.878 21.3478 362.858V357.909C21.3478 357.876 21.3745 357.846 21.4113 357.846H28.0873C28.1207 357.846 28.1508 357.872 28.1508 357.909V364.585C28.1508 364.619 28.1241 364.649 28.0873 364.649H23.1388C23.1154 364.649 23.0953 364.635 23.0853 364.615C23.0753 364.595 23.0753 364.572 23.0853 364.552C23.3827 364.097 23.6734 363.713 23.9708 363.369C23.9841 363.356 24.0008 363.349 24.0175 363.349H26.9947C27.1651 363.349 27.3054 363.209 27.3054 363.038V358.688H22.9583C22.7879 358.688 22.6476 358.828 22.6476 358.999V361.976C22.6476 361.992 22.6409 362.009 22.6275 362.022C22.2867 362.32 21.8991 362.611 21.4447 362.908C21.4347 362.915 21.4213 362.918 21.4113 362.918Z" fill="url(#paint16_radial_427_8455)"/>
<path d="M43.0868 383.644H33.0895C32.919 383.644 32.7787 383.504 32.7787 383.334V382.552C32.7787 382.381 32.919 382.241 33.0895 382.241C33.2599 382.241 33.4002 382.381 33.4002 382.552V382.963C33.4002 382.996 33.4269 383.026 33.4637 383.026H40.2232C40.2533 383.026 40.28 383.003 40.2834 382.973C40.2867 382.943 40.2667 382.913 40.2366 382.906L30.5534 380.346C30.5534 380.346 30.5433 380.346 30.5367 380.346C30.5166 380.346 30.4999 380.356 30.4865 380.373C30.4698 380.393 30.4698 380.42 30.4865 380.443C31.666 382.345 31.1548 383.922 30.7438 384.694C30.7338 384.714 30.7338 384.737 30.7438 384.754C30.7539 384.774 30.7739 384.784 30.7973 384.784H51.6106V385.395H30.1056C29.982 385.395 29.8717 385.322 29.8216 385.211C29.7715 385.098 29.7915 384.968 29.8751 384.877C29.9519 384.79 31.7529 382.742 29.3739 379.976C29.2837 379.872 29.2736 379.725 29.3471 379.608C29.4039 379.518 29.5042 379.461 29.6111 379.461C29.6378 379.461 29.6646 379.464 29.6913 379.471L43.167 383.036C43.3173 383.076 43.4142 383.223 43.3942 383.377C43.3741 383.531 43.2405 383.648 43.0868 383.648V383.644Z" fill="url(#paint17_radial_427_8455)"/>
<path d="M44.6471 382.679C44.2161 382.679 43.8652 383.03 43.8652 383.461C43.8652 383.892 44.2161 384.242 44.6471 384.242C45.0781 384.242 45.429 383.892 45.429 383.461C45.429 383.03 45.0781 382.679 44.6471 382.679ZM44.6471 383.618C44.5602 383.618 44.4867 383.547 44.4867 383.457C44.4867 383.367 44.5569 383.297 44.6471 383.297C44.7373 383.297 44.8075 383.367 44.8075 383.457C44.8075 383.547 44.7373 383.618 44.6471 383.618Z" fill="url(#paint18_radial_427_8455)"/>
<path d="M20.1717 365.828C15.691 367.265 10.8694 368.124 7.25074 368.124C5.30941 368.124 3.7657 367.883 2.6664 367.405C2.6263 367.389 2.58621 367.379 2.54277 367.379C2.45924 367.379 2.38238 367.412 2.32224 367.469L0.0868752 369.704C0.0233895 369.768 0.00334135 369.848 0 369.901V369.948C0.00334135 369.998 0.0233895 370.078 0.0868752 370.142L2.07498 372.13C2.13178 372.187 2.21198 372.22 2.29551 372.22H2.3189C2.67642 372.19 11.13 371.485 17.4051 368.511C17.4151 368.508 17.4218 368.505 17.4318 368.505C17.4485 368.505 17.4653 368.511 17.4753 368.521C17.4953 368.541 17.4987 368.568 17.4886 368.592C14.5148 374.87 13.8098 383.324 13.7797 383.678C13.7731 383.768 13.8065 383.858 13.87 383.922L15.8547 385.913C15.9182 385.977 15.9984 385.997 16.0519 386H16.0986C16.1488 385.997 16.2289 385.977 16.2924 385.913L18.5278 383.678C18.618 383.588 18.6447 383.454 18.5946 383.334C16.9975 379.648 18.2872 371.702 20.1684 365.828H20.1717ZM7.23737 368.729C10.5253 368.729 14.7821 368.047 18.9154 366.857C18.9221 366.857 18.9254 366.857 18.9321 366.857C18.9555 366.857 18.9789 366.871 18.9889 366.894C19.0023 366.924 18.9889 366.958 18.9655 366.971C13.1382 370.486 3.5151 371.482 2.43919 371.585C2.43919 371.585 2.43585 371.585 2.4325 371.585C2.4158 371.585 2.39909 371.579 2.38907 371.569L0.788559 369.968C0.76517 369.945 0.76517 369.905 0.788559 369.881L2.58621 368.084C2.58621 368.084 2.61294 368.067 2.62964 368.067C2.63633 368.067 2.64301 368.067 2.65303 368.07C3.79244 368.508 5.33614 368.732 7.24071 368.732L7.23737 368.729ZM16.0752 385.228C16.0752 385.228 16.0418 385.221 16.0318 385.211L14.4313 383.611C14.4313 383.611 14.4113 383.581 14.4146 383.561C14.5182 382.482 15.5139 372.862 19.029 367.034C19.039 367.014 19.0624 367.004 19.0825 367.004C19.0891 367.004 19.0992 367.004 19.1059 367.011C19.1359 367.024 19.1493 367.055 19.1393 367.085C17.6657 372.207 16.4628 379.541 17.9297 383.35C17.9397 383.374 17.9297 383.4 17.9163 383.417L16.1187 385.215C16.1187 385.215 16.092 385.231 16.0752 385.231V385.228Z" fill="url(#paint19_radial_427_8455)"/>
<path d="M15.4303 370.57C11.1834 372.471 7.45445 373.473 4.63435 373.473C3.7656 373.473 2.9737 373.38 2.28538 373.189C2.25865 373.183 2.23192 373.179 2.20519 373.179C2.10829 373.179 2.01473 373.226 1.95793 373.303L0.0633828 375.836C0.0132625 375.902 -0.00678562 375.983 0.00323844 376.066C0.0166038 376.15 0.0567001 376.22 0.123527 376.27L2.3756 377.951C2.42906 377.991 2.49589 378.011 2.56271 378.011C2.5861 378.011 2.60615 378.011 2.62954 378.004C2.78993 377.967 6.60575 377.109 10.7089 375.204C10.719 375.201 10.7256 375.197 10.7357 375.197C10.7524 375.197 10.7691 375.204 10.7791 375.214C10.7991 375.234 10.8025 375.261 10.7925 375.284C8.8879 379.387 8.02917 383.203 7.99241 383.367C7.97236 383.454 7.99241 383.547 8.04587 383.621L9.72992 385.873C9.78004 385.94 9.85355 385.983 9.93374 385.993C9.95045 385.993 9.96381 385.997 9.98052 385.997C10.0473 385.997 10.1108 385.977 10.1643 385.933L12.697 384.042C12.8006 383.965 12.8441 383.835 12.8106 383.711C12.0054 380.744 12.9109 376.2 15.4303 370.566V370.57ZM4.61096 374.088C7.19717 374.088 10.3948 373.32 14.1138 371.806C14.1205 371.806 14.1305 371.803 14.1372 371.803C14.1539 371.803 14.1706 371.809 14.1806 371.819C14.1973 371.836 14.204 371.863 14.194 371.886C12.1992 376.785 11.4942 380.844 12.1491 383.631C12.1557 383.654 12.1457 383.681 12.1257 383.694L10.0908 385.215C10.0908 385.215 10.0674 385.228 10.054 385.228C10.054 385.228 10.0473 385.228 10.044 385.228C10.0273 385.228 10.0139 385.218 10.0039 385.205L8.64732 383.39C8.64732 383.39 8.63395 383.357 8.63729 383.34C8.8478 382.468 10.0006 377.964 12.3028 373.697C8.03585 375.996 3.53171 377.152 2.65961 377.363C2.65627 377.363 2.64959 377.363 2.64625 377.363C2.63288 377.363 2.61952 377.359 2.60949 377.349L0.795139 375.993C0.795139 375.993 0.771749 375.969 0.771749 375.953C0.771749 375.936 0.771749 375.919 0.785115 375.906L2.30543 373.871C2.30543 373.871 2.3355 373.848 2.35555 373.848C2.35889 373.848 2.36557 373.848 2.36892 373.848C3.03719 374.005 3.79233 374.085 4.61096 374.085V374.088Z" fill="url(#paint20_radial_427_8455)"/>
<path d="M7.20727 378.151C5.89078 378.151 4.20674 378.312 2.8869 379.558C1.66063 380.714 0.945579 382.595 0.70166 385.298C3.40816 385.051 5.286 384.336 6.4421 383.113C7.76862 381.706 7.89559 379.829 7.83545 378.165C7.62828 378.158 7.41778 378.151 7.20727 378.151ZM1.47351 384.59C1.47351 384.59 1.4401 384.583 1.43008 384.573C1.41671 384.56 1.41003 384.54 1.41337 384.52C1.70407 382.421 2.32556 380.945 3.3146 380.012C4.47071 378.92 5.981 378.776 7.16718 378.776C7.16718 378.776 7.20059 378.783 7.21062 378.793C7.22064 378.803 7.22732 378.819 7.22732 378.836C7.22732 380.022 7.0803 381.529 5.99102 382.689C5.05878 383.678 3.58525 384.299 1.48354 384.59C1.48354 384.59 1.47685 384.59 1.47351 384.59Z" fill="url(#paint21_radial_427_8455)"/>
<path d="M1.22296 336V355.203C1.22296 355.226 1.23299 355.246 1.25304 355.256C1.26306 355.263 1.27308 355.266 1.28645 355.266C1.29647 355.266 1.3065 355.266 1.31652 355.26C1.72417 355.042 2.37573 354.785 3.18768 354.785C3.99963 354.785 4.78485 355.032 5.56672 355.517C5.57675 355.524 5.58677 355.527 5.60014 355.527C5.6135 355.527 5.62687 355.524 5.63689 355.513C5.65694 355.5 5.66696 355.473 5.66028 355.447L3.1008 345.763C3.09412 345.737 3.06739 345.717 3.04066 345.717H3.03398C3.0039 345.72 2.98051 345.747 2.98051 345.777V352.536C2.98051 352.57 3.00725 352.6 3.044 352.6H3.45499C3.6254 352.6 3.76573 352.74 3.76573 352.911C3.76573 353.081 3.6254 353.221 3.45499 353.221H2.67311C2.5027 353.221 2.36236 353.081 2.36236 352.911V342.913C2.36236 342.756 2.47931 342.626 2.63301 342.606C2.64638 342.606 2.65974 342.606 2.67311 342.606C2.81345 342.606 2.93708 342.699 2.97383 342.836L6.53906 356.312C6.54574 356.339 6.54908 356.366 6.54908 356.392C6.54908 356.499 6.49562 356.599 6.40206 356.656C6.35194 356.686 6.29514 356.703 6.23833 356.703C6.16482 356.703 6.09131 356.676 6.03451 356.629C5.08891 355.814 4.12326 355.403 3.16763 355.403C1.9447 355.403 1.16282 356.098 1.12941 356.128C1.0726 356.182 0.999093 356.208 0.9189 356.208C0.875463 356.208 0.832025 356.198 0.791929 356.182C0.678323 356.132 0.608154 356.021 0.608154 355.898V336.007H1.22965L1.22296 336Z" fill="url(#paint22_radial_427_8455)"/>
<path d="M2.53944 340.574C2.10841 340.574 1.75757 340.925 1.75757 341.356C1.75757 341.787 2.10841 342.138 2.53944 342.138C2.97048 342.138 3.32132 341.787 3.32132 341.356C3.32132 340.925 2.97048 340.574 2.53944 340.574ZM2.53944 341.513C2.45257 341.513 2.37906 341.443 2.37906 341.353C2.37906 341.263 2.44923 341.192 2.53944 341.192C2.62966 341.192 2.69983 341.263 2.69983 341.353C2.69983 341.443 2.62966 341.513 2.53944 341.513Z" fill="url(#paint23_radial_427_8455)"/>
</g>
<g clip-path="url(#clip3_427_8455)">
<path d="M362.759 355.584C362.929 355.584 363.069 355.724 363.069 355.894V363.904C363.069 363.93 363.086 363.957 363.113 363.964C364.366 364.325 365.532 364.508 366.574 364.508C367.908 364.508 369.037 364.204 369.932 363.61C370.811 363.025 371.409 362.133 371.62 361.097C371.827 360.061 371.62 359.009 371.035 358.126C370.738 357.682 370.287 357.378 369.762 357.271C369.632 357.244 369.498 357.231 369.364 357.231C368.97 357.231 368.589 357.348 368.258 357.568C368.048 357.709 367.904 357.923 367.854 358.17C367.804 358.417 367.854 358.671 367.994 358.882C368.065 358.985 368.178 359.045 368.305 359.045C368.379 359.045 368.449 359.025 368.509 358.982C368.559 358.948 368.619 358.928 368.679 358.928C368.783 358.928 368.88 358.978 368.937 359.065C369.03 359.209 368.993 359.399 368.85 359.496C368.686 359.603 368.499 359.663 368.302 359.663C367.968 359.663 367.657 359.5 367.473 359.222C367.239 358.875 367.159 358.457 367.243 358.046C367.326 357.635 367.563 357.281 367.911 357.051C368.345 356.763 368.846 356.609 369.361 356.609C369.535 356.609 369.712 356.626 369.882 356.663C370.571 356.8 371.162 357.198 371.55 357.782C372.228 358.798 372.468 360.021 372.228 361.217C371.987 362.417 371.296 363.449 370.277 364.124C369.267 364.796 368.018 365.137 366.564 365.137C366.411 365.137 366.254 365.133 366.1 365.127C366.07 365.127 366.043 365.15 366.04 365.18C366.036 365.21 366.053 365.24 366.086 365.25C366.815 365.447 367.537 365.608 368.232 365.725C369.451 365.932 370.841 366.049 372.148 366.049C374.57 366.049 378.901 365.641 380.688 362.918C381.266 362.036 381.47 360.98 381.253 359.944C381.039 358.908 380.434 358.02 379.552 357.441C379.225 357.228 378.847 357.114 378.456 357.114C377.778 357.114 377.15 357.451 376.779 358.02C376.642 358.23 376.592 358.484 376.645 358.731C376.695 358.978 376.842 359.192 377.053 359.329C377.113 359.369 377.183 359.389 377.257 359.389C377.384 359.389 377.501 359.326 377.567 359.222C377.624 359.136 377.721 359.082 377.828 359.082C377.888 359.082 377.948 359.099 377.998 359.132C378.142 359.226 378.182 359.42 378.089 359.563C377.942 359.784 377.721 359.937 377.46 359.991C377.394 360.004 377.323 360.011 377.257 360.011C377.063 360.011 376.876 359.954 376.715 359.847C375.994 359.373 375.79 358.4 376.264 357.679C376.752 356.937 377.574 356.496 378.463 356.496C378.974 356.496 379.472 356.643 379.9 356.927C380.922 357.598 381.62 358.624 381.871 359.824C382.118 361.02 381.888 362.243 381.216 363.265C379.258 366.249 374.734 366.694 372.211 366.694C370.881 366.694 369.471 366.573 368.135 366.346C366.31 366.035 364.392 365.464 362.735 364.742C362.665 364.729 362.618 364.706 362.575 364.672C362.043 364.432 361.549 364.184 361.091 363.924L361.014 363.894C360.981 363.88 360.951 363.86 360.921 363.83C360.139 363.372 359.464 362.888 358.906 362.383C358.842 362.323 358.802 362.24 358.802 362.153V359.379C358.802 359.346 358.776 359.316 358.739 359.316H355.444C355.411 359.316 355.381 359.343 355.381 359.379V362.674C355.381 362.707 355.408 362.737 355.444 362.737H358.218C358.304 362.737 358.388 362.774 358.448 362.841C358.953 363.399 359.437 364.074 359.888 364.843C359.928 364.886 359.948 364.916 359.958 364.946L359.985 365.016C360.249 365.484 360.496 365.979 360.727 366.493C360.77 366.55 360.794 366.6 360.8 366.654C361.529 368.328 362.097 370.246 362.408 372.067C363.19 376.654 362.852 382.836 359.327 385.148C358.578 385.639 357.713 385.9 356.824 385.9C356.51 385.9 356.196 385.866 355.885 385.803C354.689 385.556 353.66 384.854 352.988 383.831C352.193 382.622 352.534 380.991 353.744 380.196C354.001 380.029 354.295 379.939 354.602 379.939C355.134 379.939 355.625 380.203 355.915 380.647C356.062 380.868 356.113 381.135 356.056 381.392C356.002 381.653 355.849 381.873 355.628 382.02C355.578 382.054 355.518 382.071 355.458 382.071C355.354 382.071 355.254 382.017 355.197 381.93C355.103 381.787 355.144 381.593 355.287 381.499C355.458 381.386 355.508 381.155 355.394 380.985C355.217 380.717 354.923 380.557 354.602 380.557C354.418 380.557 354.238 380.61 354.084 380.711C353.159 381.315 352.902 382.562 353.51 383.487C354.088 384.369 354.976 384.974 356.012 385.188C356.28 385.245 356.554 385.272 356.824 385.272C357.589 385.272 358.338 385.048 358.986 384.623C362.488 382.325 362.401 375.712 361.796 372.167C361.679 371.472 361.519 370.75 361.322 370.022C361.315 369.995 361.288 369.975 361.262 369.975C361.262 369.975 361.255 369.975 361.252 369.975C361.221 369.978 361.198 370.008 361.198 370.038C361.275 371.692 360.937 373.096 360.196 374.215C359.517 375.231 358.485 375.926 357.289 376.166C356.988 376.227 356.681 376.257 356.38 376.257C355.481 376.257 354.609 375.989 353.854 375.488C353.269 375.1 352.871 374.506 352.734 373.821C352.597 373.132 352.734 372.434 353.122 371.849C353.353 371.502 353.707 371.265 354.118 371.181C354.221 371.161 354.325 371.151 354.429 371.151C354.736 371.151 355.033 371.241 355.294 371.415C355.748 371.719 355.872 372.334 355.571 372.792C355.514 372.878 355.418 372.929 355.311 372.929C355.25 372.929 355.19 372.912 355.14 372.875C354.997 372.782 354.96 372.588 355.053 372.444C355.107 372.361 355.127 372.264 355.107 372.167C355.087 372.07 355.03 371.986 354.95 371.93C354.793 371.826 354.612 371.773 354.425 371.773C354.108 371.773 353.814 371.93 353.637 372.194C353.339 372.638 353.236 373.173 353.339 373.697C353.446 374.222 353.747 374.676 354.195 374.97C354.846 375.405 355.601 375.635 356.377 375.635C356.637 375.635 356.904 375.608 357.162 375.555C358.198 375.348 359.09 374.75 359.674 373.868C361.014 371.856 360.607 369.049 360.029 367.048C360.022 367.021 359.995 367.004 359.968 367.004H351.959C351.789 367.004 351.649 366.864 351.649 366.694V355.58H362.759V355.584ZM362.388 363.733C362.388 363.733 362.414 363.73 362.424 363.723C362.441 363.71 362.451 363.693 362.451 363.673V356.269C362.451 356.235 362.424 356.205 362.388 356.205H352.33C352.297 356.205 352.267 356.232 352.267 356.269V366.326C352.267 366.36 352.293 366.39 352.33 366.39H359.735C359.755 366.39 359.775 366.38 359.785 366.363C359.795 366.346 359.798 366.326 359.791 366.306C359.678 365.965 359.547 365.614 359.41 365.267C359.404 365.254 359.384 365.233 359.367 365.227C359.357 365.227 359.344 365.22 359.33 365.22C359.324 365.22 359.317 365.22 359.314 365.223C359.263 365.254 359.21 365.267 359.157 365.267H353.597C353.426 365.267 353.286 365.127 353.286 364.956V357.224H361.018C361.188 357.224 361.328 357.365 361.328 357.535V363.095C361.328 363.148 361.315 363.202 361.285 363.252C361.275 363.265 361.275 363.285 361.278 363.299C361.282 363.316 361.295 363.329 361.308 363.336C361.673 363.483 362.023 363.613 362.364 363.727C362.371 363.727 362.378 363.727 362.384 363.727L362.388 363.733ZM360.65 362.918C360.65 362.918 360.67 362.918 360.68 362.911C360.7 362.901 360.714 362.878 360.714 362.858V357.909C360.714 357.876 360.687 357.846 360.65 357.846H353.974C353.941 357.846 353.911 357.872 353.911 357.909V364.585C353.911 364.619 353.937 364.649 353.974 364.649H358.923C358.946 364.649 358.966 364.635 358.976 364.615C358.986 364.595 358.986 364.572 358.976 364.552C358.679 364.097 358.388 363.713 358.091 363.369C358.077 363.356 358.061 363.349 358.044 363.349H355.067C354.896 363.349 354.756 363.209 354.756 363.038V358.688H359.103C359.273 358.688 359.414 358.828 359.414 358.999V361.976C359.414 361.992 359.42 362.009 359.434 362.022C359.775 362.32 360.162 362.611 360.617 362.908C360.627 362.915 360.64 362.918 360.65 362.918Z" fill="url(#paint24_radial_427_8455)"/>
<path d="M338.975 383.644H348.972C349.142 383.644 349.283 383.504 349.283 383.334V382.552C349.283 382.381 349.142 382.241 348.972 382.241C348.802 382.241 348.661 382.381 348.661 382.552V382.963C348.661 382.996 348.635 383.026 348.598 383.026H341.838C341.808 383.026 341.781 383.003 341.778 382.973C341.775 382.943 341.795 382.913 341.825 382.906L351.508 380.346C351.508 380.346 351.518 380.346 351.525 380.346C351.545 380.346 351.562 380.356 351.575 380.373C351.592 380.393 351.592 380.42 351.575 380.443C350.395 382.345 350.907 383.922 351.318 384.694C351.328 384.714 351.328 384.737 351.318 384.754C351.308 384.774 351.288 384.784 351.264 384.784H330.451V385.395H351.956C352.08 385.395 352.19 385.322 352.24 385.211C352.29 385.098 352.27 384.968 352.186 384.877C352.11 384.79 350.309 382.742 352.688 379.976C352.778 379.872 352.788 379.725 352.714 379.608C352.658 379.518 352.557 379.461 352.45 379.461C352.424 379.461 352.397 379.464 352.37 379.471L338.895 383.036C338.744 383.076 338.647 383.223 338.667 383.377C338.687 383.531 338.821 383.648 338.975 383.648V383.644Z" fill="url(#paint25_radial_427_8455)"/>
<path d="M337.414 382.679C337.845 382.679 338.196 383.03 338.196 383.461C338.196 383.892 337.845 384.242 337.414 384.242C336.983 384.242 336.633 383.892 336.633 383.461C336.633 383.03 336.983 382.679 337.414 382.679ZM337.414 383.618C337.501 383.618 337.575 383.547 337.575 383.457C337.575 383.367 337.505 383.297 337.414 383.297C337.324 383.297 337.254 383.367 337.254 383.457C337.254 383.547 337.324 383.618 337.414 383.618Z" fill="url(#paint26_radial_427_8455)"/>
<path d="M361.89 365.828C366.371 367.265 371.192 368.124 374.811 368.124C376.752 368.124 378.296 367.883 379.395 367.405C379.435 367.389 379.475 367.379 379.519 367.379C379.602 367.379 379.679 367.412 379.739 367.469L381.975 369.704C382.038 369.768 382.058 369.848 382.062 369.901V369.948C382.058 369.998 382.038 370.078 381.975 370.142L379.987 372.13C379.93 372.187 379.85 372.22 379.766 372.22H379.743C379.385 372.19 370.931 371.485 364.656 368.511C364.646 368.508 364.64 368.505 364.63 368.505C364.613 368.505 364.596 368.511 364.586 368.521C364.566 368.541 364.563 368.568 364.573 368.592C367.547 374.87 368.252 383.324 368.282 383.678C368.288 383.768 368.255 383.858 368.192 383.922L366.207 385.913C366.143 385.977 366.063 385.997 366.01 386H365.963C365.913 385.997 365.833 385.977 365.769 385.913L363.534 383.678C363.444 383.588 363.417 383.454 363.467 383.334C365.064 379.648 363.774 371.702 361.893 365.828H361.89ZM374.824 368.729C371.536 368.729 367.279 368.047 363.146 366.857C363.139 366.857 363.136 366.857 363.129 366.857C363.106 366.857 363.083 366.871 363.073 366.894C363.059 366.924 363.073 366.958 363.096 366.971C368.923 370.486 378.546 371.482 379.622 371.585C379.622 371.585 379.626 371.585 379.629 371.585C379.646 371.585 379.662 371.579 379.672 371.569L381.273 369.968C381.296 369.945 381.296 369.905 381.273 369.881L379.475 368.084C379.475 368.084 379.449 368.067 379.432 368.067C379.425 368.067 379.419 368.067 379.408 368.07C378.269 368.508 376.725 368.732 374.821 368.732L374.824 368.729ZM365.986 385.228C365.986 385.228 366.02 385.221 366.03 385.211L367.63 383.611C367.63 383.611 367.65 383.581 367.647 383.561C367.543 382.482 366.548 372.862 363.033 367.034C363.022 367.014 362.999 367.004 362.979 367.004C362.972 367.004 362.962 367.004 362.956 367.011C362.926 367.024 362.912 367.055 362.922 367.085C364.396 372.207 365.599 379.541 364.132 383.35C364.122 383.374 364.132 383.4 364.145 383.417L365.943 385.215C365.943 385.215 365.97 385.231 365.986 385.231V385.228Z" fill="url(#paint27_radial_427_8455)"/>
<path d="M366.631 370.57C370.878 372.471 374.607 373.473 377.427 373.473C378.296 373.473 379.088 373.38 379.776 373.189C379.803 373.183 379.829 373.179 379.856 373.179C379.953 373.179 380.047 373.226 380.103 373.303L381.998 375.836C382.048 375.902 382.068 375.983 382.058 376.066C382.045 376.15 382.005 376.22 381.938 376.27L379.686 377.951C379.632 377.991 379.566 378.011 379.499 378.011C379.475 378.011 379.455 378.011 379.432 378.004C379.271 377.967 375.456 377.109 371.352 375.204C371.342 375.201 371.336 375.197 371.326 375.197C371.309 375.197 371.292 375.204 371.282 375.214C371.262 375.234 371.259 375.261 371.269 375.284C373.174 379.387 374.032 383.203 374.069 383.367C374.089 383.454 374.069 383.547 374.016 383.621L372.331 385.873C372.281 385.94 372.208 385.983 372.128 385.993C372.111 385.993 372.098 385.997 372.081 385.997C372.014 385.997 371.951 385.977 371.897 385.933L369.364 384.042C369.261 383.965 369.217 383.835 369.251 383.711C370.056 380.744 369.151 376.2 366.631 370.566V370.57ZM377.45 374.088C374.864 374.088 371.667 373.32 367.948 371.806C367.941 371.806 367.931 371.803 367.924 371.803C367.908 371.803 367.891 371.809 367.881 371.819C367.864 371.836 367.857 371.863 367.867 371.886C369.862 376.785 370.567 380.844 369.912 383.631C369.906 383.654 369.916 383.681 369.936 383.694L371.971 385.215C371.971 385.215 371.994 385.228 372.007 385.228C372.007 385.228 372.014 385.228 372.017 385.228C372.034 385.228 372.047 385.218 372.057 385.205L373.414 383.39C373.414 383.39 373.427 383.357 373.424 383.34C373.214 382.468 372.061 377.964 369.759 373.697C374.026 375.996 378.53 377.152 379.402 377.363C379.405 377.363 379.412 377.363 379.415 377.363C379.429 377.363 379.442 377.359 379.452 377.349L381.266 375.993C381.266 375.993 381.29 375.969 381.29 375.953C381.29 375.936 381.29 375.919 381.276 375.906L379.756 373.871C379.756 373.871 379.726 373.848 379.706 373.848C379.703 373.848 379.696 373.848 379.692 373.848C379.024 374.005 378.269 374.085 377.45 374.085V374.088Z" fill="url(#paint28_radial_427_8455)"/>
<path d="M374.854 378.151C376.171 378.151 377.855 378.312 379.175 379.558C380.401 380.714 381.116 382.595 381.36 385.298C378.653 385.051 376.776 384.336 375.619 383.113C374.293 381.706 374.166 379.829 374.226 378.165C374.433 378.158 374.644 378.151 374.854 378.151ZM380.588 384.59C380.588 384.59 380.621 384.583 380.631 384.573C380.645 384.56 380.651 384.54 380.648 384.52C380.357 382.421 379.736 380.945 378.747 380.012C377.591 378.92 376.081 378.776 374.894 378.776C374.894 378.776 374.861 378.783 374.851 378.793C374.841 378.803 374.834 378.819 374.834 378.836C374.834 380.022 374.981 381.529 376.071 382.689C377.003 383.678 378.476 384.299 380.578 384.59C380.578 384.59 380.585 384.59 380.588 384.59Z" fill="url(#paint29_radial_427_8455)"/>
<path d="M380.839 336V355.203C380.839 355.226 380.829 355.246 380.808 355.256C380.798 355.263 380.788 355.266 380.775 355.266C380.765 355.266 380.755 355.266 380.745 355.26C380.337 355.042 379.686 354.785 378.874 354.785C378.062 354.785 377.277 355.032 376.495 355.517C376.485 355.524 376.475 355.527 376.461 355.527C376.448 355.527 376.435 355.524 376.425 355.513C376.405 355.5 376.395 355.473 376.401 355.447L378.961 345.763C378.967 345.737 378.994 345.717 379.021 345.717H379.028C379.058 345.72 379.081 345.747 379.081 345.777V352.536C379.081 352.57 379.054 352.6 379.018 352.6H378.607C378.436 352.6 378.296 352.74 378.296 352.911C378.296 353.081 378.436 353.221 378.607 353.221H379.388C379.559 353.221 379.699 353.081 379.699 352.911V342.913C379.699 342.756 379.582 342.626 379.429 342.606C379.415 342.606 379.402 342.606 379.388 342.606C379.248 342.606 379.124 342.699 379.088 342.836L375.522 356.312C375.516 356.339 375.512 356.366 375.512 356.392C375.512 356.499 375.566 356.599 375.659 356.656C375.71 356.686 375.766 356.703 375.823 356.703C375.897 356.703 375.97 356.676 376.027 356.629C376.973 355.814 377.938 355.403 378.894 355.403C380.117 355.403 380.899 356.098 380.932 356.128C380.989 356.182 381.062 356.208 381.143 356.208C381.186 356.208 381.229 356.198 381.27 356.182C381.383 356.132 381.453 356.021 381.453 355.898V336.007H380.832L380.839 336Z" fill="url(#paint30_radial_427_8455)"/>
<path d="M379.522 340.574C379.953 340.574 380.304 340.925 380.304 341.356C380.304 341.787 379.953 342.138 379.522 342.138C379.091 342.138 378.74 341.787 378.74 341.356C378.74 340.925 379.091 340.574 379.522 340.574ZM379.522 341.513C379.609 341.513 379.682 341.443 379.682 341.353C379.682 341.263 379.612 341.192 379.522 341.192C379.432 341.192 379.362 341.263 379.362 341.353C379.362 341.443 379.432 341.513 379.522 341.513Z" fill="url(#paint31_radial_427_8455)"/>
</g>
<defs>
<radialGradient id="paint0_radial_427_8455" cx="0" cy="0" r="1" gradientUnits="userSpaceOnUse" gradientTransform="translate(15.2533 15.2599) rotate(90) scale(15.1597 15.1596)">
<stop offset="0.83125" stop-color="white"/>
<stop offset="1" stop-color="#FFB74C"/>
</radialGradient>
<radialGradient id="paint1_radial_427_8455" cx="0" cy="0" r="1" gradientUnits="userSpaceOnUse" gradientTransform="translate(40.4545 3.57192) rotate(90) scale(2.96712 11.1561)">
<stop offset="0.83125" stop-color="white"/>
<stop offset="1" stop-color="#FFB74C"/>
</radialGradient>
<radialGradient id="paint2_radial_427_8455" cx="0" cy="0" r="1" gradientUnits="userSpaceOnUse" gradientTransform="translate(44.6471 2.53944) rotate(90) scale(0.781876 0.781878)">
<stop offset="0.83125" stop-color="white"/>
<stop offset="1" stop-color="#FFB74C"/>
</radialGradient>
<radialGradient id="paint3_radial_427_8455" cx="0" cy="0" r="1" gradientUnits="userSpaceOnUse" gradientTransform="translate(10.0859 10.0859) rotate(90) scale(10.0859)">
<stop offset="0.83125" stop-color="white"/>
<stop offset="1" stop-color="#FFB74C"/>
</radialGradient>
<radialGradient id="paint4_radial_427_8455" cx="0" cy="0" r="1" gradientUnits="userSpaceOnUse" gradientTransform="translate(7.7155 7.71854) rotate(90) scale(7.71518 7.71477)">
<stop offset="0.83125" stop-color="white"/>
<stop offset="1" stop-color="#FFB74C"/>
</radialGradient>
<radialGradient id="paint5_radial_427_8455" cx="0" cy="0" r="1" gradientUnits="userSpaceOnUse" gradientTransform="translate(4.27446 4.27524) rotate(90) scale(3.57358 3.5728)">
<stop offset="0.83125" stop-color="white"/>
<stop offset="1" stop-color="#FFB74C"/>
</radialGradient>
<radialGradient id="paint6_radial_427_8455" cx="0" cy="0" r="1" gradientUnits="userSpaceOnUse" gradientTransform="translate(3.57862 39.6485) rotate(90) scale(10.3515 2.97046)">
<stop offset="0.83125" stop-color="white"/>
<stop offset="1" stop-color="#FFB74C"/>
</radialGradient>
<radialGradient id="paint7_radial_427_8455" cx="0" cy="0" r="1" gradientUnits="userSpaceOnUse" gradientTransform="translate(2.53944 44.6438) rotate(90) scale(0.781875 0.781876)">
<stop offset="0.83125" stop-color="white"/>
<stop offset="1" stop-color="#FFB74C"/>
</radialGradient>
<radialGradient id="paint8_radial_427_8455" cx="0" cy="0" r="1" gradientUnits="userSpaceOnUse" gradientTransform="translate(366.808 15.2599) rotate(90) scale(15.1597 15.1596)">
<stop offset="0.83125" stop-color="white"/>
<stop offset="1" stop-color="#FFB74C"/>
</radialGradient>
<radialGradient id="paint9_radial_427_8455" cx="0" cy="0" r="1" gradientUnits="userSpaceOnUse" gradientTransform="translate(341.607 3.57192) rotate(90) scale(2.96712 11.1561)">
<stop offset="0.83125" stop-color="white"/>
<stop offset="1" stop-color="#FFB74C"/>
</radialGradient>
<radialGradient id="paint10_radial_427_8455" cx="0" cy="0" r="1" gradientUnits="userSpaceOnUse" gradientTransform="translate(337.414 2.53944) rotate(90) scale(0.781876 0.781878)">
<stop offset="0.83125" stop-color="white"/>
<stop offset="1" stop-color="#FFB74C"/>
</radialGradient>
<radialGradient id="paint11_radial_427_8455" cx="0" cy="0" r="1" gradientUnits="userSpaceOnUse" gradientTransform="translate(371.976 10.0859) rotate(90) scale(10.0859)">
<stop offset="0.83125" stop-color="white"/>
<stop offset="1" stop-color="#FFB74C"/>
</radialGradient>
<radialGradient id="paint12_radial_427_8455" cx="0" cy="0" r="1" gradientUnits="userSpaceOnUse" gradientTransform="translate(374.346 7.71854) rotate(90) scale(7.71518 7.71477)">
<stop offset="0.83125" stop-color="white"/>
<stop offset="1" stop-color="#FFB74C"/>
</radialGradient>
<radialGradient id="paint13_radial_427_8455" cx="0" cy="0" r="1" gradientUnits="userSpaceOnUse" gradientTransform="translate(377.787 4.27524) rotate(90) scale(3.57358 3.5728)">
<stop offset="0.83125" stop-color="white"/>
<stop offset="1" stop-color="#FFB74C"/>
</radialGradient>
<radialGradient id="paint14_radial_427_8455" cx="0" cy="0" r="1" gradientUnits="userSpaceOnUse" gradientTransform="translate(378.483 39.6485) rotate(90) scale(10.3515 2.97046)">
<stop offset="0.83125" stop-color="white"/>
<stop offset="1" stop-color="#FFB74C"/>
</radialGradient>
<radialGradient id="paint15_radial_427_8455" cx="0" cy="0" r="1" gradientUnits="userSpaceOnUse" gradientTransform="translate(379.522 44.6438) rotate(90) scale(0.781875 0.781876)">
<stop offset="0.83125" stop-color="white"/>
<stop offset="1" stop-color="#FFB74C"/>
</radialGradient>
<radialGradient id="paint16_radial_427_8455" cx="0" cy="0" r="1" gradientUnits="userSpaceOnUse" gradientTransform="translate(15.2533 370.74) rotate(-90) scale(15.1597 15.1596)">
<stop offset="0.83125" stop-color="white"/>
<stop offset="1" stop-color="#FFB74C"/>
</radialGradient>
<radialGradient id="paint17_radial_427_8455" cx="0" cy="0" r="1" gradientUnits="userSpaceOnUse" gradientTransform="translate(40.4545 382.428) rotate(-90) scale(2.96712 11.1561)">
<stop offset="0.83125" stop-color="white"/>
<stop offset="1" stop-color="#FFB74C"/>
</radialGradient>
<radialGradient id="paint18_radial_427_8455" cx="0" cy="0" r="1" gradientUnits="userSpaceOnUse" gradientTransform="translate(44.6471 383.461) rotate(-90) scale(0.781876 0.781878)">
<stop offset="0.83125" stop-color="white"/>
<stop offset="1" stop-color="#FFB74C"/>
</radialGradient>
<radialGradient id="paint19_radial_427_8455" cx="0" cy="0" r="1" gradientUnits="userSpaceOnUse" gradientTransform="translate(10.0859 375.914) rotate(-90) scale(10.0859)">
<stop offset="0.83125" stop-color="white"/>
<stop offset="1" stop-color="#FFB74C"/>
</radialGradient>
<radialGradient id="paint20_radial_427_8455" cx="0" cy="0" r="1" gradientUnits="userSpaceOnUse" gradientTransform="translate(7.7155 378.281) rotate(-90) scale(7.71518 7.71477)">
<stop offset="0.83125" stop-color="white"/>
<stop offset="1" stop-color="#FFB74C"/>
</radialGradient>
<radialGradient id="paint21_radial_427_8455" cx="0" cy="0" r="1" gradientUnits="userSpaceOnUse" gradientTransform="translate(4.27446 381.725) rotate(-90) scale(3.57358 3.5728)">
<stop offset="0.83125" stop-color="white"/>
<stop offset="1" stop-color="#FFB74C"/>
</radialGradient>
<radialGradient id="paint22_radial_427_8455" cx="0" cy="0" r="1" gradientUnits="userSpaceOnUse" gradientTransform="translate(3.57862 346.351) rotate(-90) scale(10.3515 2.97046)">
<stop offset="0.83125" stop-color="white"/>
<stop offset="1" stop-color="#FFB74C"/>
</radialGradient>
<radialGradient id="paint23_radial_427_8455" cx="0" cy="0" r="1" gradientUnits="userSpaceOnUse" gradientTransform="translate(2.53944 341.356) rotate(-90) scale(0.781875 0.781876)">
<stop offset="0.83125" stop-color="white"/>
<stop offset="1" stop-color="#FFB74C"/>
</radialGradient>
<radialGradient id="paint24_radial_427_8455" cx="0" cy="0" r="1" gradientUnits="userSpaceOnUse" gradientTransform="translate(366.808 370.74) rotate(-90) scale(15.1597 15.1596)">
<stop offset="0.83125" stop-color="white"/>
<stop offset="1" stop-color="#FFB74C"/>
</radialGradient>
<radialGradient id="paint25_radial_427_8455" cx="0" cy="0" r="1" gradientUnits="userSpaceOnUse" gradientTransform="translate(341.607 382.428) rotate(-90) scale(2.96712 11.1561)">
<stop offset="0.83125" stop-color="white"/>
<stop offset="1" stop-color="#FFB74C"/>
</radialGradient>
<radialGradient id="paint26_radial_427_8455" cx="0" cy="0" r="1" gradientUnits="userSpaceOnUse" gradientTransform="translate(337.414 383.461) rotate(-90) scale(0.781876 0.781878)">
<stop offset="0.83125" stop-color="white"/>
<stop offset="1" stop-color="#FFB74C"/>
</radialGradient>
<radialGradient id="paint27_radial_427_8455" cx="0" cy="0" r="1" gradientUnits="userSpaceOnUse" gradientTransform="translate(371.976 375.914) rotate(-90) scale(10.0859)">
<stop offset="0.83125" stop-color="white"/>
<stop offset="1" stop-color="#FFB74C"/>
</radialGradient>
<radialGradient id="paint28_radial_427_8455" cx="0" cy="0" r="1" gradientUnits="userSpaceOnUse" gradientTransform="translate(374.346 378.281) rotate(-90) scale(7.71518 7.71477)">
<stop offset="0.83125" stop-color="white"/>
<stop offset="1" stop-color="#FFB74C"/>
</radialGradient>
<radialGradient id="paint29_radial_427_8455" cx="0" cy="0" r="1" gradientUnits="userSpaceOnUse" gradientTransform="translate(377.787 381.725) rotate(-90) scale(3.57358 3.5728)">
<stop offset="0.83125" stop-color="white"/>
<stop offset="1" stop-color="#FFB74C"/>
</radialGradient>
<radialGradient id="paint30_radial_427_8455" cx="0" cy="0" r="1" gradientUnits="userSpaceOnUse" gradientTransform="translate(378.483 346.351) rotate(-90) scale(10.3515 2.97046)">
<stop offset="0.83125" stop-color="white"/>
<stop offset="1" stop-color="#FFB74C"/>
</radialGradient>
<radialGradient id="paint31_radial_427_8455" cx="0" cy="0" r="1" gradientUnits="userSpaceOnUse" gradientTransform="translate(379.522 341.356) rotate(-90) scale(0.781875 0.781876)">
<stop offset="0.83125" stop-color="white"/>
<stop offset="1" stop-color="#FFB74C"/>
</radialGradient>
<clipPath id="clip0_427_8455">
<rect width="51.6105" height="50" fill="white"/>
</clipPath>
<clipPath id="clip1_427_8455">
<rect width="51.6105" height="50" fill="white" transform="matrix(-1 0 0 1 382.062 0)"/>
</clipPath>
<clipPath id="clip2_427_8455">
<rect width="51.6105" height="50" fill="white" transform="matrix(1 0 0 -1 0 386)"/>
</clipPath>
<clipPath id="clip3_427_8455">
<rect width="51.6105" height="50" fill="white" transform="matrix(-1 0 0 -1 382.062 386)"/>
</clipPath>
</defs>
</svg>
