<svg width="24" height="24" viewBox="0 0 24 24" fill="none" xmlns="http://www.w3.org/2000/svg">
<path d="M22.9508 13.8221C22.744 12.2781 22.2092 11.0513 21.3131 10.0728C19.9296 8.56249 18.1214 8.13037 16.3977 8.89938C15.1134 9.47277 14.3776 10.5781 13.8806 11.4776C13.7567 11.701 13.6475 11.9326 13.5379 12.1631C13.3722 12.5136 13.2148 12.844 13.0115 13.1467C12.4625 13.9611 12.0995 14.1286 11.7227 14.1286C11.6046 14.1286 11.4755 14.111 11.3287 14.0751C10.9957 13.9927 10.675 13.8361 10.3359 13.6703C10.3046 13.6559 10.2731 13.64 10.2425 13.6256C10.8296 13.2487 11.3302 12.7243 11.7327 12.0653C12.4573 10.8778 12.6332 9.60595 12.2405 8.38525C11.7502 6.86176 10.6364 6.0252 8.92959 5.90065C6.93033 5.755 5.12429 6.28671 3.36789 7.52639C3.05071 7.75114 2.98714 8.02208 3.17367 8.35379C3.387 8.73528 3.58687 9.1234 3.78767 9.51092L4.60253 11.0823L4.92031 10.8763C4.97751 10.8408 5.0227 10.8121 5.06596 10.7791C5.89357 10.1588 6.77651 9.69984 7.69243 9.41471C8.4286 9.18584 9.09402 9.22207 9.7333 9.52333C10.1916 9.73906 10.4246 10.0977 10.4259 10.5886C10.4271 11.0186 10.2075 11.3541 9.77418 11.5846C8.86808 12.0677 7.8986 12.1954 6.80047 11.9763C6.59728 11.9362 6.39542 11.894 6.15913 11.8454L5.67021 11.7438L5.7927 12.1308C5.93093 12.5682 5.9081 13.1252 5.88613 13.6631C5.84572 14.6211 5.80564 15.6116 6.70338 15.9654C7.16237 16.1467 7.77564 15.9981 8.32807 15.8291C8.70802 15.7128 9.05726 15.5988 9.32561 15.6542C10.1291 15.8179 10.6535 16.2108 10.8844 16.8205C11.2107 17.6807 11.0581 18.5003 10.4328 19.2578C9.92308 19.8758 9.21725 20.2368 8.20975 20.3946C6.4651 20.6648 4.99855 20.1691 3.86119 18.9187C2.8945 17.8556 2.22808 16.5184 1.82423 14.8306C1.74554 14.4978 1.68953 14.1491 1.63578 13.8113C1.6109 13.6523 1.58562 13.4938 1.55748 13.3355L1.52716 13.1586L1.07314 13.1116L1.0036 13.5069C0.977455 13.6488 0.950979 13.7894 0.938836 13.9316C0.766308 15.9853 1.16777 18.0126 2.13147 19.9559C2.98515 21.6745 4.31799 22.8934 6.09489 23.5792C6.81752 23.8581 7.55945 23.9999 8.30119 23.9999C8.89847 23.9999 9.50198 23.9074 10.0953 23.725C11.1916 23.391 12.015 22.7894 12.5438 21.9374C13.591 20.252 13.6902 18.3314 12.8463 16.0678C12.7901 15.9167 12.7229 15.7741 12.6516 15.6282C12.8423 15.6521 13.0263 15.6725 13.2116 15.6765L13.3973 15.6793C13.7607 15.6793 14.1803 15.6542 14.6062 15.5331L14.3783 15.9741C14.3393 16.0471 14.3113 16.1024 14.285 16.1598C14.2592 16.2167 14.2421 16.2809 14.2333 16.3554C14.052 17.8333 14.211 19.0287 14.7338 20.1173C15.3709 21.4441 16.6316 22.2354 18.1059 22.2354C18.7856 22.2354 19.4574 22.0577 20.0487 21.7226C21.9219 20.6592 22.9129 18.9382 23.0795 16.4609C23.1293 15.6976 23.0895 14.8597 22.9508 13.8221ZM14.7971 15.4718C15.0999 15.3625 15.4028 15.1996 15.6881 14.9534C16.3531 14.38 16.7926 13.6464 17.2174 12.9364L17.3154 12.7722C17.6179 12.2686 17.9932 11.7006 18.4769 11.3071C18.771 11.0684 19.1264 10.9375 19.4794 10.9375C20.066 10.9375 20.5544 11.2798 20.8222 11.8773C21.3733 13.1082 21.4502 14.3916 21.0541 15.6938C20.574 17.2725 19.0634 18.4177 17.462 18.4177C17.2146 18.4177 16.9639 18.3906 16.7196 18.3372C15.8318 18.1403 15.1616 17.4629 15.0119 16.6078C14.988 16.4708 14.9612 16.3341 14.9322 16.1818L14.7971 15.4718Z" fill="white"/>
<path d="M12.2193 6.55739C13.0266 7.36369 14.0076 7.81896 15.1372 7.91199C15.3349 7.92838 15.5312 7.93608 15.7249 7.93608C17.0689 7.93608 18.373 7.56847 19.7151 6.8116C20.2765 6.49362 20.5805 6.23343 21.2109 5.61147C21.3459 5.47776 21.4137 5.31459 21.4053 5.14067C21.3834 4.68161 20.8627 4.25693 20.2597 3.76516C19.9226 3.49104 19.574 3.2075 19.3684 2.94791L19.1851 2.71659L18.8647 3.11188C18.7894 3.20531 18.7217 3.29117 18.65 3.37226C18.1802 3.90358 17.6163 4.32534 16.927 4.6621C15.3037 5.45606 13.8023 5.3116 12.4362 4.22382C11.6769 3.62037 11.1949 2.95653 10.9637 2.1923L10.6868 1.28003L10.5027 2.2152C10.3848 2.81168 10.4296 3.42647 10.6448 4.1491C10.954 5.19409 11.6142 5.95361 12.2193 6.55739Z" fill="white"/>
<path d="M13.136 3.07604C13.4906 3.40994 13.8477 3.74106 14.1979 4.06382L14.8079 4.62905L15.4507 4.00224C15.9436 3.52209 16.4225 3.05527 16.8951 2.57955C17.021 2.45182 17.0864 2.11393 16.925 1.95474C16.4034 1.44432 15.8734 0.943262 15.3849 0.483011L14.8741 0L14.7115 0.147047C14.5282 0.310616 14.3497 0.468015 14.1755 0.621962C13.805 0.949102 13.454 1.25793 13.1169 1.58765C12.7997 1.89747 12.6089 2.08473 12.6109 2.33676C12.6136 2.58659 12.7997 2.76031 13.136 3.07604Z" fill="white"/>
</svg>
