<svg width="36" height="36" viewBox="0 0 36 36" fill="none" xmlns="http://www.w3.org/2000/svg">
<path d="M27.5886 16.3078C27.5554 16.1193 27.5094 15.9351 27.4653 15.75H23.1523C23.2156 16.4736 23.2501 17.2245 23.2501 18C23.2501 18.7755 23.2156 19.5264 23.1523 20.25H27.4651C27.5092 20.0648 27.5551 19.8802 27.5886 19.6915C27.6115 19.5606 27.64 19.4313 27.6574 19.2987C27.7809 18.4375 27.7809 17.563 27.6574 16.7017C27.64 16.5688 27.6115 16.44 27.5886 16.3078Z" fill="#E49C28"/>
<path d="M18 1.5C14.7366 1.5 11.5465 2.46771 8.8331 4.28075C6.11969 6.09379 4.00484 8.67074 2.756 11.6857C1.50715 14.7007 1.18039 18.0183 1.81705 21.219C2.45371 24.4197 4.02518 27.3597 6.33275 29.6673C8.64031 31.9748 11.5803 33.5463 14.781 34.183C17.9817 34.8196 21.2993 34.4929 24.3143 33.244C27.3293 31.9952 29.9062 29.8803 31.7193 27.1669C33.5323 24.4535 34.5 21.2634 34.5 18C34.5 13.6239 32.7616 9.42709 29.6673 6.33274C26.5729 3.23839 22.3761 1.5 18 1.5ZM28.7828 21.2168C28.0896 23.5378 26.666 25.5733 24.7235 27.0206C22.781 28.4679 20.4233 29.2497 18.001 29.2499C15.5786 29.25 13.2208 28.4685 11.2781 27.0214C9.33545 25.5744 7.91158 23.5391 7.21816 21.2181L7.21726 21.2168V21.2144C6.71658 19.5351 6.61511 17.7621 6.92093 16.0366C7.22675 14.3112 7.93139 12.6811 8.97871 11.2762C10.026 9.87127 11.387 8.73044 12.9533 7.94463C14.5195 7.15881 16.2477 6.74973 18 6.75C20.4254 6.73711 22.7891 7.5138 24.7342 8.96277C26.6793 10.4117 28.1 12.4543 28.7819 14.7819L28.7828 14.7833V14.7857C29.4053 16.884 29.4053 19.1184 28.7828 21.2168Z" fill="#E49C28"/>
<path d="M21.0498 27.2652C22.3782 26.8307 23.596 26.1124 24.6189 25.16C25.6418 24.2076 26.4451 23.044 26.9732 21.75H22.9682C22.7292 23.7041 22.0751 25.5846 21.0498 27.2652Z" fill="#E49C28"/>
<path d="M14.5557 21.75C15.1764 25.4114 16.6455 27.75 18 27.75C19.3545 27.75 20.8236 25.4114 21.4443 21.75H14.5557Z" fill="#E49C28"/>
<path d="M12.7499 18C12.7499 17.2245 12.7844 16.4736 12.8477 15.75H8.53492C8.49082 15.9352 8.44492 16.1198 8.41147 16.3085C8.38852 16.4394 8.36002 16.5687 8.34262 16.7013C8.21913 17.5625 8.21913 18.437 8.34262 19.2983C8.36017 19.4312 8.38867 19.5608 8.41162 19.6922C8.44477 19.8807 8.49082 20.0649 8.53492 20.25H12.8477C12.7844 19.5264 12.7499 18.7755 12.7499 18Z" fill="#E49C28"/>
<path d="M9.02734 21.75C9.55551 23.0439 10.3588 24.2073 11.3816 25.1597C12.4044 26.112 13.6221 26.8305 14.9502 27.2652C13.9253 25.5845 13.2714 23.7041 13.0325 21.75H9.02734Z" fill="#E49C28"/>
<path d="M14.9507 8.7348C13.6223 9.16928 12.4045 9.88764 11.3816 10.84C10.3587 11.7924 9.55539 12.956 9.02734 14.25H13.0323C13.2713 12.2959 13.9254 10.4154 14.9507 8.7348Z" fill="#E49C28"/>
<path d="M26.9727 14.25C26.4445 12.9561 25.6412 11.7927 24.6184 10.8403C23.5957 9.88797 22.378 9.16951 21.0498 8.7348C22.0748 10.4155 22.7286 12.2959 22.9676 14.25H26.9727Z" fill="#E49C28"/>
<path d="M21.4443 14.25C20.8236 10.5886 19.3545 8.25 18 8.25C16.6455 8.25 15.1764 10.5886 14.5557 14.25H21.4443Z" fill="#E49C28"/>
<path d="M14.25 18C14.25 18.7857 14.2899 19.5351 14.3581 20.25H21.6419C21.7101 19.5351 21.75 18.7857 21.75 18C21.75 17.2143 21.7101 16.4649 21.6419 15.75H14.3581C14.2899 16.4649 14.25 17.2143 14.25 18Z" fill="#E49C28"/>
</svg>
