<svg width="20" height="24" viewBox="0 0 20 24" fill="none" xmlns="http://www.w3.org/2000/svg">
<path d="M18.7996 23.0468L18.7996 23.047C18.9808 23.0545 19.1344 23.1271 19.2406 23.2477C19.3438 23.3647 19.3898 23.5124 19.3884 23.6532C19.3854 23.9382 19.1799 24.2384 18.7968 24.25L18.7893 24.2502V24.2501H1.21341C0.881164 24.2501 0.611816 23.9807 0.611816 23.6485C0.611816 23.3163 0.881163 23.0469 1.21341 23.0469H3.67458V14.2836C3.67458 13.6363 4.20082 13.11 4.84814 13.11H5.22741L6.31324 10.4178L6.31326 10.4177C6.43759 10.1096 6.78804 9.96075 7.0961 10.0849L7.09623 10.0849C7.40428 10.2092 7.55333 10.5597 7.42908 10.8678L7.19722 10.7743L7.42907 10.8678L6.53399 13.0872H13.4686L11.3623 7.86463H8.64035L7.9378 9.60663L7.93779 9.60665C7.81347 9.91481 7.463 10.0638 7.15488 9.93953L7.15481 9.9395C6.84676 9.81519 6.69771 9.4647 6.82196 9.15658L6.82197 9.15657L7.63277 7.14627V6.88084C7.63277 6.24944 7.90407 5.64787 8.37726 5.23027L8.37739 5.23016L9.37599 4.35006C9.37519 3.89377 9.37581 3.24948 9.37644 2.59242C9.37721 1.79342 9.378 0.975524 9.37626 0.453788C9.36187 0.152927 9.57223 -0.122667 9.87997 -0.172602C9.88032 -0.172658 9.88067 -0.172714 9.88102 -0.172769L9.92063 0.0740718C11.5043 -0.193839 13.182 0.274665 14.3997 1.32292L18.7996 23.0468ZM18.7996 23.0468H18.7893H16.328V19.6997C16.328 19.3674 16.0587 19.0981 15.7264 19.0981C15.3942 19.0981 15.1249 19.3674 15.1249 19.6997V23.0468H13.0761C13.0765 22.8047 13.0799 22.5658 13.0832 22.3298C13.1119 20.2751 13.1375 18.4478 11.2214 16.7703L11.2207 16.7711C11.2204 16.7699 11.2202 16.7692 11.2201 16.7692L11.2193 16.7685L11.2188 16.7681L11.2182 16.7676L11.2166 16.7662L11.2106 16.7611L11.188 16.7418L11.1072 16.6732L10.8621 16.465L10.6171 16.2567L10.5363 16.1881L10.5137 16.1689L10.5077 16.1638L10.5062 16.1625L10.5058 16.1622L10.5057 16.1621L10.5057 16.1621L10.3438 16.3526L10.5057 16.1621L10.5056 16.1621C10.1962 15.8992 9.74772 15.9036 9.44334 16.1723L9.44332 16.1723L8.7565 16.7788L8.75649 16.7787L8.75427 16.7808C6.91011 18.449 6.93697 20.2685 6.96661 22.2759C6.97035 22.5298 6.97415 22.7868 6.9742 23.0468H4.87781H18.7996ZM8.17628 20.761V20.7411C8.18187 19.5623 8.6838 18.4481 9.55296 17.6807L9.98538 17.2988L10.4376 17.6831C10.4379 17.6833 10.4383 17.6836 10.4386 17.6839C11.3396 18.4663 11.6843 19.2985 11.8136 20.2103C11.8791 20.6726 11.8893 21.1569 11.8851 21.6725C11.8838 21.8326 11.8811 21.9967 11.8783 22.1638C11.8736 22.448 11.8687 22.7412 11.8704 23.0392H8.17628V20.761ZM9.17294 6.13276L9.17306 6.13265L10.0014 5.40264L10.8295 6.13247L10.8296 6.13257C10.988 6.27193 11.0963 6.458 11.1423 6.66136H8.86042C8.90639 6.45804 9.01474 6.272 9.17294 6.13276ZM11.9869 1.10598C12.0867 1.13247 12.1857 1.1625 12.2837 1.19594C11.6982 1.3261 11.126 1.51689 10.5794 1.76454V0.960463C11.0531 0.936174 11.532 0.985231 11.9869 1.10598Z" fill="#E49C28" stroke="#E49C28" stroke-width="0.5"/>
</svg>
