<svg width="36" height="36" viewBox="0 0 36 36" fill="none" xmlns="http://www.w3.org/2000/svg">
<path d="M28.6271 7.07823C28.5835 7.12123 28.5379 7.12328 28.4943 7.07823C28.4591 7.04547 28.4508 7.00657 28.4632 6.96152C28.4715 6.93285 28.4985 6.87757 28.5462 6.79567C28.9195 6.13431 29.2016 5.49137 29.3924 4.86892C29.6476 4.04375 29.7845 3.33325 29.8011 2.74151C29.8197 2.19481 29.7368 1.83239 29.5542 1.65425C29.4422 1.54369 29.3157 1.49045 29.1747 1.49454C29.0336 1.49864 28.9029 1.55802 28.7826 1.67678C28.7515 1.70749 28.7163 1.76073 28.6789 1.83649C28.6416 1.91225 28.6105 1.96344 28.5835 1.98801C28.5524 2.01872 28.4964 2.05148 28.4134 2.08629C28.3325 2.1211 28.2848 2.13133 28.2703 2.11905C28.2288 2.0781 28.2371 1.99005 28.2952 1.85696C28.3595 1.70135 28.4694 1.54778 28.6229 1.39626C28.7183 1.30207 28.8241 1.24679 28.9382 1.23041C29.0792 1.20993 29.2327 1.22836 29.3987 1.28365C29.5563 1.33279 29.6808 1.4024 29.772 1.4925C29.9877 1.70544 30.1391 1.99415 30.2242 2.36066C30.3072 2.74151 30.3113 3.17149 30.2408 3.65267C30.1391 4.31198 29.8861 4.95901 29.4816 5.5958C29.2659 5.93774 29.0647 6.28378 28.878 6.63801C28.7329 6.91033 28.6499 7.05571 28.6292 7.07618L28.6271 7.07823ZM32.5037 5.22929C32.4705 5.26205 32.3399 5.31938 32.1138 5.39719C31.7964 5.50571 31.5164 5.61627 31.2717 5.72889C31.0642 5.82717 30.807 5.99098 30.5001 6.22235C30.3486 6.33497 30.0189 6.5991 29.5107 7.01476C29.407 7.10075 29.3012 7.18675 29.1954 7.27275C29.1207 7.33213 29.0709 7.35055 29.0481 7.32598C29.017 7.29527 29.0751 7.20723 29.2244 7.0598C29.2556 7.02909 29.3012 6.98609 29.3613 6.93285C29.4215 6.87962 29.465 6.83867 29.4941 6.81L29.5252 6.77929C29.9131 6.39639 30.218 6.06469 30.4399 5.78417C30.6328 5.53642 30.7137 5.39923 30.6826 5.36852C30.6535 5.33986 30.5975 5.36852 30.5104 5.45452C30.5187 5.44633 30.4731 5.49956 30.3735 5.61218C30.2595 5.74118 30.1288 5.87836 29.9836 6.02783C29.8965 6.11997 29.7679 6.26535 29.6019 6.46601C29.4464 6.65029 29.324 6.78543 29.2348 6.87347C28.9112 7.19494 28.737 7.34236 28.7121 7.31984L28.7038 7.31165C28.654 7.26251 28.6934 7.16218 28.82 7.01066C29.0129 6.78952 29.2078 6.57044 29.4049 6.3493C29.6455 6.06878 29.8467 5.78008 30.0043 5.47909C30.0582 5.37466 30.2346 4.97744 30.5312 4.29151C30.7344 3.82057 30.8485 3.57077 30.8776 3.5421C30.9128 3.50729 30.9647 3.48886 31.029 3.48886C31.0933 3.48886 31.141 3.5032 31.17 3.53186C31.1908 3.55234 31.2115 3.60967 31.2302 3.70181C31.2488 3.796 31.2696 3.85128 31.2862 3.86971C31.3028 3.88404 31.3442 3.88609 31.4148 3.8738C31.5102 3.85538 31.6077 3.839 31.7031 3.81852C31.9665 3.77552 32.1262 3.78166 32.1822 3.83695C32.2278 3.87995 32.2507 3.93114 32.2527 3.99052C32.2527 4.02123 32.2465 4.09085 32.232 4.20346C32.2299 4.21984 32.2113 4.34065 32.1781 4.56383C32.1615 4.65188 32.1615 4.70102 32.1739 4.7133C32.1905 4.72764 32.2465 4.74606 32.3461 4.76449C32.4456 4.78292 32.5037 4.7993 32.5224 4.81773C32.5722 4.86687 32.595 4.93444 32.5908 5.02044C32.5867 5.10643 32.5576 5.17605 32.5037 5.22929ZM34.8019 7.5676C34.7189 7.6495 34.6297 7.72116 34.5343 7.78668C34.4368 7.85016 34.3891 7.88292 34.3871 7.88702C34.3808 7.89316 34.3705 7.90544 34.356 7.92592C34.3373 7.94435 34.3228 7.95868 34.3103 7.97301C34.1796 8.09996 34.0842 8.13477 34.022 8.07334C33.939 7.99144 33.9743 7.87473 34.1278 7.72321C34.2108 7.64131 34.329 7.55941 34.4825 7.4775C34.636 7.3956 34.7293 7.33827 34.7625 7.30551C34.8185 7.24818 34.8372 7.15194 34.8143 7.01885C34.7915 6.88371 34.748 6.78543 34.6837 6.72195C34.4285 6.47011 33.995 6.34725 33.379 6.34725C32.7402 6.3534 31.9623 6.49468 31.0456 6.77519C30.7137 6.87757 30.3797 7.01476 30.0437 7.18675C29.7596 7.33622 29.521 7.47546 29.3302 7.6065C29.2659 7.6495 29.2244 7.67407 29.2058 7.68226C29.1643 7.6925 29.1145 7.68226 29.0585 7.65155C29.0668 7.61674 29.0813 7.59012 29.1021 7.56964C29.1187 7.55326 29.1788 7.51436 29.2846 7.45089C29.4319 7.3567 29.5625 7.2707 29.6745 7.19699C29.828 7.07004 30.135 6.85709 30.5975 6.5561C31.4625 6.05036 32.259 5.78213 32.987 5.75141C33.6943 5.7248 34.2605 5.92341 34.6857 6.34316C34.889 6.54382 34.9989 6.75881 35.0197 6.98814C35.0384 7.21746 34.9678 7.41198 34.8081 7.56964L34.8019 7.5676Z" fill="#4B3205"/>
<path d="M31.5121 3.32713C31.4582 3.38037 31.4084 3.38651 31.3649 3.34146C31.3213 3.29846 31.2549 3.18994 31.1699 3.01795C31.0662 2.80705 30.9604 2.59615 30.8546 2.38321C30.4792 1.64199 30.249 1.14648 30.166 0.894634C30.0436 0.521979 30.0623 0.257844 30.2199 0.10223C30.3859 -0.0615743 30.585 -0.0288134 30.8194 0.20256C30.9127 0.2947 31.0039 0.530169 31.0952 0.90692C31.1657 1.20586 31.2591 1.70956 31.3752 2.41392C31.3856 2.46511 31.4271 2.67806 31.4976 3.05685C31.5287 3.21656 31.5349 3.30461 31.5121 3.32508V3.32713ZM31.9871 3.36603C31.9353 3.41722 31.8834 3.41518 31.8274 3.36194C31.8046 3.33942 31.7776 3.19813 31.7444 2.94219C31.705 2.6371 31.676 2.26445 31.6594 1.82627C31.6428 1.53961 31.6304 1.25091 31.62 0.964251C31.6221 0.74721 31.6739 0.589548 31.7714 0.491266C31.8481 0.417554 31.9415 0.37865 32.0535 0.376603C32.1676 0.376603 32.2651 0.415506 32.348 0.497409C32.4787 0.624357 32.5368 0.800447 32.5264 1.01954C32.5243 1.11987 32.4787 1.35943 32.3936 1.74232C32.1676 2.77429 32.0307 3.31485 31.983 3.36194L31.9871 3.36603ZM34.0758 2.50401C34.0385 2.54087 33.9265 2.61663 33.7356 2.73129C33.5116 2.85824 33.2897 2.98724 33.0657 3.11623C32.8085 3.26366 32.6073 3.3947 32.4642 3.51551C32.3833 3.58512 32.3314 3.62607 32.3045 3.63426C32.2713 3.65269 32.2402 3.64655 32.2111 3.61993C32.1821 3.59127 32.1759 3.5626 32.1925 3.53189C32.1945 3.53189 32.2236 3.49093 32.2775 3.41722C32.4102 3.23499 32.6156 2.92991 32.8935 2.50197C33.0968 2.18459 33.2544 1.9696 33.3644 1.86108C33.4971 1.73004 33.6361 1.66042 33.7834 1.65223C33.9306 1.64404 34.0592 1.69318 34.1712 1.80375C34.2583 1.88975 34.2936 2.00031 34.2749 2.13341C34.2563 2.2665 34.1899 2.3914 34.0717 2.50606L34.0758 2.50401ZM35.5754 4.33862C35.4904 4.42257 35.3224 4.45943 35.0735 4.44305C34.9387 4.43281 34.6213 4.38572 34.1235 4.30381C33.1756 4.14615 32.6612 4.03149 32.5845 3.95368C32.5451 3.91478 32.5409 3.85745 32.5679 3.78374L32.7234 3.72231C33.0408 3.71617 33.3934 3.69979 33.7792 3.67317C34.194 3.64245 34.4388 3.62607 34.5072 3.62403C35.0797 3.60765 35.4655 3.69979 35.6688 3.90045C35.7849 4.01511 35.7538 4.16049 35.5754 4.33862ZM35.8866 5.81491C35.7746 5.92548 35.6231 5.97872 35.4323 5.97462C35.2415 5.97053 35.0299 5.90091 34.7997 5.76577C33.4619 4.98975 32.7504 4.55771 32.6654 4.47376C32.5637 4.37343 32.5388 4.29767 32.5907 4.24648C32.6322 4.20553 32.7483 4.20758 32.9412 4.25467C33.0221 4.2731 33.2876 4.34681 33.7398 4.48195C34.5964 4.73175 35.0362 4.8628 35.0527 4.87099C35.424 4.99589 35.6874 5.13512 35.843 5.28869C36.0359 5.47911 36.0504 5.65315 35.8866 5.81491Z" fill="#4B3205"/>
<path d="M30.7525 8.53393C30.7525 8.38036 30.7691 8.25546 30.8023 8.15513C30.8355 8.0548 30.8957 7.96266 30.9828 7.87666C31.0637 7.79885 31.1591 7.73743 31.2711 7.69443C31.3831 7.65143 31.5013 7.62891 31.6237 7.62891C31.7461 7.62891 31.8622 7.64733 31.9722 7.68624C32.0821 7.72514 32.1754 7.78247 32.2522 7.85823C32.3331 7.93809 32.3787 8.03023 32.3891 8.13261C32.3994 8.23703 32.3704 8.32098 32.3061 8.3865C32.2667 8.42541 32.219 8.44588 32.163 8.44998C32.109 8.45407 32.0634 8.43769 32.024 8.39879C31.9867 8.36193 31.9701 8.3046 31.9742 8.22884C32.0033 8.27593 32.0199 8.30255 32.0261 8.30869C32.0489 8.33122 32.0779 8.34146 32.109 8.33941C32.1422 8.33941 32.1713 8.32508 32.1982 8.29846C32.2418 8.25546 32.2625 8.20017 32.2584 8.13465C32.2542 8.06913 32.2273 8.0118 32.1754 7.96061C32.1132 7.89918 32.0427 7.86847 31.9639 7.86847C31.885 7.86847 31.8145 7.89918 31.7523 7.96061C31.6693 8.04251 31.632 8.1408 31.6382 8.25751C31.6444 8.37626 31.6963 8.55031 31.7958 8.78168C31.8871 8.98848 31.9307 9.16253 31.9244 9.29971C31.9182 9.43895 31.8664 9.5577 31.7668 9.65599C31.6984 9.72356 31.6216 9.76246 31.5366 9.77065C31.4515 9.77884 31.3623 9.75632 31.2669 9.70103C31.2006 9.99383 31.0595 10.2457 30.8417 10.4627C30.7048 10.5979 30.5451 10.7084 30.3647 10.7985C30.1821 10.8886 29.9913 10.948 29.7943 10.9767C29.5972 11.0074 29.3877 11.0074 29.1699 10.9767C28.9874 10.95 28.807 10.8886 28.6286 10.7944C28.4502 10.7002 28.2926 10.5856 28.1515 10.4484C28.0768 10.3747 28.0146 10.2969 27.9648 10.215L28.0457 10.1535C28.108 10.2354 28.1598 10.2948 28.2034 10.3378C28.3921 10.5242 28.6161 10.6531 28.8733 10.7269C29.1305 10.8006 29.3857 10.8067 29.6366 10.7473C29.8876 10.688 30.1033 10.5692 30.2838 10.3931C30.4435 10.2334 30.5534 10.0573 30.6115 9.86074C30.6696 9.66622 30.6737 9.47171 30.626 9.28128C30.5762 9.09086 30.4767 8.92091 30.3273 8.77349C30.2091 8.65678 30.0764 8.57283 29.927 8.52164C29.7777 8.47045 29.6325 8.46021 29.4873 8.48888C29.3421 8.51755 29.2197 8.58307 29.1181 8.6834C28.9916 8.8083 28.9273 8.95572 28.9252 9.12362C28.9252 9.29357 28.9853 9.43895 29.1119 9.56385C29.199 9.64984 29.2902 9.69899 29.3856 9.71127C29.4811 9.72356 29.5599 9.69899 29.6221 9.63756C29.6677 9.59251 29.6906 9.54132 29.6864 9.48194C29.6843 9.42257 29.6553 9.36728 29.6034 9.31609C29.5806 9.29357 29.5433 9.269 29.4935 9.24647C29.6346 9.13386 29.7507 9.12157 29.842 9.21167C29.9 9.269 29.9229 9.34271 29.9104 9.4369C29.9001 9.53109 29.8544 9.61504 29.7797 9.6908C29.674 9.79317 29.5495 9.84231 29.4022 9.83208C29.2571 9.82184 29.1222 9.75632 28.9978 9.63551C28.8899 9.52904 28.8194 9.40004 28.7841 9.25262C28.7489 9.10315 28.753 8.95367 28.7966 8.80216C28.8401 8.65268 28.9169 8.51959 29.033 8.40698C29.1699 8.27184 29.3442 8.18584 29.5537 8.15308C29.7631 8.12032 29.9768 8.1367 30.1925 8.20632C30.4082 8.27389 30.5928 8.38241 30.7442 8.53188L30.7525 8.53393ZM31.2918 9.56589C31.4246 9.65189 31.5469 9.63961 31.659 9.52904C31.7336 9.45533 31.771 9.36319 31.7668 9.25671C31.7647 9.15024 31.7233 9.00691 31.6444 8.82877C31.5677 8.64654 31.5221 8.52164 31.5055 8.45407C31.4889 8.3865 31.4826 8.30869 31.4889 8.22474C31.5055 8.10599 31.5615 7.99132 31.659 7.8869C31.5469 7.91966 31.464 7.96266 31.408 8.01794C31.298 8.12646 31.2358 8.27798 31.2213 8.47045C31.213 8.55645 31.2296 8.73663 31.269 9.01305C31.2856 9.09905 31.296 9.19529 31.3001 9.29766C31.3043 9.40004 31.3022 9.49014 31.2939 9.56589H31.2918Z" fill="#4B3205"/>
<path d="M28.0599 6.09315C28.1304 6.30815 28.147 6.517 28.1138 6.7238C28.0786 6.9306 27.9935 7.10055 27.8566 7.23774C27.7426 7.35035 27.6077 7.42816 27.4563 7.47116C27.3028 7.51211 27.1514 7.51825 27 7.48344C26.8486 7.44863 26.72 7.37902 26.6121 7.27254C26.4898 7.15174 26.4234 7.01865 26.413 6.87327C26.4027 6.72994 26.4524 6.60504 26.5561 6.50062C26.6308 6.4269 26.7179 6.3839 26.8133 6.37162C26.9088 6.35933 26.9855 6.38186 27.0415 6.43919C27.1328 6.52928 27.1224 6.64599 27.0062 6.78523C26.9813 6.73608 26.9585 6.69923 26.9357 6.67671C26.8839 6.62552 26.8279 6.59685 26.7677 6.5948C26.7076 6.59276 26.6536 6.61323 26.6101 6.66033C26.5478 6.72175 26.523 6.79956 26.5354 6.89375C26.5478 6.98793 26.5997 7.07803 26.6847 7.16402C26.8113 7.28892 26.9585 7.35035 27.1307 7.3483C27.3008 7.3483 27.4501 7.28278 27.5766 7.15788C27.6783 7.05755 27.7446 6.93675 27.7737 6.79342C27.8027 6.65009 27.7923 6.50676 27.7405 6.35933C27.6886 6.21396 27.6036 6.08087 27.4854 5.96416C27.336 5.81673 27.1639 5.71845 26.971 5.66931C26.7781 5.62017 26.581 5.62631 26.384 5.68364C26.1869 5.74097 26.0065 5.84949 25.8468 6.00715C25.6684 6.18529 25.5481 6.39619 25.4879 6.64599C25.4278 6.89375 25.4361 7.1456 25.5087 7.39949C25.5833 7.65339 25.714 7.87453 25.9028 8.06085C25.9443 8.10385 26.0065 8.15504 26.0895 8.21647L26.0272 8.29632C25.9443 8.24513 25.8654 8.18575 25.7908 8.11204C25.6518 7.97486 25.5357 7.81719 25.4402 7.6411C25.3469 7.46501 25.2847 7.28688 25.2577 7.10669C25.2266 6.8917 25.2266 6.68694 25.2577 6.49038C25.2867 6.29586 25.3469 6.10749 25.4382 5.9273C25.5294 5.74916 25.6414 5.5915 25.7783 5.45636C25.9961 5.24137 26.2533 5.10009 26.5499 5.03661C26.4939 4.94243 26.469 4.85438 26.4794 4.77043C26.4898 4.68648 26.5271 4.61072 26.5976 4.54315C26.6972 4.44487 26.8175 4.39163 26.9585 4.38549C27.0996 4.37935 27.2738 4.42235 27.4833 4.51244C27.7177 4.61072 27.894 4.66396 28.0143 4.66805C28.1325 4.6742 28.2321 4.63734 28.315 4.55544C28.3773 4.49401 28.4084 4.42439 28.4084 4.34659C28.4084 4.26878 28.3773 4.19916 28.315 4.13774C28.2632 4.08655 28.2051 4.05993 28.1387 4.05583C28.0724 4.05174 28.0184 4.07221 27.9728 4.11521C27.9458 4.14183 27.9313 4.1705 27.9313 4.20326C27.9313 4.23602 27.9396 4.26264 27.9624 4.28516C27.9687 4.2913 27.9956 4.30973 28.0454 4.33635C27.9687 4.34044 27.9106 4.32406 27.8732 4.28721C27.8338 4.25035 27.8193 4.20326 27.8214 4.15002C27.8255 4.09474 27.8484 4.04764 27.8857 4.01079C27.9521 3.94527 28.0371 3.91865 28.1429 3.92889C28.2466 3.93912 28.3399 3.98212 28.4208 4.06402C28.4976 4.13978 28.5556 4.23192 28.5951 4.34044C28.6345 4.44896 28.6531 4.56363 28.6531 4.68443C28.6531 4.80524 28.6303 4.9199 28.5868 5.03252C28.5432 5.14309 28.481 5.23932 28.4022 5.31713C28.315 5.40313 28.2217 5.4625 28.1201 5.49527C28.0184 5.52803 27.8919 5.54441 27.7363 5.54441C27.8878 5.69388 27.9977 5.87406 28.0661 6.08906L28.0599 6.09315ZM26.9565 5.01C27.0602 5.01409 27.1576 5.02433 27.2448 5.04071C27.5248 5.07961 27.7073 5.09394 27.7944 5.0878C27.9894 5.07347 28.1429 5.01204 28.2528 4.90352C28.3088 4.84824 28.3524 4.76634 28.3856 4.65577C28.2777 4.752 28.1657 4.80729 28.0433 4.82367C27.9562 4.82776 27.8774 4.82367 27.811 4.80729C27.7426 4.79091 27.616 4.74586 27.4314 4.6701C27.251 4.59229 27.1079 4.55134 26.9979 4.5493C26.8901 4.5452 26.7988 4.58206 26.7221 4.65577C26.6101 4.76634 26.5976 4.88714 26.6847 5.01818C26.7615 5.00999 26.8528 5.00795 26.9565 5.01204V5.01Z" fill="#4B3205"/>
<path d="M32.5711 19.0031C33.5336 18.739 34.3819 18.1309 34.9232 17.0846C36.2258 14.5702 35.0788 10.946 31.8638 10.9276C30.2501 10.9194 29.211 12.4612 29.576 13.9702C29.8726 15.207 31.1835 16.0321 32.233 15.1701C32.2973 15.121 32.3596 15.0677 32.4156 15.0022C32.7972 14.5661 32.8034 13.9539 32.4301 13.6344C32.0547 13.315 31.4428 13.4092 31.0611 13.8474C30.8475 14.0911 30.7562 14.3879 30.779 14.6603C30.4513 14.6275 30.0717 14.347 30.0261 13.8863C29.9473 13.1307 30.4347 12.3895 31.1234 12.109C32.0505 11.7323 33.3801 11.8121 34.1579 12.4981C35.9645 14.0911 34.5499 17.2156 32.5525 17.9261C31.2768 18.3786 29.8374 18.2578 28.6426 17.6702C29.0388 17.6088 29.4329 17.5002 29.8166 17.3549C29.9245 17.3139 30.2066 17.1399 30.1319 16.8409C30.0531 16.5235 29.7689 16.5297 29.7025 16.5584C29.1031 16.8245 28.3854 17.0334 27.6844 17.0457C27.1949 16.6403 26.7862 16.1366 26.5083 15.5428C25.5749 13.5484 26.6929 10.9071 27.9146 9.24654C27.9872 9.14825 28.0432 8.9394 27.9748 8.70598C27.9706 8.61998 27.9042 8.50737 27.8047 8.42547C27.7279 8.3538 27.6408 8.31285 27.5703 8.31695C27.3276 8.25961 27.1285 8.30875 27.0331 8.37837C25.3509 9.58438 22.6732 10.688 20.655 9.76457C20.0535 9.4902 19.5432 9.08683 19.1325 8.6036C19.145 7.90948 19.3565 7.20103 19.6262 6.61133C19.6552 6.54581 19.6615 6.26529 19.34 6.18749C19.0371 6.11378 18.8587 6.39224 18.8193 6.49871C18.6721 6.87751 18.5642 7.26655 18.4999 7.65763C17.9046 6.47824 17.7802 5.05724 18.2406 3.79799C18.9604 1.82619 22.1256 0.431807 23.7393 2.21318C24.4341 2.98101 24.515 4.2935 24.1334 5.20875C23.8492 5.8865 23.0984 6.36972 22.333 6.29191C21.8663 6.24482 21.5821 5.87216 21.5469 5.54865C21.8227 5.57117 22.1235 5.48108 22.3703 5.27018C22.8121 4.89343 22.9096 4.28735 22.586 3.91879C22.2625 3.55023 21.6423 3.55638 21.2005 3.93313C21.1362 3.98841 21.0802 4.04984 21.0304 4.11331C20.1572 5.14938 20.9951 6.44343 22.2459 6.73623C23.7766 7.09455 25.3385 6.06873 25.3281 4.47778C25.3094 1.30407 21.6381 0.171767 19.0911 1.45763C18.0312 1.99204 17.4151 2.83154 17.1476 3.77956C16.6892 2.71278 16.0296 1.75658 14.9717 1.2754C13.3082 0.517804 11.4685 1.39006 11.2444 3.22058C11.0412 4.88524 13.468 6.00321 14.5963 4.7931C15.959 3.33319 13.4659 2.06371 12.8789 3.62804C12.8789 3.63009 12.8789 3.63418 12.8789 3.63623C12.7939 3.92084 12.9142 4.20955 13.1568 4.29145C13.4078 4.3754 13.6899 4.2075 13.7895 3.91675C13.8475 3.74475 13.8289 3.57071 13.7542 3.43967C13.9761 3.26562 14.2707 3.35367 14.3142 3.76523C14.3412 4.01503 14.1794 4.28121 14.0632 4.48392C13.5343 5.39713 12.5076 4.80539 12.1218 4.13788C11.5639 3.17144 12.2483 1.91219 13.1465 1.43511C14.4905 0.720512 15.733 2.18247 16.1831 3.23082C16.4817 3.93108 16.7701 4.63953 17.0044 5.36437C17.104 6.57243 17.635 7.79277 18.4501 8.71212C18.5103 9.47996 18.7965 10.2109 19.3918 10.8272C20.2754 11.7405 21.8331 12.0169 23.059 11.9084C23.5236 11.8674 23.1876 11.6115 22.893 11.6381C21.5842 11.7548 20.2982 11.2736 19.5536 10.1802C19.3939 9.94475 19.286 9.69086 19.2197 9.42467C21.4598 11.0996 24.3595 10.7924 26.7282 9.55367C25.4733 11.892 25.1622 14.7545 26.8588 16.9658C26.5892 16.8983 26.332 16.7938 26.0935 16.6341C24.9859 15.899 24.4984 14.6296 24.6167 13.3376C24.6436 13.0468 24.3843 12.7151 24.3429 13.1737C24.2329 14.3818 24.5109 15.9195 25.438 16.7918C26.0624 17.3794 26.8028 17.662 27.5807 17.7234C28.512 18.5281 29.7482 19.0523 30.9719 19.1506C31.7062 19.384 32.4259 19.6665 33.1353 19.9614C34.1994 20.4057 35.6782 21.6322 34.9544 22.959C34.4711 23.8436 33.1955 24.5213 32.2164 23.9705C31.5403 23.5897 30.9408 22.5761 31.8659 22.054C32.0713 21.9373 32.3388 21.7796 32.5939 21.8062C33.0088 21.8492 33.098 22.1379 32.9237 22.3591C32.7889 22.2854 32.6126 22.2649 32.4405 22.3243C32.1459 22.4226 31.9758 22.7031 32.0609 22.9508C32.1418 23.1904 32.4363 23.3091 32.7246 23.2252C32.7267 23.2252 32.7288 23.2252 32.7329 23.2252C34.3176 22.6457 33.0316 20.1846 31.5527 21.5298C30.3289 22.6437 31.4614 25.0393 33.1457 24.8387C35.0021 24.6175 35.8857 22.8014 35.1161 21.1592C34.6266 20.115 33.6601 19.4638 32.5774 19.0113L32.5711 19.0031Z" fill="#4B3205"/>
<path d="M34.9015 25.2096V35.648C34.9015 36.1128 34.58 36.1333 34.58 35.6153C34.58 33.019 34.2585 29.8473 33.742 28.027C33.3189 26.5344 33.7856 26.2702 34.5509 25.1297C34.6775 24.9393 34.8994 24.9147 34.8994 25.2116L34.9015 25.2096Z" fill="#4B3205"/>
<path d="M10.9309 1.20782H0.356773C-0.114066 1.20782 -0.134807 1.5252 0.38996 1.5252C3.02002 1.5252 6.23292 1.84257 8.07893 2.35241C9.59101 2.77011 9.85858 2.30941 11.0139 1.55386C11.2068 1.42896 11.2317 1.20987 10.9309 1.20987V1.20782Z" fill="#4B3205"/>
</svg>
