<svg width="36" height="36" viewBox="0 0 36 36" fill="none" xmlns="http://www.w3.org/2000/svg">
<path d="M28.6271 28.9217C28.5835 28.8787 28.5379 28.8767 28.4943 28.9217C28.4591 28.9545 28.4508 28.9934 28.4632 29.0385C28.4715 29.0671 28.4985 29.1224 28.5462 29.2043C28.9195 29.8657 29.2016 30.5086 29.3924 31.1311C29.6476 31.9562 29.7845 32.6667 29.8011 33.2585C29.8197 33.8052 29.7368 34.1676 29.5542 34.3457C29.4422 34.4563 29.3157 34.5095 29.1747 34.5054C29.0336 34.5013 28.9029 34.442 28.7826 34.3232C28.7515 34.2925 28.7163 34.2392 28.6789 34.1635C28.6416 34.0877 28.6105 34.0365 28.5835 34.012C28.5524 33.9813 28.4964 33.9485 28.4134 33.9137C28.3325 33.8789 28.2848 33.8686 28.2703 33.8809C28.2288 33.9219 28.2371 34.0099 28.2952 34.143C28.3595 34.2986 28.4694 34.4522 28.6229 34.6037C28.7183 34.6979 28.8241 34.7532 28.9382 34.7696C29.0792 34.79 29.2327 34.7716 29.3987 34.7163C29.5563 34.6672 29.6808 34.5976 29.772 34.5075C29.9877 34.2945 30.1391 34.0058 30.2242 33.6393C30.3072 33.2585 30.3113 32.8285 30.2408 32.3473C30.1391 31.688 29.8861 31.041 29.4816 30.4042C29.2659 30.0622 29.0647 29.7162 28.878 29.362C28.7329 29.0896 28.6499 28.9443 28.6292 28.9238L28.6271 28.9217ZM32.5037 30.7707C32.4705 30.7379 32.3399 30.6806 32.1138 30.6028C31.7964 30.4943 31.5164 30.3837 31.2717 30.2711C31.0642 30.1728 30.807 30.009 30.5001 29.7776C30.3486 29.665 30.0189 29.4009 29.5107 28.9852C29.407 28.8992 29.3012 28.8132 29.1954 28.7272C29.1207 28.6678 29.0709 28.6494 29.0481 28.674C29.017 28.7047 29.0751 28.7927 29.2244 28.9402C29.2556 28.9709 29.3012 29.0139 29.3613 29.0671C29.4215 29.1204 29.465 29.1613 29.4941 29.19L29.5252 29.2207C29.9131 29.6036 30.218 29.9353 30.4399 30.2158C30.6328 30.4635 30.7137 30.6007 30.6826 30.6314C30.6535 30.6601 30.5975 30.6314 30.5104 30.5455C30.5187 30.5536 30.4731 30.5004 30.3735 30.3878C30.2595 30.2588 30.1288 30.1216 29.9836 29.9721C29.8965 29.88 29.7679 29.7346 29.6019 29.534C29.4464 29.3497 29.324 29.2145 29.2348 29.1265C28.9112 28.805 28.737 28.6576 28.7121 28.6801L28.7038 28.6883C28.654 28.7375 28.6934 28.8378 28.82 28.9893C29.0129 29.2104 29.2078 29.4295 29.4049 29.6507C29.6455 29.9312 29.8467 30.2199 30.0043 30.5209C30.0582 30.6253 30.2346 31.0225 30.5312 31.7085C30.7344 32.1794 30.8485 32.4292 30.8776 32.4579C30.9128 32.4927 30.9647 32.5111 31.029 32.5111C31.0933 32.5111 31.141 32.4968 31.17 32.4681C31.1908 32.4476 31.2115 32.3903 31.2302 32.2982C31.2488 32.204 31.2696 32.1487 31.2862 32.1303C31.3028 32.1159 31.3442 32.1139 31.4148 32.1262C31.5102 32.1446 31.6077 32.161 31.7031 32.1814C31.9665 32.2244 32.1262 32.2183 32.1822 32.163C32.2278 32.12 32.2507 32.0688 32.2527 32.0095C32.2527 31.9787 32.2465 31.9091 32.232 31.7965C32.2299 31.7801 32.2113 31.6593 32.1781 31.4361C32.1615 31.3481 32.1615 31.299 32.1739 31.2867C32.1905 31.2723 32.2465 31.2539 32.3461 31.2355C32.4456 31.217 32.5037 31.2007 32.5224 31.1822C32.5722 31.1331 32.595 31.0655 32.5908 30.9795C32.5867 30.8935 32.5576 30.8239 32.5037 30.7707ZM34.8019 28.4324C34.7189 28.3505 34.6297 28.2788 34.5343 28.2133C34.4368 28.1498 34.3891 28.117 34.3871 28.113C34.3808 28.1068 34.3705 28.0945 34.356 28.0741C34.3373 28.0556 34.3228 28.0413 34.3103 28.027C34.1796 27.9 34.0842 27.8652 34.022 27.9266C33.939 28.0085 33.9743 28.1252 34.1278 28.2768C34.2108 28.3587 34.329 28.4406 34.4825 28.5225C34.636 28.6044 34.7293 28.6617 34.7625 28.6945C34.8185 28.7518 34.8372 28.848 34.8143 28.9811C34.7915 29.1163 34.748 29.2145 34.6837 29.278C34.4285 29.5299 33.995 29.6527 33.379 29.6527C32.7402 29.6466 31.9623 29.5053 31.0456 29.2248C30.7137 29.1224 30.3797 28.9852 30.0437 28.8132C29.7596 28.6637 29.521 28.5245 29.3302 28.3935C29.2659 28.3505 29.2244 28.3259 29.2058 28.3177C29.1643 28.3075 29.1145 28.3177 29.0585 28.3484C29.0668 28.3832 29.0813 28.4099 29.1021 28.4303C29.1187 28.4467 29.1788 28.4856 29.2846 28.5491C29.4319 28.6433 29.5625 28.7293 29.6745 28.803C29.828 28.9299 30.135 29.1429 30.5975 29.4439C31.4625 29.9496 32.259 30.2178 32.987 30.2486C33.6943 30.2752 34.2605 30.0766 34.6857 29.6568C34.889 29.4562 34.9989 29.2412 35.0197 29.0118C35.0384 28.7825 34.9678 28.588 34.8081 28.4303L34.8019 28.4324Z" fill="#4B3205"/>
<path d="M31.5121 32.6729C31.4582 32.6196 31.4084 32.6135 31.3649 32.6585C31.3213 32.7015 31.2549 32.8101 31.1699 32.9821C31.0662 33.1929 30.9604 33.4038 30.8546 33.6168C30.4792 34.358 30.249 34.8535 30.166 35.1054C30.0436 35.478 30.0623 35.7422 30.2199 35.8978C30.3859 36.0616 30.585 36.0288 30.8194 35.7974C30.9127 35.7053 31.0039 35.4698 31.0952 35.0931C31.1657 34.7941 31.2591 34.2904 31.3752 33.5861C31.3856 33.5349 31.4271 33.3219 31.4976 32.9431C31.5287 32.7834 31.5349 32.6954 31.5121 32.6749V32.6729ZM31.9871 32.634C31.9353 32.5828 31.8834 32.5848 31.8274 32.6381C31.8046 32.6606 31.7776 32.8019 31.7444 33.0578C31.705 33.3629 31.676 33.7356 31.6594 34.1737C31.6428 34.4604 31.6304 34.7491 31.62 35.0357C31.6221 35.2528 31.6739 35.4105 31.7714 35.5087C31.8481 35.5824 31.9415 35.6213 32.0535 35.6234C32.1676 35.6234 32.2651 35.5845 32.348 35.5026C32.4787 35.3756 32.5368 35.1996 32.5264 34.9805C32.5243 34.8801 32.4787 34.6406 32.3936 34.2577C32.1676 33.2257 32.0307 32.6852 31.983 32.6381L31.9871 32.634ZM34.0758 33.496C34.0385 33.4591 33.9265 33.3834 33.7356 33.2687C33.5116 33.1418 33.2897 33.0128 33.0657 32.8838C32.8085 32.7363 32.6073 32.6053 32.4642 32.4845C32.3833 32.4149 32.3314 32.3739 32.3045 32.3657C32.2713 32.3473 32.2402 32.3535 32.2111 32.3801C32.1821 32.4087 32.1759 32.4374 32.1925 32.4681C32.1945 32.4681 32.2236 32.5091 32.2775 32.5828C32.4102 32.765 32.6156 33.0701 32.8935 33.498C33.0968 33.8154 33.2544 34.0304 33.3644 34.1389C33.4971 34.27 33.6361 34.3396 33.7834 34.3478C33.9306 34.356 34.0592 34.3068 34.1712 34.1963C34.2583 34.1103 34.2936 33.9997 34.2749 33.8666C34.2563 33.7335 34.1899 33.6086 34.0717 33.4939L34.0758 33.496ZM35.5754 31.6614C35.4904 31.5774 35.3224 31.5406 35.0735 31.557C34.9387 31.5672 34.6213 31.6143 34.1235 31.6962C33.1756 31.8538 32.6612 31.9685 32.5845 32.0463C32.5451 32.0852 32.5409 32.1426 32.5679 32.2163L32.7234 32.2777C33.0408 32.2838 33.3934 32.3002 33.7792 32.3268C34.194 32.3575 34.4388 32.3739 34.5072 32.376C35.0797 32.3924 35.4655 32.3002 35.6688 32.0996C35.7849 31.9849 35.7538 31.8395 35.5754 31.6614ZM35.8866 30.1851C35.7746 30.0745 35.6231 30.0213 35.4323 30.0254C35.2415 30.0295 35.0299 30.0991 34.7997 30.2342C33.4619 31.0103 32.7504 31.4423 32.6654 31.5262C32.5637 31.6266 32.5388 31.7023 32.5907 31.7535C32.6322 31.7945 32.7483 31.7924 32.9412 31.7453C33.0221 31.7269 33.2876 31.6532 33.7398 31.518C34.5964 31.2682 35.0362 31.1372 35.0527 31.129C35.424 31.0041 35.6874 30.8649 35.843 30.7113C36.0359 30.5209 36.0504 30.3468 35.8866 30.1851Z" fill="#4B3205"/>
<path d="M30.7525 27.4661C30.7525 27.6196 30.7691 27.7445 30.8023 27.8449C30.8355 27.9452 30.8957 28.0373 30.9828 28.1233C31.0637 28.2011 31.1591 28.2626 31.2711 28.3056C31.3831 28.3486 31.5013 28.3711 31.6237 28.3711C31.7461 28.3711 31.8622 28.3527 31.9722 28.3138C32.0821 28.2749 32.1754 28.2175 32.2522 28.1418C32.3331 28.0619 32.3787 27.9698 32.3891 27.8674C32.3994 27.763 32.3704 27.679 32.3061 27.6135C32.2667 27.5746 32.219 27.5541 32.163 27.55C32.109 27.5459 32.0634 27.5623 32.024 27.6012C31.9867 27.6381 31.9701 27.6954 31.9742 27.7712C32.0033 27.7241 32.0199 27.6974 32.0261 27.6913C32.0489 27.6688 32.0779 27.6585 32.109 27.6606C32.1422 27.6606 32.1713 27.6749 32.1982 27.7015C32.2418 27.7445 32.2625 27.7998 32.2584 27.8653C32.2542 27.9309 32.2273 27.9882 32.1754 28.0394C32.1132 28.1008 32.0427 28.1315 31.9639 28.1315C31.885 28.1315 31.8145 28.1008 31.7523 28.0394C31.6693 27.9575 31.632 27.8592 31.6382 27.7425C31.6444 27.6237 31.6963 27.4497 31.7958 27.2183C31.8871 27.0115 31.9307 26.8375 31.9244 26.7003C31.9182 26.5611 31.8664 26.4423 31.7668 26.344C31.6984 26.2764 31.6216 26.2375 31.5366 26.2293C31.4515 26.2212 31.3623 26.2437 31.2669 26.299C31.2006 26.0062 31.0595 25.7543 30.8417 25.5373C30.7048 25.4021 30.5451 25.2916 30.3647 25.2015C30.1821 25.1114 29.9913 25.052 29.7943 25.0233C29.5972 24.9926 29.3877 24.9926 29.1699 25.0233C28.9874 25.05 28.807 25.1114 28.6286 25.2056C28.4502 25.2998 28.2926 25.4144 28.1515 25.5516C28.0768 25.6253 28.0146 25.7031 27.9648 25.785L28.0457 25.8465C28.108 25.7646 28.1598 25.7052 28.2034 25.6622C28.3921 25.4758 28.6161 25.3469 28.8733 25.2731C29.1305 25.1994 29.3857 25.1933 29.6366 25.2527C29.8876 25.312 30.1033 25.4308 30.2838 25.6069C30.4435 25.7666 30.5534 25.9427 30.6115 26.1393C30.6696 26.3338 30.6737 26.5283 30.626 26.7187C30.5762 26.9091 30.4767 27.0791 30.3273 27.2265C30.2091 27.3432 30.0764 27.4272 29.927 27.4784C29.7777 27.5295 29.6325 27.5398 29.4873 27.5111C29.3421 27.4825 29.2197 27.4169 29.1181 27.3166C28.9916 27.1917 28.9273 27.0443 28.9252 26.8764C28.9252 26.7064 28.9853 26.5611 29.1119 26.4362C29.199 26.3502 29.2902 26.301 29.3856 26.2887C29.4811 26.2764 29.5599 26.301 29.6221 26.3624C29.6677 26.4075 29.6906 26.4587 29.6864 26.5181C29.6843 26.5774 29.6553 26.6327 29.6034 26.6839C29.5806 26.7064 29.5433 26.731 29.4935 26.7535C29.6346 26.8661 29.7507 26.8784 29.842 26.7883C29.9 26.731 29.9229 26.6573 29.9104 26.5631C29.9001 26.4689 29.8544 26.385 29.7797 26.3092C29.674 26.2068 29.5495 26.1577 29.4022 26.1679C29.2571 26.1782 29.1222 26.2437 28.9978 26.3645C28.8899 26.471 28.8194 26.6 28.7841 26.7474C28.7489 26.8969 28.753 27.0463 28.7966 27.1978C28.8401 27.3473 28.9169 27.4804 29.033 27.593C29.1699 27.7282 29.3442 27.8142 29.5537 27.8469C29.7631 27.8797 29.9768 27.8633 30.1925 27.7937C30.4082 27.7261 30.5928 27.6176 30.7442 27.4681L30.7525 27.4661ZM31.2918 26.4341C31.4246 26.3481 31.5469 26.3604 31.659 26.471C31.7336 26.5447 31.771 26.6368 31.7668 26.7433C31.7647 26.8498 31.7233 26.9931 31.6444 27.1712C31.5677 27.3535 31.5221 27.4784 31.5055 27.5459C31.4889 27.6135 31.4826 27.6913 31.4889 27.7753C31.5055 27.894 31.5615 28.0087 31.659 28.1131C31.5469 28.0803 31.464 28.0373 31.408 27.9821C31.298 27.8735 31.2358 27.722 31.2213 27.5295C31.213 27.4436 31.2296 27.2634 31.269 26.9869C31.2856 26.9009 31.296 26.8047 31.3001 26.7023C31.3043 26.6 31.3022 26.5099 31.2939 26.4341H31.2918Z" fill="#4B3205"/>
<path d="M28.0599 29.9068C28.1304 29.6919 28.147 29.483 28.1138 29.2762C28.0786 29.0694 27.9935 28.8995 27.8566 28.7623C27.7426 28.6496 27.6077 28.5718 27.4563 28.5288C27.3028 28.4879 27.1514 28.4817 27 28.5166C26.8486 28.5514 26.72 28.621 26.6121 28.7275C26.4898 28.8483 26.4234 28.9814 26.413 29.1267C26.4027 29.2701 26.4524 29.395 26.5561 29.4994C26.6308 29.5731 26.7179 29.6161 26.8133 29.6284C26.9088 29.6407 26.9855 29.6181 27.0415 29.5608C27.1328 29.4707 27.1224 29.354 27.0062 29.2148C26.9813 29.2639 26.9585 29.3008 26.9357 29.3233C26.8839 29.3745 26.8279 29.4031 26.7677 29.4052C26.7076 29.4072 26.6536 29.3868 26.6101 29.3397C26.5478 29.2782 26.523 29.2004 26.5354 29.1063C26.5478 29.0121 26.5997 28.922 26.6847 28.836C26.8113 28.7111 26.9585 28.6496 27.1307 28.6517C27.3008 28.6517 27.4501 28.7172 27.5766 28.8421C27.6783 28.9424 27.7446 29.0633 27.7737 29.2066C27.8027 29.3499 27.7923 29.4932 27.7405 29.6407C27.6886 29.786 27.6036 29.9191 27.4854 30.0358C27.336 30.1833 27.1639 30.2816 26.971 30.3307C26.7781 30.3798 26.581 30.3737 26.384 30.3164C26.1869 30.259 26.0065 30.1505 25.8468 29.9928C25.6684 29.8147 25.5481 29.6038 25.4879 29.354C25.4278 29.1063 25.4361 28.8544 25.5087 28.6005C25.5833 28.3466 25.714 28.1255 25.9028 27.9391C25.9443 27.8961 26.0065 27.845 26.0895 27.7835L26.0272 27.7037C25.9443 27.7549 25.8654 27.8142 25.7908 27.888C25.6518 28.0251 25.5357 28.1828 25.4402 28.3589C25.3469 28.535 25.2847 28.7131 25.2577 28.8933C25.2266 29.1083 25.2266 29.3131 25.2577 29.5096C25.2867 29.7041 25.3469 29.8925 25.4382 30.0727C25.5294 30.2508 25.6414 30.4085 25.7783 30.5436C25.9961 30.7586 26.2533 30.8999 26.5499 30.9634C26.4939 31.0576 26.469 31.1456 26.4794 31.2296C26.4898 31.3135 26.5271 31.3893 26.5976 31.4568C26.6972 31.5551 26.8175 31.6084 26.9585 31.6145C27.0996 31.6207 27.2738 31.5777 27.4833 31.4876C27.7177 31.3893 27.894 31.336 28.0143 31.3319C28.1325 31.3258 28.2321 31.3627 28.315 31.4446C28.3773 31.506 28.4084 31.5756 28.4084 31.6534C28.4084 31.7312 28.3773 31.8008 28.315 31.8623C28.2632 31.9135 28.2051 31.9401 28.1387 31.9442C28.0724 31.9483 28.0184 31.9278 27.9728 31.8848C27.9458 31.8582 27.9313 31.8295 27.9313 31.7967C27.9313 31.764 27.9396 31.7374 27.9624 31.7148C27.9687 31.7087 27.9956 31.6903 28.0454 31.6637C27.9687 31.6596 27.9106 31.6759 27.8732 31.7128C27.8338 31.7496 27.8193 31.7967 27.8214 31.85C27.8255 31.9053 27.8484 31.9524 27.8857 31.9892C27.9521 32.0547 28.0371 32.0814 28.1429 32.0711C28.2466 32.0609 28.3399 32.0179 28.4208 31.936C28.4976 31.8602 28.5556 31.7681 28.5951 31.6596C28.6345 31.551 28.6531 31.4364 28.6531 31.3156C28.6531 31.1948 28.6303 31.0801 28.5868 30.9675C28.5432 30.8569 28.481 30.7607 28.4022 30.6829C28.315 30.5969 28.2217 30.5375 28.1201 30.5047C28.0184 30.472 27.8919 30.4556 27.7363 30.4556C27.8878 30.3061 27.9977 30.1259 28.0661 29.9109L28.0599 29.9068ZM26.9565 30.99C27.0602 30.9859 27.1576 30.9757 27.2448 30.9593C27.5248 30.9204 27.7073 30.9061 27.7944 30.9122C27.9894 30.9265 28.1429 30.988 28.2528 31.0965C28.3088 31.1518 28.3524 31.2337 28.3856 31.3442C28.2777 31.248 28.1657 31.1927 28.0433 31.1763C27.9562 31.1722 27.8774 31.1763 27.811 31.1927C27.7426 31.2091 27.616 31.2541 27.4314 31.3299C27.251 31.4077 27.1079 31.4487 26.9979 31.4507C26.8901 31.4548 26.7988 31.4179 26.7221 31.3442C26.6101 31.2337 26.5976 31.1129 26.6847 30.9818C26.7615 30.99 26.8528 30.9921 26.9565 30.988V30.99Z" fill="#4B3205"/>
<path d="M32.5711 16.9969C33.5336 17.261 34.3819 17.8691 34.9232 18.9154C36.2258 21.4298 35.0788 25.054 31.8638 25.0724C30.2501 25.0806 29.211 23.5388 29.576 22.0298C29.8726 20.793 31.1835 19.9679 32.233 20.8299C32.2973 20.879 32.3596 20.9323 32.4156 20.9978C32.7972 21.4339 32.8034 22.0461 32.4301 22.3656C32.0547 22.685 31.4428 22.5908 31.0611 22.1526C30.8475 21.9089 30.7562 21.6121 30.779 21.3397C30.4513 21.3725 30.0717 21.653 30.0261 22.1137C29.9473 22.8693 30.4347 23.6105 31.1234 23.891C32.0505 24.2677 33.3801 24.1879 34.1579 23.5019C35.9645 21.9089 34.5499 18.7844 32.5525 18.0739C31.2768 17.6214 29.8374 17.7422 28.6426 18.3298C29.0388 18.3912 29.4329 18.4998 29.8166 18.6451C29.9245 18.6861 30.2066 18.8601 30.1319 19.1591C30.0531 19.4765 29.7689 19.4703 29.7025 19.4416C29.1031 19.1755 28.3854 18.9666 27.6844 18.9543C27.1949 19.3597 26.7862 19.8634 26.5083 20.4572C25.5749 22.4516 26.6929 25.0929 27.9146 26.7535C27.9872 26.8517 28.0432 27.0606 27.9748 27.294C27.9706 27.38 27.9042 27.4926 27.8047 27.5745C27.7279 27.6462 27.6408 27.6872 27.5703 27.6831C27.3276 27.7404 27.1285 27.6912 27.0331 27.6216C25.3509 26.4156 22.6732 25.312 20.655 26.2354C20.0535 26.5098 19.5432 26.9132 19.1325 27.3964C19.145 28.0905 19.3565 28.799 19.6262 29.3887C19.6552 29.4542 19.6615 29.7347 19.34 29.8125C19.0371 29.8862 18.8587 29.6078 18.8193 29.5013C18.6721 29.1225 18.5642 28.7335 18.4999 28.3424C17.9046 29.5218 17.7802 30.9428 18.2406 32.202C18.9604 34.1738 22.1256 35.5682 23.7393 33.7868C24.4341 33.019 24.515 31.7065 24.1334 30.7912C23.8492 30.1135 23.0984 29.6303 22.333 29.7081C21.8663 29.7552 21.5821 30.1278 21.5469 30.4514C21.8227 30.4288 22.1235 30.5189 22.3703 30.7298C22.8121 31.1066 22.9096 31.7126 22.586 32.0812C22.2625 32.4498 21.6423 32.4436 21.2005 32.0669C21.1362 32.0116 21.0802 31.9502 21.0304 31.8867C20.1572 30.8506 20.9951 29.5566 22.2459 29.2638C23.7766 28.9054 25.3385 29.9313 25.3281 31.5222C25.3094 34.6959 21.6381 35.8282 19.0911 34.5424C18.0312 34.008 17.4151 33.1685 17.1476 32.2204C16.6892 33.2872 16.0296 34.2434 14.9717 34.7246C13.3082 35.4822 11.4685 34.6099 11.2444 32.7794C11.0412 31.1148 13.468 29.9968 14.5963 31.2069C15.959 32.6668 13.4659 33.9363 12.8789 32.372C12.8789 32.3699 12.8789 32.3658 12.8789 32.3638C12.7939 32.0792 12.9142 31.7905 13.1568 31.7086C13.4078 31.6246 13.6899 31.7925 13.7895 32.0833C13.8475 32.2552 13.8289 32.4293 13.7542 32.5603C13.9761 32.7344 14.2707 32.6463 14.3142 32.2348C14.3412 31.985 14.1794 31.7188 14.0632 31.5161C13.5343 30.6029 12.5076 31.1946 12.1218 31.8621C11.5639 32.8286 12.2483 34.0878 13.1465 34.5649C14.4905 35.2795 15.733 33.8175 16.1831 32.7692C16.4817 32.0689 16.7701 31.3605 17.0044 30.6356C17.104 29.4276 17.635 28.2072 18.4501 27.2879C18.5103 26.52 18.7965 25.7891 19.3918 25.1728C20.2754 24.2595 21.8331 23.9831 23.059 24.0916C23.5236 24.1326 23.1876 24.3885 22.893 24.3619C21.5842 24.2452 20.2982 24.7264 19.5536 25.8198C19.3939 26.0552 19.286 26.3091 19.2197 26.5753C21.4598 24.9004 24.3595 25.2076 26.7282 26.4463C25.4733 24.108 25.1622 21.2455 26.8588 19.0342C26.5892 19.1017 26.332 19.2062 26.0935 19.3659C24.9859 20.101 24.4984 21.3704 24.6167 22.6624C24.6436 22.9532 24.3843 23.2849 24.3429 22.8263C24.2329 21.6182 24.5109 20.0805 25.438 19.2082C26.0624 18.6206 26.8028 18.338 27.5807 18.2766C28.512 17.4719 29.7482 16.9477 30.9719 16.8494C31.7062 16.616 32.4259 16.3335 33.1353 16.0386C34.1994 15.5943 35.6782 14.3678 34.9544 13.041C34.4711 12.1564 33.1955 11.4787 32.2164 12.0295C31.5403 12.4103 30.9408 13.4239 31.8659 13.946C32.0713 14.0627 32.3388 14.2204 32.5939 14.1938C33.0088 14.1508 33.098 13.8621 32.9237 13.6409C32.7889 13.7146 32.6126 13.7351 32.4405 13.6757C32.1459 13.5774 31.9758 13.2969 32.0609 13.0492C32.1418 12.8096 32.4363 12.6909 32.7246 12.7748C32.7267 12.7748 32.7288 12.7748 32.7329 12.7748C34.3176 13.3543 33.0316 15.8154 31.5527 14.4702C30.3289 13.3563 31.4614 10.9607 33.1457 11.1613C35.0021 11.3825 35.8857 13.1986 35.1161 14.8408C34.6266 15.885 33.6601 16.5362 32.5774 16.9887L32.5711 16.9969Z" fill="#4B3205"/>
<path d="M34.9015 10.7904V0.35197C34.9015 -0.112825 34.58 -0.1333 34.58 0.384731C34.58 2.98103 34.2585 6.1527 33.742 7.97297C33.3189 9.46564 33.7856 9.72978 34.5509 10.8703C34.6775 11.0607 34.8994 11.0853 34.8994 10.7884L34.9015 10.7904Z" fill="#4B3205"/>
<path d="M10.9309 34.7922H0.356773C-0.114066 34.7922 -0.134807 34.4748 0.38996 34.4748C3.02002 34.4748 6.23292 34.1574 8.07893 33.6476C9.59101 33.2299 9.85858 33.6906 11.0139 34.4461C11.2068 34.571 11.2317 34.7901 10.9309 34.7901V34.7922Z" fill="#4B3205"/>
</svg>
