<svg width="36" height="36" viewBox="0 0 36 36" fill="none" xmlns="http://www.w3.org/2000/svg">
<path d="M7.37292 28.9217C7.41648 28.8787 7.46212 28.8767 7.50567 28.9217C7.54093 28.9545 7.54924 28.9934 7.53679 29.0385C7.52849 29.0671 7.50152 29.1224 7.45382 29.2043C7.08047 29.8657 6.79838 30.5086 6.60755 31.1311C6.35243 31.9562 6.21554 32.6667 6.19894 33.2585C6.18028 33.8052 6.26324 34.1676 6.44577 34.3457C6.55778 34.4563 6.68431 34.5095 6.82535 34.5054C6.96639 34.5013 7.09706 34.442 7.21736 34.3232C7.24847 34.2925 7.28373 34.2392 7.32107 34.1635C7.3584 34.0877 7.38952 34.0365 7.41648 34.012C7.4476 33.9813 7.5036 33.9485 7.58657 33.9137C7.66746 33.8789 7.71517 33.8686 7.72969 33.8809C7.77117 33.9219 7.76288 34.0099 7.7048 34.143C7.6405 34.2986 7.53056 34.4522 7.37708 34.6037C7.28166 34.6979 7.17588 34.7532 7.0618 34.7696C6.92075 34.79 6.76727 34.7716 6.60134 34.7163C6.4437 34.6672 6.31925 34.5976 6.22799 34.5075C6.01227 34.2945 5.86086 34.0058 5.77582 33.6393C5.69285 33.2585 5.6887 32.8285 5.75922 32.3473C5.86085 31.688 6.1139 31.041 6.51836 30.4042C6.73408 30.0622 6.93528 29.7162 7.12196 29.362C7.26715 29.0896 7.3501 28.9443 7.37085 28.9238L7.37292 28.9217ZM3.49629 30.7707C3.52947 30.7379 3.66015 30.6806 3.88623 30.6028C4.20358 30.4943 4.48359 30.3837 4.72835 30.2711C4.93577 30.1728 5.19297 30.009 5.49995 29.7776C5.65136 29.665 5.98115 29.4009 6.48932 28.9852C6.59303 28.8992 6.69882 28.8132 6.8046 28.7272C6.87927 28.6678 6.92906 28.6494 6.95187 28.674C6.98298 28.7047 6.9249 28.7927 6.77556 28.9402C6.74445 28.9709 6.69882 29.0139 6.63867 29.0671C6.57852 29.1204 6.53496 29.1613 6.50592 29.19L6.47481 29.2207C6.08694 29.6036 5.78203 29.9353 5.56009 30.2158C5.3672 30.4635 5.28631 30.6007 5.31742 30.6314C5.34646 30.6601 5.40246 30.6314 5.48958 30.5455C5.48128 30.5536 5.52691 30.5004 5.62647 30.3878C5.74055 30.2588 5.87122 30.1216 6.01642 29.9721C6.10353 29.88 6.23214 29.7346 6.39807 29.534C6.55363 29.3497 6.676 29.2145 6.76519 29.1265C7.08876 28.805 7.263 28.6576 7.28789 28.6801L7.29618 28.6883C7.34596 28.7375 7.30655 28.8378 7.18003 28.9893C6.98713 29.2104 6.79215 29.4295 6.59511 29.6507C6.3545 29.9312 6.15332 30.2199 5.99568 30.5209C5.94175 30.6253 5.76544 31.0225 5.46883 31.7085C5.26556 32.1794 5.15148 32.4292 5.12245 32.4579C5.08719 32.4927 5.03533 32.5111 4.97104 32.5111C4.90674 32.5111 4.85902 32.4968 4.82998 32.4681C4.80924 32.4476 4.7885 32.3903 4.76983 32.2982C4.75117 32.204 4.73042 32.1487 4.71383 32.1303C4.69723 32.1159 4.65575 32.1139 4.58523 32.1262C4.48982 32.1446 4.39234 32.161 4.29693 32.1814C4.03351 32.2244 3.8738 32.2183 3.81779 32.163C3.77216 32.12 3.74934 32.0688 3.74727 32.0095C3.74727 31.9787 3.75348 31.9091 3.768 31.7965C3.77008 31.7801 3.78875 31.6593 3.82193 31.4361C3.83853 31.3481 3.83853 31.299 3.82609 31.2867C3.80949 31.2723 3.75349 31.2539 3.65393 31.2355C3.55437 31.217 3.49629 31.2007 3.47763 31.1822C3.42785 31.1331 3.40503 31.0655 3.40917 30.9795C3.41332 30.8935 3.44236 30.8239 3.49629 30.7707ZM1.19811 28.4324C1.28107 28.3505 1.37026 28.2788 1.46567 28.2133C1.56316 28.1498 1.61087 28.117 1.61294 28.113C1.61917 28.1068 1.62953 28.0945 1.64405 28.0741C1.66272 28.0556 1.67724 28.0413 1.68969 28.027C1.82036 27.9 1.91576 27.8652 1.97799 27.9266C2.06095 28.0085 2.0257 28.1252 1.87221 28.2768C1.78925 28.3587 1.67102 28.4406 1.51753 28.5225C1.36404 28.6044 1.2707 28.6617 1.23752 28.6945C1.18151 28.7518 1.16285 28.848 1.18566 28.9811C1.20848 29.1163 1.25204 29.2145 1.31634 29.278C1.57146 29.5299 2.00496 29.6527 2.62099 29.6527C3.25984 29.6466 4.03765 29.5053 4.95444 29.2248C5.28631 29.1224 5.62025 28.9852 5.95627 28.8132C6.24043 28.6637 6.47896 28.5245 6.66979 28.3935C6.73409 28.3505 6.77556 28.3259 6.79423 28.3177C6.83572 28.3075 6.8855 28.3177 6.9415 28.3484C6.93321 28.3832 6.91868 28.4099 6.89794 28.4303C6.88135 28.4467 6.8212 28.4856 6.71541 28.5491C6.56815 28.6433 6.43747 28.7293 6.32547 28.803C6.17198 28.9299 5.865 29.1429 5.40245 29.4439C4.53752 29.9496 3.74105 30.2178 3.01301 30.2486C2.30572 30.2752 1.73947 30.0766 1.31426 29.6568C1.11099 29.4562 1.00105 29.2412 0.980309 29.0118C0.961641 28.7825 1.03217 28.588 1.19188 28.4303L1.19811 28.4324Z" fill="#4B3205"/>
<path d="M4.48788 32.6729C4.5418 32.6196 4.59159 32.6135 4.63515 32.6585C4.6787 32.7015 4.74507 32.8101 4.83011 32.9821C4.93382 33.1929 5.0396 33.4038 5.14539 33.6168C5.52081 34.358 5.75105 34.8535 5.83401 35.1054C5.95639 35.478 5.93772 35.7422 5.78008 35.8978C5.61415 36.0616 5.41503 36.0288 5.18064 35.7974C5.08731 35.7053 4.99605 35.4698 4.90479 35.0931C4.83427 34.7941 4.74092 34.2904 4.62477 33.5861C4.61439 33.5349 4.57292 33.3219 4.5024 32.9431C4.47128 32.7834 4.46506 32.6954 4.48788 32.6749V32.6729ZM4.01289 32.634C4.06475 32.5828 4.11659 32.5848 4.1726 32.6381C4.19541 32.6606 4.22238 32.8019 4.25557 33.0578C4.29498 33.3629 4.32401 33.7356 4.3406 34.1737C4.3572 34.4604 4.36964 34.7491 4.38001 35.0357C4.37794 35.2528 4.32609 35.4105 4.2286 35.5087C4.15186 35.5824 4.05852 35.6213 3.94652 35.6234C3.83244 35.6234 3.73494 35.5845 3.65198 35.5026C3.5213 35.3756 3.46323 35.1996 3.4736 34.9805C3.47567 34.8801 3.52131 34.6406 3.60635 34.2577C3.83244 33.2257 3.96933 32.6852 4.01703 32.6381L4.01289 32.634ZM1.9242 33.496C1.96153 33.4591 2.07353 33.3834 2.26435 33.2687C2.48836 33.1418 2.71031 33.0128 2.93432 32.8838C3.19152 32.7363 3.3927 32.6053 3.53582 32.4845C3.61672 32.4149 3.66857 32.3739 3.69554 32.3657C3.72873 32.3473 3.75984 32.3535 3.78888 32.3801C3.81792 32.4087 3.82413 32.4374 3.80754 32.4681C3.80547 32.4681 3.77643 32.5091 3.7225 32.5828C3.58976 32.765 3.38441 33.0701 3.10647 33.498C2.9032 33.8154 2.74557 34.0304 2.63564 34.1389C2.50289 34.27 2.36392 34.3396 2.21665 34.3478C2.06938 34.356 1.94079 34.3068 1.82878 34.1963C1.74166 34.1103 1.7064 33.9997 1.72507 33.8666C1.74374 33.7335 1.81011 33.6086 1.92834 33.4939L1.9242 33.496ZM0.424558 31.6614C0.509599 31.5774 0.677617 31.5406 0.926518 31.557C1.06134 31.5672 1.37868 31.6143 1.87648 31.6962C2.82438 31.8538 3.33879 31.9685 3.41553 32.0463C3.45494 32.0852 3.45908 32.1426 3.43211 32.2163L3.27655 32.2777C2.9592 32.2838 2.6066 32.3002 2.2208 32.3268C1.80597 32.3575 1.56121 32.3739 1.49276 32.376C0.920291 32.3924 0.5345 32.3002 0.33123 32.0996C0.215076 31.9849 0.246179 31.8395 0.424558 31.6614ZM0.113431 30.1851C0.225437 30.0745 0.376853 30.0213 0.567677 30.0254C0.758501 30.0295 0.970065 30.0991 1.2003 30.2342C2.53814 31.0103 3.24959 31.4423 3.33463 31.5262C3.43627 31.6266 3.46116 31.7023 3.4093 31.7535C3.36782 31.7945 3.25166 31.7924 3.05876 31.7453C2.97787 31.7269 2.71238 31.6532 2.26021 31.518C1.40358 31.2682 0.963848 31.1372 0.947255 31.129C0.575977 31.0041 0.312557 30.8649 0.156994 30.7113C-0.0359044 30.5209 -0.0504284 30.3468 0.113431 30.1851Z" fill="#4B3205"/>
<path d="M5.24746 27.4661C5.24746 27.6196 5.23087 27.7445 5.19768 27.8449C5.1645 27.9452 5.10435 28.0373 5.01723 28.1233C4.93634 28.2011 4.84092 28.2626 4.72892 28.3056C4.61691 28.3486 4.49868 28.3711 4.37631 28.3711C4.25393 28.3711 4.13778 28.3527 4.02784 28.3138C3.91791 28.2749 3.82458 28.2175 3.74784 28.1418C3.66694 28.0619 3.6213 27.9698 3.61093 27.8674C3.60056 27.763 3.62961 27.679 3.69391 27.6135C3.73331 27.5746 3.78102 27.5541 3.83702 27.55C3.89095 27.5459 3.93658 27.5623 3.97599 27.6012C4.01333 27.6381 4.02992 27.6954 4.02577 27.7712C3.99673 27.7241 3.98014 27.6974 3.97391 27.6913C3.9511 27.6688 3.92207 27.6585 3.89095 27.6606C3.85777 27.6606 3.82873 27.6749 3.80177 27.7015C3.75821 27.7445 3.73746 27.7998 3.74161 27.8653C3.74576 27.9309 3.77273 27.9882 3.82458 28.0394C3.88681 28.1008 3.95733 28.1315 4.03615 28.1315C4.11497 28.1315 4.18548 28.1008 4.24771 28.0394C4.33067 27.9575 4.36801 27.8592 4.36178 27.7425C4.35556 27.6237 4.30372 27.4497 4.20416 27.2183C4.11289 27.0115 4.06934 26.8375 4.07556 26.7003C4.08178 26.5611 4.13363 26.4423 4.23319 26.344C4.30163 26.2764 4.37839 26.2375 4.46343 26.2293C4.54847 26.2212 4.63766 26.2437 4.73307 26.299C4.79944 26.0062 4.94049 25.7543 5.15827 25.5373C5.29517 25.4021 5.45488 25.2916 5.63533 25.2015C5.81786 25.1114 6.00868 25.052 6.20573 25.0233C6.40278 24.9926 6.61227 24.9926 6.83006 25.0233C7.01259 25.05 7.19304 25.1114 7.37142 25.2056C7.5498 25.2998 7.70744 25.4144 7.84849 25.5516C7.92316 25.6253 7.98538 25.7031 8.03516 25.785L7.95426 25.8465C7.89204 25.7646 7.84019 25.7052 7.79663 25.6622C7.60788 25.4758 7.38386 25.3469 7.12667 25.2731C6.86947 25.1994 6.61435 25.1933 6.36337 25.2527C6.11239 25.312 5.89668 25.4308 5.71623 25.6069C5.55652 25.7666 5.44658 25.9427 5.3885 26.1393C5.33043 26.3338 5.32628 26.5283 5.37398 26.7187C5.42376 26.9091 5.52332 27.0791 5.67267 27.2265C5.79089 27.3432 5.92364 27.4272 6.07298 27.4784C6.22232 27.5295 6.36753 27.5398 6.51272 27.5111C6.65791 27.4825 6.78028 27.4169 6.88191 27.3166C7.00844 27.1917 7.07274 27.0443 7.07481 26.8764C7.07481 26.7064 7.01467 26.5611 6.88814 26.4362C6.80103 26.3502 6.70976 26.301 6.61435 26.2887C6.51894 26.2764 6.44012 26.301 6.37789 26.3624C6.33226 26.4075 6.30944 26.4587 6.31359 26.5181C6.31567 26.5774 6.34471 26.6327 6.39656 26.6839C6.41938 26.7064 6.45671 26.731 6.50649 26.7535C6.36544 26.8661 6.24929 26.8784 6.15803 26.7883C6.09995 26.731 6.07713 26.6573 6.08958 26.5631C6.09995 26.4689 6.14558 26.385 6.22025 26.3092C6.32603 26.2068 6.45049 26.1577 6.59775 26.1679C6.74295 26.1782 6.87777 26.2437 7.00222 26.3645C7.11008 26.471 7.18059 26.6 7.21585 26.7474C7.25111 26.8969 7.24697 27.0463 7.20341 27.1978C7.15985 27.3473 7.08312 27.4804 6.96696 27.593C6.83007 27.7282 6.65583 27.8142 6.44634 27.8469C6.23685 27.8797 6.02321 27.8633 5.80749 27.7937C5.59178 27.7261 5.40718 27.6176 5.25577 27.4681L5.24746 27.4661ZM4.70818 26.4341C4.57543 26.3481 4.45305 26.3604 4.34105 26.471C4.26638 26.5447 4.22904 26.6368 4.23319 26.7433C4.23526 26.8498 4.27675 26.9931 4.35557 27.1712C4.43231 27.3535 4.47794 27.4784 4.49453 27.5459C4.51113 27.6135 4.51735 27.6913 4.51113 27.7753C4.49454 27.894 4.43853 28.0087 4.34105 28.1131C4.45305 28.0803 4.53603 28.0373 4.59203 27.9821C4.70196 27.8735 4.76418 27.722 4.7787 27.5295C4.78699 27.4436 4.7704 27.2634 4.73099 26.9869C4.7144 26.9009 4.70402 26.8047 4.69988 26.7023C4.69573 26.6 4.69781 26.5099 4.7061 26.4341H4.70818Z" fill="#4B3205"/>
<path d="M7.94008 29.9068C7.86955 29.6919 7.85297 29.483 7.88616 29.2762C7.92142 29.0694 8.00646 28.8995 8.14335 28.7623C8.25743 28.6496 8.39225 28.5718 8.54367 28.5288C8.69716 28.4879 8.84857 28.4817 8.99999 28.5166C9.1514 28.5514 9.28 28.621 9.38786 28.7275C9.51024 28.8483 9.5766 28.9814 9.58697 29.1267C9.59734 29.2701 9.54756 29.395 9.44385 29.4994C9.36918 29.5731 9.28207 29.6161 9.18666 29.6284C9.09125 29.6407 9.01451 29.6181 8.9585 29.5608C8.86724 29.4707 8.87761 29.354 8.99376 29.2148C9.01865 29.2639 9.04147 29.3008 9.06429 29.3233C9.11614 29.3745 9.17215 29.4031 9.2323 29.4052C9.29245 29.4072 9.34638 29.3868 9.38994 29.3397C9.45216 29.2782 9.47705 29.2004 9.4646 29.1063C9.45216 29.0121 9.4003 28.922 9.31526 28.836C9.18873 28.7111 9.04147 28.6496 8.86932 28.6517C8.69923 28.6517 8.54989 28.7172 8.42336 28.8421C8.32173 28.9424 8.25535 29.0633 8.22631 29.2066C8.19727 29.3499 8.20765 29.4932 8.25951 29.6407C8.31136 29.786 8.3964 29.9191 8.51463 30.0358C8.66397 30.1833 8.83612 30.2816 9.02902 30.3307C9.22192 30.3798 9.41897 30.3737 9.61601 30.3164C9.81306 30.259 9.99352 30.1505 10.1532 29.9928C10.3316 29.8147 10.4519 29.6038 10.5121 29.354C10.5722 29.1063 10.5639 28.8544 10.4913 28.6005C10.4167 28.3466 10.286 28.1255 10.0972 27.9391C10.0557 27.8961 9.99351 27.845 9.91054 27.7835L9.97278 27.7037C10.0557 27.7549 10.1346 27.8142 10.2092 27.888C10.3482 28.0251 10.4643 28.1828 10.5598 28.3589C10.6531 28.535 10.7153 28.7131 10.7423 28.8933C10.7734 29.1083 10.7734 29.3131 10.7423 29.5096C10.7133 29.7041 10.6531 29.8925 10.5618 30.0727C10.4706 30.2508 10.3586 30.4085 10.2217 30.5436C10.0039 30.7586 9.74669 30.8999 9.45008 30.9634C9.50609 31.0576 9.53098 31.1456 9.52061 31.2296C9.51024 31.3135 9.4729 31.3893 9.40238 31.4568C9.30282 31.5551 9.18252 31.6084 9.04148 31.6145C8.90043 31.6207 8.72619 31.5777 8.5167 31.4876C8.28232 31.3893 8.10602 31.336 7.98571 31.3319C7.86749 31.3258 7.76792 31.3627 7.68496 31.4446C7.62273 31.506 7.59162 31.5756 7.59162 31.6534C7.59162 31.7312 7.62273 31.8008 7.68496 31.8623C7.73681 31.9135 7.79489 31.9401 7.86127 31.9442C7.92764 31.9483 7.98157 31.9278 8.0272 31.8848C8.05416 31.8582 8.06869 31.8295 8.06869 31.7967C8.06869 31.764 8.06038 31.7374 8.03757 31.7148C8.03135 31.7087 8.00438 31.6903 7.9546 31.6637C8.03134 31.6596 8.08942 31.6759 8.12676 31.7128C8.16617 31.7496 8.18069 31.7967 8.17861 31.85C8.17446 31.9053 8.15165 31.9524 8.11431 31.9892C8.04794 32.0547 7.9629 32.0814 7.85712 32.0711C7.75341 32.0609 7.66006 32.0179 7.57917 31.936C7.50243 31.8602 7.44436 31.7681 7.40495 31.6596C7.36554 31.551 7.34686 31.4364 7.34686 31.3156C7.34686 31.1948 7.36968 31.0801 7.41324 30.9675C7.4568 30.8569 7.51903 30.7607 7.59784 30.6829C7.68496 30.5969 7.77829 30.5375 7.87993 30.5047C7.98156 30.472 8.1081 30.4556 8.26366 30.4556C8.11224 30.3061 8.00231 30.1259 7.93386 29.9109L7.94008 29.9068ZM9.04354 30.99C8.93983 30.9859 8.84235 30.9757 8.75524 30.9593C8.47522 30.9204 8.29269 30.9061 8.20558 30.9122C8.0106 30.9265 7.85711 30.988 7.74718 31.0965C7.69118 31.1518 7.64763 31.2337 7.61444 31.3442C7.7223 31.248 7.8343 31.1927 7.95667 31.1763C8.04379 31.1722 8.12261 31.1763 8.18898 31.1927C8.25743 31.2091 8.38396 31.2541 8.56856 31.3299C8.74901 31.4077 8.89213 31.4487 9.00207 31.4507C9.10992 31.4548 9.20118 31.4179 9.27792 31.3442C9.38993 31.2337 9.40237 31.1129 9.31526 30.9818C9.23851 30.99 9.14725 30.9921 9.04354 30.988V30.99Z" fill="#4B3205"/>
<path d="M3.42887 16.9969C2.46645 17.261 1.61812 17.8691 1.07676 18.9154C-0.225826 21.4298 0.921192 25.054 4.13617 25.0724C5.74988 25.0806 6.78903 23.5388 6.42398 22.0298C6.12737 20.793 4.81649 19.9679 3.76696 20.8299C3.70266 20.879 3.64043 20.9323 3.58443 20.9978C3.20278 21.4339 3.19657 22.0461 3.56992 22.3656C3.94535 22.685 4.55722 22.5908 4.93887 22.1526C5.15251 21.9089 5.24377 21.6121 5.22096 21.3397C5.54868 21.3725 5.92825 21.653 5.97388 22.1137C6.0527 22.8693 5.56528 23.6105 4.87665 23.891C3.94949 24.2677 2.61994 24.1879 1.84213 23.5019C0.0355206 21.9089 1.45011 18.7844 3.44754 18.0739C4.72316 17.6214 6.16263 17.7422 7.35736 18.3298C6.96119 18.3912 6.5671 18.4998 6.18338 18.6451C6.07552 18.6861 5.79343 18.8601 5.8681 19.1591C5.94692 19.4765 6.23108 19.4703 6.29745 19.4416C6.89689 19.1755 7.61457 18.9666 8.31564 18.9543C8.80514 19.3597 9.21375 19.8634 9.49169 20.4572C10.4251 22.4516 9.30708 25.0929 8.08539 26.7535C8.0128 26.8517 7.9568 27.0606 8.02525 27.294C8.0294 27.38 8.09577 27.4926 8.19533 27.5745C8.27208 27.6462 8.35919 27.6872 8.42971 27.6831C8.67239 27.7404 8.87151 27.6912 8.96692 27.6216C10.6491 26.4156 13.3268 25.312 15.345 26.2354C15.9465 26.5098 16.4568 26.9132 16.8675 27.3964C16.855 28.0905 16.6435 28.799 16.3738 29.3887C16.3448 29.4542 16.3385 29.7347 16.66 29.8125C16.9629 29.8862 17.1413 29.6078 17.1807 29.5013C17.3279 29.1225 17.4358 28.7335 17.5001 28.3424C18.0954 29.5218 18.2198 30.9428 17.7594 32.202C17.0396 34.1738 13.8744 35.5682 12.2607 33.7868C11.5659 33.019 11.485 31.7065 11.8666 30.7912C12.1508 30.1135 12.9016 29.6303 13.667 29.7081C14.1337 29.7552 14.4179 30.1278 14.4531 30.4514C14.1773 30.4288 13.8765 30.5189 13.6297 30.7298C13.1879 31.1066 13.0904 31.7126 13.414 32.0812C13.7375 32.4498 14.3577 32.4436 14.7995 32.0669C14.8638 32.0116 14.9198 31.9502 14.9696 31.8867C15.8428 30.8506 15.0049 29.5566 13.7541 29.2638C12.2234 28.9054 10.6615 29.9313 10.6719 31.5222C10.6906 34.6959 14.3619 35.8282 16.9089 34.5424C17.9688 34.008 18.5849 33.1685 18.8524 32.2204C19.3108 33.2872 19.9704 34.2434 21.0283 34.7246C22.6918 35.4822 24.5315 34.6099 24.7556 32.7794C24.9588 31.1148 22.532 29.9968 21.4037 31.2069C20.041 32.6668 22.5341 33.9363 23.1211 32.372C23.1211 32.3699 23.1211 32.3658 23.1211 32.3638C23.2061 32.0792 23.0858 31.7905 22.8432 31.7086C22.5922 31.6246 22.3101 31.7925 22.2105 32.0833C22.1525 32.2552 22.1711 32.4293 22.2458 32.5603C22.0239 32.7344 21.7293 32.6463 21.6858 32.2348C21.6588 31.985 21.8206 31.7188 21.9368 31.5161C22.4657 30.6029 23.4924 31.1946 23.8782 31.8621C24.4361 32.8286 23.7517 34.0878 22.8535 34.5649C21.5095 35.2795 20.267 33.8175 19.8169 32.7692C19.5183 32.0689 19.2299 31.3605 18.9956 30.6356C18.896 29.4276 18.365 28.2072 17.5499 27.2879C17.4897 26.52 17.2035 25.7891 16.6082 25.1728C15.7246 24.2595 14.1669 23.9831 12.941 24.0916C12.4764 24.1326 12.8124 24.3885 13.107 24.3619C14.4158 24.2452 15.7018 24.7264 16.4464 25.8198C16.6061 26.0552 16.714 26.3091 16.7803 26.5753C14.5402 24.9004 11.6405 25.2076 9.27183 26.4463C10.5267 24.108 10.8378 21.2455 9.14116 19.0342C9.4108 19.1017 9.668 19.2062 9.90653 19.3659C11.0141 20.101 11.5016 21.3704 11.3833 22.6624C11.3564 22.9532 11.6157 23.2849 11.6571 22.8263C11.7671 21.6182 11.4891 20.0805 10.562 19.2082C9.93763 18.6206 9.19716 18.338 8.41935 18.2766C7.48804 17.4719 6.25182 16.9477 5.02806 16.8494C4.2938 16.616 3.57406 16.3335 2.86469 16.0386C1.80064 15.5943 0.321751 14.3678 1.04564 13.041C1.52892 12.1564 2.80454 11.4787 3.78355 12.0295C4.45974 12.4103 5.05917 13.4239 4.13409 13.946C3.92875 14.0627 3.66118 14.2204 3.40605 14.1938C2.99122 14.1508 2.90203 13.8621 3.07627 13.6409C3.21109 13.7146 3.38738 13.7351 3.55954 13.6757C3.85407 13.5774 4.02416 13.2969 3.93912 13.0492C3.85822 12.8096 3.56369 12.6909 3.27538 12.7748C3.2733 12.7748 3.27123 12.7748 3.26709 12.7748C1.68242 13.3543 2.9684 15.8154 4.44729 14.4702C5.67106 13.3563 4.53856 10.9607 2.85433 11.1613C0.997938 11.3825 0.11434 13.1986 0.88386 14.8408C1.37337 15.885 2.33993 16.5362 3.42265 16.9887L3.42887 16.9969Z" fill="#4B3205"/>
<path d="M1.09852 10.7904V0.35197C1.09852 -0.112825 1.42003 -0.1333 1.42003 0.384731C1.42003 2.98103 1.74152 6.1527 2.25799 7.97297C2.68112 9.46564 2.21443 9.72978 1.44906 10.8703C1.32253 11.0607 1.1006 11.0853 1.1006 10.7884L1.09852 10.7904Z" fill="#4B3205"/>
<path d="M25.0691 34.7922H35.6432C36.1141 34.7922 36.1348 34.4748 35.61 34.4748C32.98 34.4748 29.7671 34.1574 27.9211 33.6476C26.409 33.2299 26.1414 33.6906 24.9861 34.4461C24.7932 34.571 24.7683 34.7901 25.0691 34.7901V34.7922Z" fill="#4B3205"/>
</svg>
