<svg width="36" height="36" viewBox="0 0 36 36" fill="none" xmlns="http://www.w3.org/2000/svg">
<path d="M7.37292 7.07823C7.41648 7.12123 7.46212 7.12328 7.50567 7.07823C7.54093 7.04547 7.54924 7.00657 7.53679 6.96152C7.52849 6.93285 7.50152 6.87757 7.45382 6.79567C7.08047 6.13431 6.79838 5.49137 6.60755 4.86892C6.35243 4.04375 6.21554 3.33325 6.19894 2.74151C6.18028 2.19481 6.26324 1.83239 6.44577 1.65425C6.55778 1.54369 6.68431 1.49045 6.82535 1.49454C6.96639 1.49864 7.09706 1.55802 7.21736 1.67678C7.24847 1.70749 7.28373 1.76073 7.32107 1.83649C7.3584 1.91225 7.38952 1.96344 7.41648 1.98801C7.4476 2.01872 7.5036 2.05148 7.58657 2.08629C7.66746 2.1211 7.71517 2.13133 7.72969 2.11905C7.77117 2.0781 7.76288 1.99005 7.7048 1.85696C7.6405 1.70135 7.53056 1.54778 7.37708 1.39626C7.28166 1.30207 7.17588 1.24679 7.0618 1.23041C6.92075 1.20993 6.76727 1.22836 6.60134 1.28365C6.4437 1.33279 6.31925 1.4024 6.22799 1.4925C6.01227 1.70544 5.86086 1.99415 5.77582 2.36066C5.69285 2.74151 5.6887 3.17149 5.75922 3.65267C5.86085 4.31198 6.1139 4.95901 6.51836 5.5958C6.73408 5.93774 6.93528 6.28378 7.12196 6.63801C7.26715 6.91033 7.3501 7.05571 7.37085 7.07618L7.37292 7.07823ZM3.49629 5.22929C3.52947 5.26205 3.66015 5.31938 3.88623 5.39719C4.20358 5.50571 4.48359 5.61627 4.72835 5.72889C4.93577 5.82717 5.19297 5.99098 5.49995 6.22235C5.65136 6.33497 5.98115 6.5991 6.48932 7.01476C6.59303 7.10075 6.69882 7.18675 6.8046 7.27275C6.87927 7.33213 6.92906 7.35055 6.95187 7.32598C6.98298 7.29527 6.9249 7.20723 6.77556 7.0598C6.74445 7.02909 6.69882 6.98609 6.63867 6.93285C6.57852 6.87962 6.53496 6.83867 6.50592 6.81L6.47481 6.77929C6.08694 6.39639 5.78203 6.06469 5.56009 5.78417C5.3672 5.53642 5.28631 5.39923 5.31742 5.36852C5.34646 5.33986 5.40246 5.36852 5.48958 5.45452C5.48128 5.44633 5.52691 5.49956 5.62647 5.61218C5.74055 5.74118 5.87122 5.87836 6.01642 6.02783C6.10353 6.11997 6.23214 6.26535 6.39807 6.46601C6.55363 6.65029 6.676 6.78543 6.76519 6.87347C7.08876 7.19494 7.263 7.34236 7.28789 7.31984L7.29618 7.31165C7.34596 7.26251 7.30655 7.16218 7.18003 7.01066C6.98713 6.78952 6.79215 6.57044 6.59511 6.3493C6.3545 6.06878 6.15332 5.78008 5.99568 5.47909C5.94175 5.37466 5.76544 4.97744 5.46883 4.29151C5.26556 3.82057 5.15148 3.57077 5.12245 3.5421C5.08719 3.50729 5.03533 3.48886 4.97104 3.48886C4.90674 3.48886 4.85902 3.5032 4.82998 3.53186C4.80924 3.55234 4.7885 3.60967 4.76983 3.70181C4.75117 3.796 4.73042 3.85128 4.71383 3.86971C4.69723 3.88404 4.65575 3.88609 4.58523 3.8738C4.48982 3.85538 4.39234 3.839 4.29693 3.81852C4.03351 3.77552 3.8738 3.78166 3.81779 3.83695C3.77216 3.87995 3.74934 3.93114 3.74727 3.99052C3.74727 4.02123 3.75348 4.09085 3.768 4.20346C3.77008 4.21984 3.78875 4.34065 3.82193 4.56383C3.83853 4.65188 3.83853 4.70102 3.82609 4.7133C3.80949 4.72764 3.75349 4.74606 3.65393 4.76449C3.55437 4.78292 3.49629 4.7993 3.47763 4.81773C3.42785 4.86687 3.40503 4.93444 3.40917 5.02044C3.41332 5.10643 3.44236 5.17605 3.49629 5.22929ZM1.19811 7.5676C1.28107 7.6495 1.37026 7.72116 1.46567 7.78668C1.56316 7.85016 1.61087 7.88292 1.61294 7.88702C1.61917 7.89316 1.62953 7.90544 1.64405 7.92592C1.66272 7.94435 1.67724 7.95868 1.68969 7.97301C1.82036 8.09996 1.91576 8.13477 1.97799 8.07334C2.06095 7.99144 2.0257 7.87473 1.87221 7.72321C1.78925 7.64131 1.67102 7.55941 1.51753 7.4775C1.36404 7.3956 1.2707 7.33827 1.23752 7.30551C1.18151 7.24818 1.16285 7.15194 1.18566 7.01885C1.20848 6.88371 1.25204 6.78543 1.31634 6.72195C1.57146 6.47011 2.00496 6.34725 2.62099 6.34725C3.25984 6.3534 4.03765 6.49468 4.95444 6.77519C5.28631 6.87757 5.62025 7.01476 5.95627 7.18675C6.24043 7.33622 6.47896 7.47546 6.66979 7.6065C6.73409 7.6495 6.77556 7.67407 6.79423 7.68226C6.83572 7.6925 6.8855 7.68226 6.9415 7.65155C6.93321 7.61674 6.91868 7.59012 6.89794 7.56964C6.88135 7.55326 6.8212 7.51436 6.71541 7.45089C6.56815 7.3567 6.43747 7.2707 6.32547 7.19699C6.17198 7.07004 5.865 6.85709 5.40245 6.5561C4.53752 6.05036 3.74105 5.78213 3.01301 5.75141C2.30572 5.7248 1.73947 5.92341 1.31426 6.34316C1.11099 6.54382 1.00105 6.75881 0.980309 6.98814C0.961641 7.21746 1.03217 7.41198 1.19188 7.56964L1.19811 7.5676Z" fill="#4B3205"/>
<path d="M4.48788 3.32713C4.5418 3.38037 4.59159 3.38651 4.63515 3.34146C4.6787 3.29846 4.74507 3.18994 4.83011 3.01795C4.93382 2.80705 5.0396 2.59615 5.14539 2.38321C5.52081 1.64199 5.75105 1.14648 5.83401 0.894634C5.95639 0.521979 5.93772 0.257844 5.78008 0.10223C5.61415 -0.0615743 5.41503 -0.0288134 5.18064 0.20256C5.08731 0.2947 4.99605 0.530169 4.90479 0.90692C4.83427 1.20586 4.74092 1.70956 4.62477 2.41392C4.61439 2.46511 4.57292 2.67806 4.5024 3.05685C4.47128 3.21656 4.46506 3.30461 4.48788 3.32508V3.32713ZM4.01289 3.36603C4.06475 3.41722 4.11659 3.41518 4.1726 3.36194C4.19541 3.33942 4.22238 3.19813 4.25557 2.94219C4.29498 2.6371 4.32401 2.26445 4.3406 1.82627C4.3572 1.53961 4.36964 1.25091 4.38001 0.964251C4.37794 0.74721 4.32609 0.589548 4.2286 0.491266C4.15186 0.417554 4.05852 0.37865 3.94652 0.376603C3.83244 0.376603 3.73494 0.415506 3.65198 0.497409C3.5213 0.624357 3.46323 0.800447 3.4736 1.01954C3.47567 1.11987 3.52131 1.35943 3.60635 1.74232C3.83244 2.77429 3.96933 3.31485 4.01703 3.36194L4.01289 3.36603ZM1.9242 2.50401C1.96153 2.54087 2.07353 2.61663 2.26435 2.73129C2.48836 2.85824 2.71031 2.98724 2.93432 3.11623C3.19152 3.26366 3.3927 3.3947 3.53582 3.51551C3.61672 3.58512 3.66857 3.62607 3.69554 3.63426C3.72873 3.65269 3.75984 3.64655 3.78888 3.61993C3.81792 3.59127 3.82413 3.5626 3.80754 3.53189C3.80547 3.53189 3.77643 3.49093 3.7225 3.41722C3.58976 3.23499 3.38441 2.92991 3.10647 2.50197C2.9032 2.18459 2.74557 1.9696 2.63564 1.86108C2.50289 1.73004 2.36392 1.66042 2.21665 1.65223C2.06938 1.64404 1.94079 1.69318 1.82878 1.80375C1.74166 1.88975 1.7064 2.00031 1.72507 2.13341C1.74374 2.2665 1.81011 2.3914 1.92834 2.50606L1.9242 2.50401ZM0.424558 4.33862C0.509599 4.42257 0.677617 4.45943 0.926518 4.44305C1.06134 4.43281 1.37868 4.38572 1.87648 4.30381C2.82438 4.14615 3.33879 4.03149 3.41553 3.95368C3.45494 3.91478 3.45908 3.85745 3.43211 3.78374L3.27655 3.72231C2.9592 3.71617 2.6066 3.69979 2.2208 3.67317C1.80597 3.64245 1.56121 3.62607 1.49276 3.62403C0.920291 3.60765 0.5345 3.69979 0.33123 3.90045C0.215076 4.01511 0.246179 4.16049 0.424558 4.33862ZM0.113431 5.81491C0.225437 5.92548 0.376853 5.97872 0.567677 5.97462C0.758501 5.97053 0.970065 5.90091 1.2003 5.76577C2.53814 4.98975 3.24959 4.55771 3.33463 4.47376C3.43627 4.37343 3.46116 4.29767 3.4093 4.24648C3.36782 4.20553 3.25166 4.20758 3.05876 4.25467C2.97787 4.2731 2.71238 4.34681 2.26021 4.48195C1.40358 4.73175 0.963848 4.8628 0.947255 4.87099C0.575977 4.99589 0.312557 5.13512 0.156994 5.28869C-0.0359044 5.47911 -0.0504284 5.65315 0.113431 5.81491Z" fill="#4B3205"/>
<path d="M5.24746 8.53393C5.24746 8.38036 5.23087 8.25546 5.19768 8.15513C5.1645 8.0548 5.10435 7.96266 5.01723 7.87666C4.93634 7.79885 4.84092 7.73743 4.72892 7.69443C4.61691 7.65143 4.49868 7.62891 4.37631 7.62891C4.25393 7.62891 4.13778 7.64733 4.02784 7.68624C3.91791 7.72514 3.82458 7.78247 3.74784 7.85823C3.66694 7.93809 3.6213 8.03023 3.61093 8.13261C3.60056 8.23703 3.62961 8.32098 3.69391 8.3865C3.73331 8.42541 3.78102 8.44588 3.83702 8.44998C3.89095 8.45407 3.93658 8.43769 3.97599 8.39879C4.01333 8.36193 4.02992 8.3046 4.02577 8.22884C3.99673 8.27593 3.98014 8.30255 3.97391 8.30869C3.9511 8.33122 3.92207 8.34146 3.89095 8.33941C3.85777 8.33941 3.82873 8.32508 3.80177 8.29846C3.75821 8.25546 3.73746 8.20017 3.74161 8.13465C3.74576 8.06913 3.77273 8.0118 3.82458 7.96061C3.88681 7.89918 3.95733 7.86847 4.03615 7.86847C4.11497 7.86847 4.18548 7.89918 4.24771 7.96061C4.33067 8.04251 4.36801 8.1408 4.36178 8.25751C4.35556 8.37626 4.30372 8.55031 4.20416 8.78168C4.11289 8.98848 4.06934 9.16253 4.07556 9.29971C4.08178 9.43895 4.13363 9.5577 4.23319 9.65599C4.30163 9.72356 4.37839 9.76246 4.46343 9.77065C4.54847 9.77884 4.63766 9.75632 4.73307 9.70103C4.79944 9.99383 4.94049 10.2457 5.15827 10.4627C5.29517 10.5979 5.45488 10.7084 5.63533 10.7985C5.81786 10.8886 6.00868 10.948 6.20573 10.9767C6.40278 11.0074 6.61227 11.0074 6.83006 10.9767C7.01259 10.95 7.19304 10.8886 7.37142 10.7944C7.5498 10.7002 7.70744 10.5856 7.84849 10.4484C7.92316 10.3747 7.98538 10.2969 8.03516 10.215L7.95426 10.1535C7.89204 10.2354 7.84019 10.2948 7.79663 10.3378C7.60788 10.5242 7.38386 10.6531 7.12667 10.7269C6.86947 10.8006 6.61435 10.8067 6.36337 10.7473C6.11239 10.688 5.89668 10.5692 5.71623 10.3931C5.55652 10.2334 5.44658 10.0573 5.3885 9.86074C5.33043 9.66622 5.32628 9.47171 5.37398 9.28128C5.42376 9.09086 5.52332 8.92091 5.67267 8.77349C5.79089 8.65678 5.92364 8.57283 6.07298 8.52164C6.22232 8.47045 6.36753 8.46021 6.51272 8.48888C6.65791 8.51755 6.78028 8.58307 6.88191 8.6834C7.00844 8.8083 7.07274 8.95572 7.07481 9.12362C7.07481 9.29357 7.01467 9.43895 6.88814 9.56385C6.80103 9.64984 6.70976 9.69899 6.61435 9.71127C6.51894 9.72356 6.44012 9.69899 6.37789 9.63756C6.33226 9.59251 6.30944 9.54132 6.31359 9.48194C6.31567 9.42257 6.34471 9.36728 6.39656 9.31609C6.41938 9.29357 6.45671 9.269 6.50649 9.24647C6.36544 9.13386 6.24929 9.12157 6.15803 9.21167C6.09995 9.269 6.07713 9.34271 6.08958 9.4369C6.09995 9.53109 6.14558 9.61504 6.22025 9.6908C6.32603 9.79317 6.45049 9.84231 6.59775 9.83208C6.74295 9.82184 6.87777 9.75632 7.00222 9.63551C7.11008 9.52904 7.18059 9.40004 7.21585 9.25262C7.25111 9.10315 7.24697 8.95367 7.20341 8.80216C7.15985 8.65268 7.08312 8.51959 6.96696 8.40698C6.83007 8.27184 6.65583 8.18584 6.44634 8.15308C6.23685 8.12032 6.02321 8.1367 5.80749 8.20632C5.59178 8.27389 5.40718 8.38241 5.25577 8.53188L5.24746 8.53393ZM4.70818 9.56589C4.57543 9.65189 4.45305 9.63961 4.34105 9.52904C4.26638 9.45533 4.22904 9.36319 4.23319 9.25671C4.23526 9.15024 4.27675 9.00691 4.35557 8.82877C4.43231 8.64654 4.47794 8.52164 4.49453 8.45407C4.51113 8.3865 4.51735 8.30869 4.51113 8.22474C4.49454 8.10599 4.43853 7.99132 4.34105 7.8869C4.45305 7.91966 4.53603 7.96266 4.59203 8.01794C4.70196 8.12646 4.76418 8.27798 4.7787 8.47045C4.78699 8.55645 4.7704 8.73663 4.73099 9.01305C4.7144 9.09905 4.70402 9.19529 4.69988 9.29766C4.69573 9.40004 4.69781 9.49014 4.7061 9.56589H4.70818Z" fill="#4B3205"/>
<path d="M7.94008 6.09315C7.86955 6.30815 7.85297 6.517 7.88616 6.7238C7.92142 6.9306 8.00646 7.10055 8.14335 7.23774C8.25743 7.35035 8.39225 7.42816 8.54367 7.47116C8.69716 7.51211 8.84857 7.51825 8.99999 7.48344C9.1514 7.44863 9.28 7.37902 9.38786 7.27254C9.51024 7.15174 9.5766 7.01865 9.58697 6.87327C9.59734 6.72994 9.54756 6.60504 9.44385 6.50062C9.36918 6.4269 9.28207 6.3839 9.18666 6.37162C9.09125 6.35933 9.01451 6.38186 8.9585 6.43919C8.86724 6.52928 8.87761 6.64599 8.99376 6.78523C9.01865 6.73608 9.04147 6.69923 9.06429 6.67671C9.11614 6.62552 9.17215 6.59685 9.2323 6.5948C9.29245 6.59276 9.34638 6.61323 9.38994 6.66033C9.45216 6.72175 9.47705 6.79956 9.4646 6.89375C9.45216 6.98793 9.4003 7.07803 9.31526 7.16402C9.18873 7.28892 9.04147 7.35035 8.86932 7.3483C8.69923 7.3483 8.54989 7.28278 8.42336 7.15788C8.32173 7.05755 8.25535 6.93675 8.22631 6.79342C8.19727 6.65009 8.20765 6.50676 8.25951 6.35933C8.31136 6.21396 8.3964 6.08087 8.51463 5.96416C8.66397 5.81673 8.83612 5.71845 9.02902 5.66931C9.22192 5.62017 9.41897 5.62631 9.61601 5.68364C9.81306 5.74097 9.99352 5.84949 10.1532 6.00715C10.3316 6.18529 10.4519 6.39619 10.5121 6.64599C10.5722 6.89375 10.5639 7.1456 10.4913 7.39949C10.4167 7.65339 10.286 7.87453 10.0972 8.06085C10.0557 8.10385 9.99351 8.15504 9.91054 8.21647L9.97278 8.29632C10.0557 8.24513 10.1346 8.18575 10.2092 8.11204C10.3482 7.97486 10.4643 7.81719 10.5598 7.6411C10.6531 7.46501 10.7153 7.28688 10.7423 7.10669C10.7734 6.8917 10.7734 6.68694 10.7423 6.49038C10.7133 6.29586 10.6531 6.10749 10.5618 5.9273C10.4706 5.74916 10.3586 5.5915 10.2217 5.45636C10.0039 5.24137 9.74669 5.10009 9.45008 5.03661C9.50609 4.94243 9.53098 4.85438 9.52061 4.77043C9.51024 4.68648 9.4729 4.61072 9.40238 4.54315C9.30282 4.44487 9.18252 4.39163 9.04148 4.38549C8.90043 4.37935 8.72619 4.42235 8.5167 4.51244C8.28232 4.61072 8.10602 4.66396 7.98571 4.66805C7.86749 4.6742 7.76792 4.63734 7.68496 4.55544C7.62273 4.49401 7.59162 4.42439 7.59162 4.34659C7.59162 4.26878 7.62273 4.19916 7.68496 4.13774C7.73681 4.08655 7.79489 4.05993 7.86127 4.05583C7.92764 4.05174 7.98157 4.07221 8.0272 4.11521C8.05416 4.14183 8.06869 4.1705 8.06869 4.20326C8.06869 4.23602 8.06038 4.26264 8.03757 4.28516C8.03135 4.2913 8.00438 4.30973 7.9546 4.33635C8.03134 4.34044 8.08942 4.32406 8.12676 4.28721C8.16617 4.25035 8.18069 4.20326 8.17861 4.15002C8.17446 4.09474 8.15165 4.04764 8.11431 4.01079C8.04794 3.94527 7.9629 3.91865 7.85712 3.92889C7.75341 3.93912 7.66006 3.98212 7.57917 4.06402C7.50243 4.13978 7.44436 4.23192 7.40495 4.34044C7.36554 4.44896 7.34686 4.56363 7.34686 4.68443C7.34686 4.80524 7.36968 4.9199 7.41324 5.03252C7.4568 5.14309 7.51903 5.23932 7.59784 5.31713C7.68496 5.40313 7.77829 5.4625 7.87993 5.49527C7.98156 5.52803 8.1081 5.54441 8.26366 5.54441C8.11224 5.69388 8.00231 5.87406 7.93386 6.08906L7.94008 6.09315ZM9.04354 5.01C8.93983 5.01409 8.84235 5.02433 8.75524 5.04071C8.47522 5.07961 8.29269 5.09394 8.20558 5.0878C8.0106 5.07347 7.85711 5.01204 7.74718 4.90352C7.69118 4.84824 7.64763 4.76634 7.61444 4.65577C7.7223 4.752 7.8343 4.80729 7.95667 4.82367C8.04379 4.82776 8.12261 4.82367 8.18898 4.80729C8.25743 4.79091 8.38396 4.74586 8.56856 4.6701C8.74901 4.59229 8.89213 4.55134 9.00207 4.5493C9.10992 4.5452 9.20118 4.58206 9.27792 4.65577C9.38993 4.76634 9.40237 4.88714 9.31526 5.01818C9.23851 5.00999 9.14725 5.00795 9.04354 5.01204V5.01Z" fill="#4B3205"/>
<path d="M3.42887 19.0031C2.46645 18.739 1.61812 18.1309 1.07676 17.0846C-0.225826 14.5702 0.921192 10.946 4.13617 10.9276C5.74988 10.9194 6.78903 12.4612 6.42398 13.9702C6.12737 15.207 4.81649 16.0321 3.76696 15.1701C3.70266 15.121 3.64043 15.0677 3.58443 15.0022C3.20278 14.5661 3.19657 13.9539 3.56992 13.6344C3.94535 13.315 4.55722 13.4092 4.93887 13.8474C5.15251 14.0911 5.24377 14.3879 5.22096 14.6603C5.54868 14.6275 5.92825 14.347 5.97388 13.8863C6.0527 13.1307 5.56528 12.3895 4.87665 12.109C3.94949 11.7323 2.61994 11.8121 1.84213 12.4981C0.0355206 14.0911 1.45011 17.2156 3.44754 17.9261C4.72316 18.3786 6.16263 18.2578 7.35736 17.6702C6.96119 17.6088 6.5671 17.5002 6.18338 17.3549C6.07552 17.3139 5.79343 17.1399 5.8681 16.8409C5.94692 16.5235 6.23108 16.5297 6.29745 16.5584C6.89689 16.8245 7.61457 17.0334 8.31564 17.0457C8.80514 16.6403 9.21375 16.1366 9.49169 15.5428C10.4251 13.5484 9.30708 10.9071 8.08539 9.24654C8.0128 9.14825 7.9568 8.9394 8.02525 8.70598C8.0294 8.61998 8.09577 8.50737 8.19533 8.42547C8.27208 8.3538 8.35919 8.31285 8.42971 8.31695C8.67239 8.25961 8.87151 8.30875 8.96692 8.37837C10.6491 9.58438 13.3268 10.688 15.345 9.76457C15.9465 9.4902 16.4568 9.08683 16.8675 8.6036C16.855 7.90948 16.6435 7.20103 16.3738 6.61133C16.3448 6.54581 16.3385 6.26529 16.66 6.18749C16.9629 6.11378 17.1413 6.39224 17.1807 6.49871C17.3279 6.87751 17.4358 7.26655 17.5001 7.65763C18.0954 6.47824 18.2198 5.05724 17.7594 3.79799C17.0396 1.82619 13.8744 0.431807 12.2607 2.21318C11.5659 2.98101 11.485 4.2935 11.8666 5.20875C12.1508 5.8865 12.9016 6.36972 13.667 6.29191C14.1337 6.24482 14.4179 5.87216 14.4531 5.54865C14.1773 5.57117 13.8765 5.48108 13.6297 5.27018C13.1879 4.89343 13.0904 4.28735 13.414 3.91879C13.7375 3.55023 14.3577 3.55638 14.7995 3.93313C14.8638 3.98841 14.9198 4.04984 14.9696 4.11331C15.8428 5.14938 15.0049 6.44343 13.7541 6.73623C12.2234 7.09455 10.6615 6.06873 10.6719 4.47778C10.6906 1.30407 14.3619 0.171767 16.9089 1.45763C17.9688 1.99204 18.5849 2.83154 18.8524 3.77956C19.3108 2.71278 19.9704 1.75658 21.0283 1.2754C22.6918 0.517804 24.5315 1.39006 24.7556 3.22058C24.9588 4.88524 22.532 6.00321 21.4037 4.7931C20.041 3.33319 22.5341 2.06371 23.1211 3.62804C23.1211 3.63009 23.1211 3.63418 23.1211 3.63623C23.2061 3.92084 23.0858 4.20955 22.8432 4.29145C22.5922 4.3754 22.3101 4.2075 22.2105 3.91675C22.1525 3.74475 22.1711 3.57071 22.2458 3.43967C22.0239 3.26562 21.7293 3.35367 21.6858 3.76523C21.6588 4.01503 21.8206 4.28121 21.9368 4.48392C22.4657 5.39713 23.4924 4.80539 23.8782 4.13788C24.4361 3.17144 23.7517 1.91219 22.8535 1.43511C21.5095 0.720512 20.267 2.18247 19.8169 3.23082C19.5183 3.93108 19.2299 4.63953 18.9956 5.36437C18.896 6.57243 18.365 7.79277 17.5499 8.71212C17.4897 9.47996 17.2035 10.2109 16.6082 10.8272C15.7246 11.7405 14.1669 12.0169 12.941 11.9084C12.4764 11.8674 12.8124 11.6115 13.107 11.6381C14.4158 11.7548 15.7018 11.2736 16.4464 10.1802C16.6061 9.94475 16.714 9.69086 16.7803 9.42467C14.5402 11.0996 11.6405 10.7924 9.27183 9.55367C10.5267 11.892 10.8378 14.7545 9.14116 16.9658C9.4108 16.8983 9.668 16.7938 9.90653 16.6341C11.0141 15.899 11.5016 14.6296 11.3833 13.3376C11.3564 13.0468 11.6157 12.7151 11.6571 13.1737C11.7671 14.3818 11.4891 15.9195 10.562 16.7918C9.93763 17.3794 9.19716 17.662 8.41935 17.7234C7.48804 18.5281 6.25182 19.0523 5.02806 19.1506C4.2938 19.384 3.57406 19.6665 2.86469 19.9614C1.80064 20.4057 0.321751 21.6322 1.04564 22.959C1.52892 23.8436 2.80454 24.5213 3.78355 23.9705C4.45974 23.5897 5.05917 22.5761 4.13409 22.054C3.92875 21.9373 3.66118 21.7796 3.40605 21.8062C2.99122 21.8492 2.90203 22.1379 3.07627 22.3591C3.21109 22.2854 3.38738 22.2649 3.55954 22.3243C3.85407 22.4226 4.02416 22.7031 3.93912 22.9508C3.85822 23.1904 3.56369 23.3091 3.27538 23.2252C3.2733 23.2252 3.27123 23.2252 3.26709 23.2252C1.68242 22.6457 2.9684 20.1846 4.44729 21.5298C5.67106 22.6437 4.53856 25.0393 2.85433 24.8387C0.997938 24.6175 0.11434 22.8014 0.88386 21.1592C1.37337 20.115 2.33993 19.4638 3.42265 19.0113L3.42887 19.0031Z" fill="#4B3205"/>
<path d="M1.09852 25.2096V35.648C1.09852 36.1128 1.42003 36.1333 1.42003 35.6153C1.42003 33.019 1.74152 29.8473 2.25799 28.027C2.68112 26.5344 2.21443 26.2702 1.44906 25.1297C1.32253 24.9393 1.1006 24.9147 1.1006 25.2116L1.09852 25.2096Z" fill="#4B3205"/>
<path d="M25.0691 1.20782H35.6432C36.1141 1.20782 36.1348 1.5252 35.61 1.5252C32.98 1.5252 29.7671 1.84257 27.9211 2.35241C26.409 2.77011 26.1414 2.30941 24.9861 1.55386C24.7932 1.42896 24.7683 1.20987 25.0691 1.20987V1.20782Z" fill="#4B3205"/>
</svg>
