<svg width="20" height="20" viewBox="0 0 20 20" fill="none" xmlns="http://www.w3.org/2000/svg">
<path d="M6.6665 15V5L16.6665 2.5V13.3333" stroke="#FAF9F5" stroke-width="1.5" stroke-linejoin="round"/>
<path fill-rule="evenodd" clip-rule="evenodd" d="M4.95583 17.0921C3.73278 17.5372 2.50072 17.2371 2.20395 16.4217C1.90718 15.6064 2.65808 14.5845 3.88113 14.1394C5.10419 13.6942 6.33625 13.9943 6.63302 14.8097C6.92979 15.6251 6.17889 16.6469 4.95583 17.0921Z" stroke="#FAF9F5" stroke-width="1.5"/>
<path fill-rule="evenodd" clip-rule="evenodd" d="M14.9558 15.4254C13.7328 15.8705 12.5007 15.5704 12.2039 14.7551C11.9072 13.9397 12.6581 12.9178 13.8811 12.4727C15.1042 12.0275 16.3362 12.3276 16.633 13.143C16.9298 13.9584 16.1789 14.9802 14.9558 15.4254Z" stroke="#FAF9F5" stroke-width="1.5"/>
</svg>
