<svg width="32" height="32" viewBox="0 0 32 32" fill="none" xmlns="http://www.w3.org/2000/svg">
<rect x="0.5" y="0.5" width="31" height="31" rx="15.5" fill="white"/>
<path d="M13.3335 20V12L21.3335 10V18.6667" stroke="#E39C28" stroke-linejoin="round"/>
<path fill-rule="evenodd" clip-rule="evenodd" d="M11.9648 21.6737C10.9863 22.0298 10.0007 21.7897 9.76326 21.1374C9.52584 20.4852 10.1266 19.6677 11.105 19.3115C12.0834 18.9554 13.0691 19.1955 13.3065 19.8478C13.5439 20.5001 12.9432 21.3176 11.9648 21.6737Z" stroke="#E39C28"/>
<path fill-rule="evenodd" clip-rule="evenodd" d="M19.9648 20.3403C18.9863 20.6965 18.0007 20.4564 17.7633 19.8041C17.5258 19.1518 18.1266 18.3343 19.105 17.9782C20.0834 17.622 21.0691 17.8621 21.3065 18.5144C21.5439 19.1667 20.9432 19.9842 19.9648 20.3403Z" stroke="#E39C28"/>
<rect x="0.5" y="0.5" width="31" height="31" rx="15.5" stroke="#E49C28"/>
</svg>
