<svg width="100" height="113" viewBox="0 0 100 113" fill="none" xmlns="http://www.w3.org/2000/svg">
<g clip-path="url(#clip0_1_2)">
<path d="M62.2294 71.5933C52.9202 52.9776 23.2452 72.7944 34.811 91.2496C47.0362 106.836 75.6971 92.1161 62.2294 71.5933Z" fill="#E49C28"/>
<path d="M95.9508 5.01077C87.5347 1.22311 77.9639 8.76066 70.3282 11.8592C65.9238 15.1706 62.3149 28.1354 70.2456 28.9655C87.4018 30.7608 97.2187 21.0062 95.9508 5.01077Z" fill="#E49C28"/>
<path d="M97.7772 1.33823C97.7776 1.33702 97.778 1.3358 97.7784 1.33459C97.8757 1.06194 97.8105 0.755961 97.6136 0.543695C97.0806 -0.030493 96.1915 -0.17712 95.4774 0.235496C92.1516 1.83365 88.4201 2.46903 84.4537 3.19409C68.966 5.47771 61.8237 11.8857 64.0507 28.1271C64.5074 41.7289 63.7638 55.4642 64.0085 69.091C54.7125 56.8911 32.2707 60.4897 30.0803 80.852C28.8271 104.854 67.4252 107.185 68.0008 82.7548C68.0392 81.1104 67.9378 79.5629 67.714 78.1124C67.6253 75.69 67.5599 73.1586 67.5692 70.8257C67.4619 58.094 68.3894 44.1091 69.0443 31.3374C69.6753 26.5542 68.5437 21.0733 70.5239 16.5963C74.3702 8.53062 89.0468 9.56327 95.331 4.62017C95.0799 11.3495 94.9749 23.7245 83.2165 25.1593C81.4547 25.3317 80.1991 27.0222 80.5497 28.7597C81.5329 32.76 86.2597 30.7987 88.8111 29.5599C98.7452 24.4281 100.725 11.1649 97.7772 1.33823ZM62.9262 82.3918C62.0375 98.9583 33.1579 97.3965 33.4887 81.0982C35.0855 60.1445 64.6576 60.7587 62.9262 82.3918Z" fill="#25356D"/>
<path d="M44.2054 49.6151C46.0288 49.7469 47.5863 48.1785 47.4336 46.3541C46.8063 40.4947 35.5288 45.421 32.5702 47.1143C29.1228 49.1239 26.0774 52.0114 24.3005 55.5991C23.5494 57.0129 25.6597 58.3458 26.613 57.0435C28.7094 54.4024 31.4666 52.382 34.5769 51.1427C37.6179 49.9259 40.9627 49.4179 44.2054 49.6151Z" fill="#25356D"/>
<path d="M20.4864 18.7988C27.4655 15.082 36.062 14.5268 43.604 16.7314C45.9332 17.3866 46.6987 13.8395 44.3561 13.3982C26.3563 7.75144 2.32059 16.6266 0.97691 37.6064C0.834322 39.4653 3.60266 40.1108 4.30772 38.3702C6.24457 34.6827 8.04328 31.2089 10.547 27.9856C13.3174 24.4558 16.481 21.027 20.4864 18.7988Z" fill="#25356D"/>
<path d="M44.2704 34.2041C48.4002 35.3438 49.7516 28.9073 45.5307 28.2736C32.0368 26.301 19.0369 34.5331 12.7111 46.1891C10.9948 49.0631 15.7495 51.1664 16.7347 47.9894C17.1204 46.6391 17.7473 45.359 18.5031 44.1596C23.904 36.1017 34.8578 31.5399 44.2704 34.2041Z" fill="#25356D"/>
</g>
<path d="M87 99.0003C87 91.8201 81.1796 86.0001 74.0001 86.0001C66.8204 86.0001 61 91.82 61 99.0003C61 106.18 66.8204 112 74.0001 112C81.1796 112 87 106.18 87 99.0003Z" fill="#E04F5F" stroke="#FAF9F5" stroke-width="2"/>
<path d="M75.401 99.0001L78.9093 94.9274C79.2919 94.4833 79.2419 93.8129 78.7976 93.4303C78.3539 93.048 77.6835 93.0977 77.3006 93.5418L73.9999 97.3735L70.6996 93.5418C70.3169 93.0974 69.6465 93.0477 69.2023 93.4303C68.7579 93.8129 68.7082 94.4833 69.0908 94.9274L72.5988 99.0001L69.0908 103.073C68.7082 103.517 68.7579 104.187 69.2023 104.57C69.4027 104.742 69.6493 104.827 69.8947 104.827C70.1928 104.827 70.4894 104.702 70.6996 104.458L73.9999 100.627L77.3006 104.458C77.5104 104.702 77.807 104.827 78.1054 104.827C78.3506 104.827 78.5972 104.742 78.7976 104.57C79.2419 104.187 79.292 103.517 78.9093 103.073L75.401 99.0001Z" fill="white"/>
<defs>
<clipPath id="clip0_1_2">
<rect width="100" height="100" fill="white"/>
</clipPath>
</defs>
</svg>
