<svg width="100" height="100" viewBox="0 0 100 100" fill="none" xmlns="http://www.w3.org/2000/svg">
<g clip-path="url(#clip0_1546_7419)">
<path d="M97.666 26.5045C96.4457 19.8619 95.1118 12.0423 86.797 11.747C77.4404 9.13563 69.7266 11.589 60.2909 11.0144C46.1287 10.152 28.8434 10.3795 14.1845 11.2474C5.18969 11.7798 3.6831 23.778 2.35144 31.2928C1.23237 37.6072 29.581 32.8103 36.851 32.9119C60.3723 33.2409 68.7459 32.9927 91.0872 34.0383C91.0524 34.0336 91.0174 34.0288 90.9826 34.0242C95.1492 34.7726 98.8469 30.5975 97.666 26.5045Z" fill="#E49C28"/>
<path d="M47.6434 49.2337C45.429 48.6878 43.0699 48.3663 40.8267 47.9967C35.8461 47.4687 36.3272 55.1691 41.2043 54.0243C43.3843 53.3775 45.6838 52.7643 47.8133 51.9462C49.0364 51.4801 48.94 49.5488 47.6434 49.2337Z" fill="#25356D"/>
<path d="M29.9386 68.1588C29.9777 66.2431 27.6697 66.7365 26.3938 66.4724C24.1802 66.196 21.9942 65.6243 19.842 65.0196C15.2679 63.9021 14.4315 71.0443 19.1375 71.0179C21.4815 70.7887 29.3468 70.7993 29.9386 68.1588Z" fill="#25356D"/>
<path d="M19.4497 54.331C21.9808 54.5581 24.6886 55.2594 27.2158 55.13C31.1258 54.2559 29.8187 48.3079 25.9057 49.1473C22.9964 49.7984 19.9339 50.4136 17.0628 51.2415C15.7243 51.6107 15.802 53.7108 17.1953 53.956C17.9484 54.115 18.6991 54.2207 19.4497 54.331Z" fill="#25356D"/>
<path d="M63.754 62.8133C60.9363 63.1132 58.0949 63.4363 55.3647 64.2333C54.058 64.6047 54.0894 66.6422 55.4422 66.9437C56.1138 67.1183 56.7787 67.2507 57.4396 67.3995C59.7261 67.7483 62.0663 68.7976 64.3749 68.9198C68.368 68.4962 67.7464 62.4248 63.754 62.8133Z" fill="#25356D"/>
<path d="M60.2076 53.1151C61.5789 53.6134 62.9156 54.5356 64.4397 54.0424C68.4331 52.7864 66.5476 46.7079 62.546 47.9286C61.1057 48.3874 59.5864 48.807 58.1988 49.4292C57.1258 49.9276 57.0523 51.5627 58.0979 52.145C58.6968 52.5066 59.5697 52.8357 60.2076 53.1151Z" fill="#25356D"/>
<path d="M43.6514 63.4806C42.1353 64.1638 40.5279 64.8195 39.0839 65.6611C38.0417 66.28 38.2157 67.9836 39.3853 68.3621C40.1029 68.624 41.1173 68.8098 41.8599 68.9829C43.3043 69.2052 44.7695 69.9061 46.2104 69.272C49.9908 67.582 47.444 61.8244 43.6514 63.4806Z" fill="#25356D"/>
<path d="M23.8151 79.2544C22.3798 79.7348 20.8648 80.1772 19.4844 80.8202C18.4185 81.3342 18.3695 82.9714 19.4244 83.5373C20.0299 83.89 20.9088 84.206 21.5518 84.4758C22.9308 84.9523 24.2812 85.8543 25.7974 85.3392C29.7716 84.0252 27.798 77.9759 23.8151 79.2544Z" fill="#25356D"/>
<path d="M58.9391 84.3511C59.879 83.8406 60.948 83.4217 61.9559 83.0756C63.4259 82.6643 66.4787 82.2523 64.7034 80.1536C62.6023 78.7249 60.1441 78.5581 57.718 78.4365C50.7034 77.9733 53.2431 88.0244 58.9391 84.3511Z" fill="#25356D"/>
<path d="M43.1578 79.0028C41.6701 79.5914 40.0961 80.1474 38.6727 80.8969C37.6164 81.4668 37.6883 83.1475 38.8126 83.6109C39.4835 83.9163 40.4422 84.1643 41.1437 84.3834C42.5633 84.7165 43.9781 85.5105 45.4519 84.9319C49.3235 83.4147 47.0398 77.52 43.1578 79.0028Z" fill="#25356D"/>
<path d="M77.2356 63.3333C71.5827 61.785 71.5438 70.887 77.2209 69.3727C78.6452 68.7179 80.9419 68.365 81.9281 67.139C83.1265 64.6331 78.7662 64.1281 77.2356 63.3333Z" fill="#25356D"/>
<path d="M86.5282 48.866C85.4349 46.5228 82.8187 46.9258 80.9316 48.0161C79.394 48.6635 77.7969 49.1507 76.2401 49.7785C75.8426 49.942 75.5237 50.2784 75.3997 50.7237C74.8874 53.417 79.9974 52.8604 81.7045 53.2489C84.6268 53.8419 87.85 52.2357 86.5282 48.866Z" fill="#25356D"/>
<path d="M95.3397 57.8757C95.3224 59.625 95.2288 63.0878 95.1947 64.8416C95.1329 67.1258 98.6685 67.0672 98.6011 64.8297C98.8096 55.5703 99.0886 46.3363 99.7326 37.1041C99.9728 29.8218 100.474 22.0334 97.1575 15.2982C94.7005 10.0129 88.7039 7.39648 83.074 7.8931C81.815 7.91484 80.531 7.93578 79.2318 7.95571C79.2256 7.71998 79.2169 7.48425 79.2028 7.24851C79.1259 3.09714 75.2711 0.125832 73.4573 5.28516C73.2487 6.23473 73.2509 7.14484 73.3623 8.03905C69.5869 8.08898 65.8037 8.13326 62.2354 8.17473C58.9208 8.18721 55.619 8.22144 52.3233 8.25747C52.5059 6.79658 52.6742 5.33226 52.8037 3.85788C53.2133 -0.493392 46.239 -0.394147 46.765 3.93881C46.94 5.37333 47.068 6.83724 47.186 8.31162C40.2978 8.37906 33.4221 8.40805 26.5001 8.21298C26.3373 8.19788 26.1722 8.18279 26.0061 8.16789C26.0899 5.8311 26.1938 3.92069 26.4969 3.33468C27.0771 -0.945328 20.2018 -1.19576 20.4599 3.10841C20.5537 4.69009 20.6916 6.26553 20.8577 7.83694C13.2808 7.62033 4.92274 8.90125 3.12264 17.2674C3.06225 17.4754 3.04192 17.6714 3.05198 17.855C0.824508 23.3483 0.288022 38.999 0.187166 41.4536C-0.0662805 52.1767 0.235279 62.7081 0.435581 73.3981C0.40478 80.862 -0.734221 90.244 5.64543 95.7405C11.577 100.463 31.9739 99.4221 40.0429 99.6876C43.1042 99.6133 47.5934 99.8218 50.6102 99.7047C66.4252 97.2721 93.7107 107.459 98.6711 85.3834C99.1249 83.3323 95.9229 82.5335 95.364 84.5699C89.1819 102.307 63.7299 90.4266 49.7496 93.7303C36.7365 93.5388 23.4741 95.198 10.5497 93.2356C0.916706 89.0078 6.02067 73.6439 4.01464 65.2083C4.00357 55.7239 3.52103 45.9132 3.90452 36.4328C4.15978 36.5137 4.44725 36.5513 4.77075 36.527C12.2699 36.0507 19.8338 36.0376 27.3452 36.1743C49.8175 36.7019 72.8362 37.8145 95.3274 37.3455C95.5527 37.3449 95.762 37.3217 95.9603 37.2841C95.9522 37.7676 95.9474 38.2411 95.9488 38.7013C95.6086 45.0844 95.489 51.4894 95.3397 57.8757ZM95.0431 31.3135C65.0426 33.3876 34.7719 32.5908 4.72586 32.1328C4.52938 32.1221 4.34659 32.1332 4.17649 32.1616C4.56481 27.4633 5.22913 22.7366 6.3945 18.2172C6.82993 17.1986 7.43023 16.1886 8.20466 15.3967C12.097 12.5367 16.7591 12.6699 21.5468 13.2827C21.8352 15.2521 22.1587 17.2167 22.5016 19.1784C24.7709 22.1721 25.4731 18.4749 25.7678 13.8808C28.8061 14.3096 31.8191 14.6347 34.6445 14.2234C38.9913 14.3811 43.3444 14.3871 47.6983 14.2917C47.8557 15.7683 48.0516 17.2312 48.3242 18.6617C48.5806 20.155 50.9192 20.0626 51.0388 18.5314C51.1825 17.0756 51.3595 15.6272 51.5467 14.1808C59.1936 13.9164 66.8379 13.39 74.4515 12.8737C74.7964 14.6035 74.8874 16.4274 74.0433 18.5043C73.3226 20.5268 76.5131 21.599 77.168 19.5623C77.8909 17.3127 78.5298 14.9832 78.9008 12.6257C82.4203 12.3509 86.0306 11.8232 89.3195 13.1267C95.5412 16.6407 96.1894 24.28 96.1026 31.3866C95.784 31.307 95.4313 31.2779 95.0431 31.3135Z" fill="#25356D"/>
</g>
<defs>
<clipPath id="clip0_1546_7419">
<rect width="100" height="100" fill="white"/>
</clipPath>
</defs>
</svg>
