<svg width="109" height="111" viewBox="0 0 109 111" fill="none" xmlns="http://www.w3.org/2000/svg">
<g clip-path="url(#clip0_1385_8206)">
<path d="M57.7751 86.9472C57.357 71.5825 55.9193 72.9174 41.7788 73.4648C35.7702 73.6974 34.6409 78.4387 34.7806 83.0589C33.3398 95.3753 35.1932 99.6953 46.8493 90.362C52.9955 97.2965 58.572 97.8158 57.7751 86.9472Z" fill="#F77B4D"/>
<path d="M88.3073 49.0913C88.1508 41.2842 87.9135 33.4737 87.4253 25.6803C86.705 18.0272 92.0014 3.02157 80.3254 2.38574C65.8779 4.66801 50.6812 2.56031 35.9239 3.0846C27.6746 2.23563 17.6404 1.17571 13.66 10.47C8.72648 24.098 9.7009 39.2858 11.3384 53.4655C12.8797 60.5342 9.05215 78.5246 15.9133 75.5685C27.9692 70.3745 53.2253 73.4878 72.8575 73.9718C91.7903 74.4382 87.7624 66.003 88.3073 49.0913Z" fill="#E49C28"/>
<path d="M58.0851 75.039C66.8358 75.0901 75.6036 75.6158 84.3309 75.9983C91.9376 75.5126 91.9509 66.4916 91.3437 60.7986C91.0845 56.9323 84.9918 57.464 85.3996 61.3082C86.3519 72.3752 86.0092 70.5074 76.0552 70.3798C64.9822 70.1036 53.7989 70.3786 42.7415 71.4409C38.9016 71.4393 34.4214 70.9556 30.0002 70.8848C30.0403 68.6085 30.2899 54.4262 30.2899 54.4262C30.437 43.4471 31.0852 31.844 30.8889 20.8788C30.667 19.3235 30.9943 8.82132 29.6886 4.41444C29.7161 4.42021 29.7431 4.42458 29.7705 4.43035C36.5173 5.27732 43.3071 5.77438 50.1086 5.82468C58.4372 5.94556 66.7722 5.14988 75.0314 4.28401C78.0126 4.13609 81.4546 3.46427 84.1224 4.93277C89.451 8.99827 86.0344 34.0971 86.1118 41.4767C85.9302 44.3533 90.4198 44.5028 90.4484 41.629C90.5133 33.4595 90.8666 24.9095 90.6799 16.7261C91.2016 -5.48349 77.8903 1.19453 62.4033 1.66335C53.2249 2.21985 44.0217 1.925 34.8864 0.90564C27.0433 -0.356479 18.0202 -1.49672 13.09 6.27978C5.21471 20.0102 9.70728 41.0884 9.59494 56.4714C9.80112 63.624 9.76593 70.7377 9.18915 77.8547C7.5107 84.9321 11.5951 92.2225 19.3658 92.1621C23.3303 92.1474 23.0526 85.8248 19.0779 86.2046C16.6573 86.3509 14.2319 83.8863 14.5327 81.4327C14.6078 80.534 14.6713 79.6347 14.7285 78.7351C15.0544 78.3414 15.4003 77.9686 15.7717 77.6266C17.1488 76.3508 18.8883 75.5076 20.6918 75.0193C25.2277 73.9371 29.8147 74.3741 34.4178 74.8674C34.318 76.3059 34.2023 77.7451 34.0615 79.1888C33.7519 82.7238 33.174 87.5681 32.9235 91.0668C32.6739 94.0712 31.4053 102.13 36.8583 99.131C39.5581 96.9543 42.1963 93.9318 45.6037 93.4097C47.8553 93.5069 49.5491 95.377 51.1888 96.8813C51.8725 97.5706 52.5861 98.3424 53.2502 99.053C54.9155 100.947 58.3589 99.8227 58.5247 97.2591C58.9188 93.1975 59.1548 89.1052 59.0587 85.0121C58.9832 81.6973 58.7022 78.3185 58.0851 75.039ZM26.5807 70.9289C22.2215 71.1343 18.1065 71.993 14.9413 74.4071C15.2912 64.2124 14.6546 53.987 13.9438 43.8387C13.3648 33.9492 12.2939 23.3846 14.5456 13.7235C15.9125 7.24188 20.5426 3.94781 26.4218 4.03827C24.7835 12.6971 24.659 21.5165 25.2609 30.2787C25.6814 35.4835 26.2222 40.8429 26.3067 46.0635C26.4453 50.9321 26.5447 55.9203 26.6202 60.7954C26.6323 62.821 26.6679 65.0955 26.662 67.115C26.8487 68.1401 26.5065 69.6738 26.5807 70.9289ZM53.0148 91.0964C47.3619 86.3609 41.1052 89.0913 36.6106 93.8525C36.7384 87.6242 37.3989 81.4369 37.7775 75.2157C39.7053 75.3973 41.6342 75.5267 43.5622 75.4965C47.07 75.2285 50.5859 75.0938 54.1059 75.0507C53.7265 80.3107 53.4112 85.9205 53.0148 91.0964Z" fill="#25356D"/>
<path d="M87.8763 86.1966C83.0344 86.6507 75.8218 87.2136 71.0463 87.6926C70.4568 87.7558 69.9577 88.2061 69.8569 88.8199C69.8563 91.2922 73.5496 90.4126 75.1999 90.9407C79.4731 91.3654 84.144 91.9362 88.4058 92.1609C92.2842 91.8742 91.7354 85.7968 87.8763 86.1966Z" fill="#25356D"/>
<path d="M57.8308 25.4087C53.2635 26 48.322 25.561 43.7543 26.1153C40.3554 25.831 39.5693 30.0496 43.2588 29.5673C53.2031 28.4366 63.497 32.917 73.1675 29.1293C78.4647 23.8394 60.1972 24.4741 57.8308 25.4087Z" fill="#25356D"/>
</g>
<path d="M108 97.0001C108 89.8199 102.18 84 95.0001 84C87.8204 84 82 89.8198 82 97.0001C82 104.179 87.8204 110 95.0001 110C102.18 110 108 104.179 108 97.0001Z" fill="#E04F5F" stroke="#FAF9F5" stroke-width="2"/>
<path d="M96.401 97L99.9093 92.9273C100.292 92.4832 100.242 91.8128 99.7976 91.4302C99.3539 91.0478 98.6835 91.0976 98.3006 91.5417L94.9999 95.3733L91.6996 91.5417C91.3169 91.0973 90.6465 91.0475 90.2023 91.4302C89.7579 91.8128 89.7082 92.4832 90.0908 92.9273L93.5988 97L90.0908 101.073C89.7082 101.517 89.7579 102.187 90.2023 102.57C90.4027 102.742 90.6493 102.827 90.8948 102.827C91.1928 102.827 91.4894 102.702 91.6996 102.458L94.9999 98.6265L98.3006 102.458C98.5104 102.702 98.8071 102.827 99.1054 102.827C99.3506 102.827 99.5972 102.742 99.7976 102.57C100.242 102.187 100.292 101.517 99.9094 101.073L96.401 97Z" fill="white"/>
<defs>
<clipPath id="clip0_1385_8206">
<rect width="100" height="100" fill="white"/>
</clipPath>
</defs>
</svg>
