<svg width="109" height="109" viewBox="0 0 109 109" fill="none" xmlns="http://www.w3.org/2000/svg">
<g clip-path="url(#clip0_1703_4820)">
<path d="M53.3533 21.0446H63.1737V6.5073C63.1737 3.79544 60.9758 1.59668 58.2639 1.59668C55.552 1.59668 53.3533 3.79461 53.3533 6.5073V21.0446Z" fill="#E49C28"/>
<path d="M55.67 21.0446H45.8496V6.5073C45.8496 3.79544 48.0484 1.59668 50.7602 1.59668C53.4721 1.59668 55.67 3.79461 55.67 6.5073V21.0446Z" fill="#E49C28"/>
<path d="M38.8375 58.3263H48.6363V16.4201C48.6363 13.714 46.4425 11.5203 43.7365 11.5203C41.0313 11.5203 38.8375 13.714 38.8375 16.4201V58.3263Z" fill="#E49C28"/>
<path d="M70.1865 58.3263H60.3877V16.4201C60.3877 13.714 62.5815 11.5203 65.2867 11.5203C67.9927 11.5203 70.1865 13.714 70.1865 16.4201V58.3263Z" fill="#E49C28"/>
<path d="M89.3226 77.7989L85.1729 103.081C85.1729 103.081 81.7932 102.053 77.2618 100.359C70.5907 97.8672 61.4181 93.937 56.8725 89.7308C56.184 89.0963 55.6019 88.4526 55.1511 87.8098C49.7598 80.1166 54.3811 52.588 53.7307 34.9223C53.1486 19.0785 52.5099 12.2369 57.6185 12.2037C58.2048 12.2012 58.8651 12.2868 59.6135 12.4598C66.446 14.039 60.9931 34.1771 68.8809 45.1684C75.5994 54.5306 75.5803 73.5711 75.5803 73.5711L77.2626 74.0891L89.3226 77.7989Z" fill="#E49C28"/>
<path d="M56.8725 89.731C56.184 89.0965 55.6019 88.4528 55.1511 87.81C49.7598 80.1168 54.3811 52.5882 53.7307 34.9224C53.1486 19.0787 52.5099 12.2371 57.6185 12.2039C59.5944 15.7207 59.369 21.6018 58.9723 31.9229C58.9341 32.9258 58.8942 33.9678 58.8534 35.0538C58.6347 41.0098 59.0439 48.3279 59.4372 55.4049C60.2829 70.5484 61.0123 83.6386 56.8725 89.731Z" fill="#E49C28"/>
<path d="M89.3226 77.7991L85.1729 103.081C85.1729 103.081 81.7933 102.053 77.2618 100.359V74.0894L89.3226 77.7991Z" fill="#E49C28"/>
<path d="M81.6261 71.7324H98.0603V107.403H81.6261V71.7324Z" fill="#F77B4D"/>
<path d="M94.1742 71.7324H98.0594V107.403H94.1742V71.7324Z" fill="#F77B4D"/>
<path d="M53.873 87.8099C50.4576 92.6831 39.5902 97.4283 31.9161 100.302C27.3082 102.029 23.8504 103.081 23.8504 103.081L19.7015 77.7991L31.9161 74.0411L33.443 73.5712C33.443 73.5712 33.4238 54.5308 40.1432 45.1686C48.0301 34.1773 42.5773 14.0392 49.4106 12.4599C56.6613 10.7834 55.9412 17.26 55.2934 34.9224C54.643 52.5882 59.2643 80.1168 53.873 87.8099Z" fill="#E49C28"/>
<path d="M31.9161 74.041V100.302C27.3082 102.029 23.8504 103.081 23.8504 103.081L19.7015 77.799L31.9161 74.041Z" fill="#E49C28"/>
<path d="M10.9639 71.7324H27.3972V107.403H10.9639V71.7324Z" fill="#F77B4D"/>
<path d="M23.6991 71.7324H27.3972V107.403H23.6991V71.7324Z" fill="#F77B4D"/>
<path d="M98.0602 86.2739C98.9417 86.2739 99.6569 85.5587 99.6569 84.6772V71.7325C99.6569 70.851 98.9417 70.1358 98.0602 70.1358H81.6269C80.7446 70.1358 80.0302 70.851 80.0302 71.7325V73.2701L77.1604 72.3878C77.0556 68.4061 76.362 55.4996 71.7841 46.8501V16.42C71.7841 14.687 71.1088 13.0554 69.8797 11.8237C68.6514 10.598 67.0198 9.9227 65.2867 9.9227C65.1138 9.9227 64.9425 9.93268 64.7711 9.94598V6.50564C64.7711 2.91893 61.8514 0 58.263 0C56.8975 0 55.5977 0.419128 54.5083 1.19252C53.448 0.442413 52.1549 0 50.7603 0C47.1719 0 44.253 2.91893 44.253 6.5073V9.94598C44.0825 9.93268 43.9104 9.9227 43.7374 9.9227C42.0043 9.9227 40.3727 10.598 39.1411 11.8271C37.9153 13.0554 37.2401 14.687 37.2401 16.42V46.8501C32.6621 55.4996 31.9677 68.4061 31.8637 72.3878L28.9939 73.2701V71.7325C28.9939 70.851 28.2795 70.1358 27.3972 70.1358H10.9639C10.0815 70.1358 9.36719 70.851 9.36719 71.7325V76.4859C9.36719 77.3674 10.0815 78.0826 10.9639 78.0826C11.8462 78.0826 12.5605 77.3674 12.5605 76.4859V73.3292H25.8005V105.807H12.5605V83.607C12.5605 82.7255 11.8462 82.0103 10.9639 82.0103C10.0815 82.0103 9.36719 82.7255 9.36719 83.607V107.403C9.36719 108.285 10.0815 109 10.9639 109H27.3972C28.2795 109 28.9939 108.285 28.9939 107.403V103.059C37.0405 100.249 49.7332 95.1546 54.51 89.582C55.6185 90.886 57.1803 92.1974 59.2518 93.5671C59.5229 93.7459 59.8281 93.8315 60.1308 93.8315C60.6489 93.8315 61.157 93.5796 61.4647 93.1155C61.9503 92.3796 61.7483 91.3891 61.0131 90.9026C58.8576 89.4781 57.3258 88.1292 56.4618 86.8943C56.401 86.8078 56.3445 86.713 56.2871 86.6207C58.851 80.2531 58.1807 68.199 57.4738 55.5137C57.0763 48.3927 56.6655 41.0288 56.8884 34.9814C56.9283 33.8945 56.969 32.85 57.0073 31.8471C57.3557 22.766 57.5636 17.3589 56.3561 14.1514C56.3736 14.1381 56.3902 14.1256 56.4085 14.1123C56.4667 14.0824 56.5225 14.0491 56.5757 14.0117C57.0364 13.7755 57.8173 13.684 59.2551 14.0167C61.4763 14.5298 61.8472 19.6791 62.2406 25.1302C62.7237 31.828 63.3242 40.1631 67.5845 46.1C68.0052 46.6862 68.3978 47.3158 68.7645 47.9786C68.7778 48.0052 68.7928 48.031 68.8069 48.0559C73.9296 57.3907 73.9853 73.399 73.9845 73.572C73.9845 74.273 74.4419 74.8926 75.1121 75.0988L80.0294 76.6107V99.6719C76.2539 98.3239 71.4539 96.4577 67.0273 94.2823C66.2356 93.8931 65.2793 94.2199 64.8901 95.0116C64.5017 95.8033 64.8277 96.7596 65.6194 97.1488C70.609 99.6004 76.0352 101.662 80.0294 103.058V107.403C80.0294 108.285 80.7446 109 81.6261 109H98.0594C98.9417 109 99.6561 108.285 99.6561 107.403V91.8099C99.6561 90.9276 98.9417 90.2132 98.0594 90.2132C97.1779 90.2132 96.4627 90.9276 96.4627 91.8099V105.807H83.2228V73.3292H96.4627V84.6772C96.4636 85.5587 97.1779 86.2739 98.0602 86.2739ZM47.4463 6.5073C47.4463 4.67944 48.9332 3.19336 50.7603 3.19336C52.5873 3.19336 54.0734 4.67944 54.0734 6.5073V11.2657C52.1881 10.1813 49.9461 10.6969 49.0488 10.9048C48.5964 11.0096 48.1865 11.1659 47.8114 11.3664C47.6933 11.2707 47.5711 11.1801 47.4463 11.0936V6.5073ZM41.3997 14.0849C42.0251 13.4603 42.8559 13.1161 43.7374 13.1161C44.2472 13.1161 44.7353 13.2325 45.1761 13.4462C45.196 13.4554 45.2151 13.4653 45.2359 13.4736C45.3648 13.5393 45.4871 13.6159 45.6068 13.6982C44.2189 16.3152 43.922 20.4084 43.5985 24.9007C43.1985 30.4409 42.7536 36.5997 40.4334 41.5112V16.42C40.4334 15.5385 40.7777 14.7086 41.3997 14.0849ZM28.9939 99.6719V76.6107L33.9111 75.0988C34.5823 74.8926 35.0396 74.273 35.0388 73.572C35.0388 73.399 35.0945 57.3907 40.2164 48.0559C40.2313 48.031 40.2455 48.0052 40.2596 47.9786C40.6264 47.3158 41.0189 46.6862 41.4397 46.1C45.7 40.1623 46.3004 31.8271 46.7835 25.1302C47.1769 19.6791 47.5478 14.5298 49.769 14.0159C52.3811 13.4129 52.8251 14.2055 53.1195 14.7294C54.3827 16.9847 54.1574 22.8483 53.8164 31.7249C53.7782 32.7294 53.7374 33.7756 53.6975 34.8642C53.4696 41.0588 53.8838 48.4975 54.2854 55.6917C54.9682 67.9362 55.6726 80.5708 53.137 85.8955C53.1012 85.9554 53.0713 86.0186 53.0439 86.0827C52.895 86.377 52.7353 86.6481 52.564 86.8926C49.9769 90.5833 41.2376 95.3076 28.9939 99.6719ZM57.2667 10.6096V6.5073C57.2667 5.47944 57.0264 4.50729 56.6006 3.64243C57.1004 3.35136 57.6684 3.19336 58.263 3.19336C60.0909 3.19336 61.5778 4.67944 61.5778 6.50564V11.0936C61.453 11.1801 61.3308 11.2707 61.2119 11.3664C60.8368 11.1659 60.4268 11.0096 59.9744 10.9048C59.4347 10.7801 58.4094 10.5431 57.2667 10.6096ZM65.4256 24.9007C65.1021 20.4084 64.8044 16.3152 63.4173 13.6982C63.9595 13.3231 64.604 13.1161 65.2867 13.1161C66.1682 13.1161 66.9982 13.4603 67.6219 14.0824C68.2464 14.7086 68.5907 15.5385 68.5907 16.42V41.5112C66.2705 36.5989 65.8248 30.4409 65.4256 24.9007Z" fill="#25356D"/>
<path d="M88.4576 100.533C87.5753 100.533 86.861 101.248 86.861 102.13C86.861 103.012 87.5753 103.727 88.4576 103.727H90.9475C91.8298 103.727 92.5441 103.012 92.5441 102.13C92.5441 101.248 91.8298 100.533 90.9475 100.533H88.4576Z" fill="#F77B4D"/>
<path d="M20.4258 103.727C21.3082 103.727 22.0225 103.012 22.0225 102.13C22.0225 101.248 21.3082 100.533 20.4258 100.533H17.9352C17.0537 100.533 16.3385 101.248 16.3385 102.13C16.3385 103.012 17.0537 103.727 17.9352 103.727H20.4258Z" fill="#F77B4D"/>
</g>
<defs>
<clipPath id="clip0_1703_4820">
<rect width="109" height="109" fill="white"/>
</clipPath>
</defs>
</svg>
