<svg width="111" height="98" viewBox="0 0 111 98" fill="none" xmlns="http://www.w3.org/2000/svg">
<path d="M89.7791 2.04935L89.8619 2.05049L89.9445 2.04478C93.6113 1.79127 96.4337 2.63013 98.6672 4.12222C100.93 5.63366 102.72 7.90537 104.136 10.711C106.984 16.3576 108.115 23.7544 108.697 30.062C109.141 42.111 109.179 51.5197 108.252 58.8489C107.324 66.1875 105.458 71.1728 102.317 74.5926C99.197 77.9893 94.5588 80.1206 87.4636 81.1828C80.3673 82.2452 71.0453 82.2046 58.7926 81.4469C54.9502 80.7519 49.7396 80.7093 44.1746 80.7782C42.8315 80.7949 41.4629 80.8182 40.0776 80.8418C35.5741 80.9186 30.8949 80.9984 26.3477 80.8608C20.3941 80.6806 14.8561 80.1295 10.4551 78.7799C6.3201 77.5118 3.50044 75.6392 2.0943 73.0172C3.22163 67.1119 3.07284 59.4713 2.74576 51.5956C2.68373 50.1017 2.61505 48.5965 2.54617 47.0868C2.23247 40.211 1.91459 33.2437 2.20067 26.8465C2.55201 18.99 3.80859 12.4382 6.7676 8.16851C8.21154 6.08498 10.059 4.54845 12.4537 3.64234C14.8704 2.72795 17.9744 2.40737 21.9849 2.9829L21.9849 2.9829C33.33 4.61089 44.7632 4.28339 56.0798 3.60544C58.7376 3.44621 61.3849 3.2681 64.0236 3.09058C72.6791 2.50823 81.2415 1.93216 89.7791 2.04935Z" fill="#E49C28" stroke="#25356D" stroke-width="4"/>
<path d="M49.7841 40.7424C49.4208 49.4371 63.1573 49.6603 62.2437 40.7436C61.6244 33.2248 50.0044 32.9117 49.7841 40.7424Z" fill="#25356D"/>
<path d="M82.2412 63.5999C80.1315 65.179 82.7084 68.4131 84.707 66.72C88.6457 63.6583 91.7691 59.5913 93.7934 55.0213C97.7388 45.9759 97.9836 35.1526 93.7882 26.1479C91.6206 22.1764 87.3252 14.4419 82.3078 14.9206C79.3925 17.2543 84.0155 20.8949 84.6855 23.3903C88.2332 30.7387 92.2706 38.7364 91.1968 47.1556C90.3621 53.4653 87.3353 59.6955 82.2412 63.5999Z" fill="#25356D"/>
<path d="M29.6646 19.6052C31.912 18.3425 29.891 14.8509 27.6896 16.1604C9.27855 25.583 5.27254 58.7593 27.3519 66.0441C38.9039 65.6368 3.49212 47.5605 24.5923 23.6368C26.0807 22.0442 27.7889 20.6639 29.6646 19.6052Z" fill="#25356D"/>
<path d="M78.2119 40.6316C78.1872 34.6503 75.8652 28.5994 71.3026 24.5126C67.6713 21.7024 63.372 27.505 67.0807 30.1948C73.8356 35.3288 75.4304 46.757 69.2255 53.0098C67.2391 60.5946 79.0393 51.1862 78.2119 40.6316Z" fill="#25356D"/>
<path d="M36.403 51.6353C38.0518 53.2823 40.6873 57.8299 43.2835 55.566C45.6731 52.5609 36.6975 50.0165 38.1257 41.3057C38.6363 37.0806 40.4595 33.3952 42.7106 29.7801C44.0191 21.6112 31.6167 30.0551 32.1792 36.6415C32.0335 41.8726 33.2977 47.3858 36.403 51.6353Z" fill="#25356D"/>
<path d="M110 84.0004C110 76.8202 104.18 71.0002 97.0001 71.0002C89.8204 71.0002 84 76.8201 84 84.0004C84 91.1797 89.8204 97 97.0001 97C104.18 97 110 91.1797 110 84.0004Z" fill="#E04F5F" stroke="#FAF9F5" stroke-width="2"/>
<path d="M98.401 84L101.909 79.9273C102.292 79.4832 102.242 78.8128 101.798 78.4302C101.354 78.0478 100.683 78.0976 100.301 78.5417L96.9999 82.3733L93.6996 78.5417C93.3169 78.0973 92.6465 78.0475 92.2023 78.4302C91.7579 78.8128 91.7082 79.4832 92.0908 79.9273L95.5988 84L92.0908 88.0725C91.7082 88.5167 91.7579 89.1871 92.2023 89.5697C92.4027 89.7423 92.6493 89.8269 92.8948 89.8269C93.1928 89.8269 93.4894 89.7018 93.6996 89.4581L96.9999 85.6265L100.301 89.4581C100.51 89.702 100.807 89.8269 101.105 89.8269C101.351 89.8269 101.597 89.7423 101.798 89.5697C102.242 89.1871 102.292 88.5166 101.909 88.0725L98.401 84Z" fill="white"/>
</svg>
