<svg width="114" height="113" viewBox="0 0 114 113" fill="none" xmlns="http://www.w3.org/2000/svg">
<path d="M89.78 7.50377C80.4673 -2.86124 60.3723 3.74416 46.0173 4.42184C34.4099 4.96996 8.98728 -0.701238 6.45466 12.1764C1.42667 37.7428 3.51754 63.875 5.49351 89.3339C6.40454 101.073 30.9554 93.3512 42.1708 95.1275C51.7763 92.2213 76.7257 98.985 79.1173 87.0776C81.7598 78.6626 74.1695 63.9099 81.0645 60.4908C85.2474 59.4631 88.8107 56.2051 89.6463 51.8936C89.969 37.3494 92.5016 21.6725 89.78 7.50377Z" fill="#E49C28"/>
<path d="M91.437 81.379C89.4809 74.7361 89.2778 67.5856 85.2807 61.8018C79.9673 57.2037 68.5516 58.7457 66.2943 63.0661C63.9764 67.5028 63.961 77.4169 60.8904 81.3578C55.5763 88.1773 58.2197 94.0662 81.308 92.9086C91.0272 92.4212 94.2476 88.5753 91.437 81.379Z" fill="#F77B4D"/>
<path d="M47.0013 71.1146C45.1691 70.1901 43.8938 72.214 42.2213 72.4971C40.9965 72.7059 39.7412 72.7599 38.5461 72.3398C36.6909 71.6059 35.5662 74.5232 37.4304 75.2272C40.8142 76.3757 45.5138 78.4167 48.4612 75.4229C49.7888 73.983 48.5654 71.7736 47.0013 71.1146Z" fill="#25356D"/>
<path d="M53.5548 47.5897C50.7696 47.4163 48.0551 48.7854 45.2584 48.6043C44.0045 48.6148 42.6894 48.5667 41.4368 48.493C39.7622 48.6245 36.9235 47.0667 36.2947 49.4072C36.2765 52.4978 41.0928 51.5363 43.1735 52.3473C48.1581 53.0566 53.4886 54.5308 58.3555 52.4843C61.907 49.8095 55.9632 47.4419 53.5548 47.5897Z" fill="#25356D"/>
<path d="M38.2626 27.6886C50.7712 26.7483 63.3213 30.8627 75.6996 28.1924C81.2577 24.0449 67.7507 23.2246 65.4033 23.168C59.5045 23.2428 53.6203 24.1107 47.7053 23.9952C44.5437 24.079 41.36 24.2801 38.1994 24.3565C36.0293 24.366 36.1133 27.7604 38.2626 27.6886Z" fill="#25356D"/>
<path d="M89.4282 2.65012C74.073 -3.74828 57.3205 3.67327 41.5321 1.96294C29.6808 3.28263 8.38863 -4.17596 3.51912 10.49C-0.592893 12.4414 1.8799 28.2514 1.04395 32.2256C0.927865 44.8118 1.19965 57.6946 1.4748 70.2584C2.27826 84.967 -2.51162 100.049 18.5728 98.1328C27.3107 98.2556 36.1155 97.6081 44.8165 98.5092C47.7239 98.8501 48.0129 94.2429 45.1045 94.1953C40.7534 94.0689 36.0501 94.1874 31.6982 94.3245C27.8501 94.4457 24.0126 94.5804 20.1712 94.5515C15.0743 94.6058 7.02358 95.367 5.66347 88.9992C5.74568 70.1494 5.49826 51.1969 6.27102 32.3597C6.54815 26.0708 6.91344 19.7939 7.49147 13.5454C7.5717 12.6988 7.28308 11.9016 6.7615 11.3092C10.9724 -0.233517 31.594 7.16327 41.2285 5.87408C56.299 7.90235 72.4786 1.75137 86.9142 7.91027C92.605 10.5772 93.5101 17.2406 92.9905 22.8615C92.8322 28.7994 92.7684 34.8158 93.0933 40.7485C93.2744 43.7488 93.5259 46.7448 93.9427 49.7229C94.1699 51.7181 97.2628 51.5414 97.2859 49.5432C97.5452 40.76 98.1466 31.9789 98.7459 23.1876C99.8128 15.1731 97.3858 6.18766 89.4282 2.65012Z" fill="#25356D"/>
<path d="M93.8201 79.229C92.2015 70.7843 90.7645 57.6076 79.7163 57.1971C78.9707 57.2613 78.2013 57.298 77.4208 57.3289C78.0254 56.6443 78.6284 55.4313 79.2262 53.6826C81.1257 47.9347 71.4025 47.901 73.2834 53.6754C73.9048 55.5068 74.5336 56.7536 75.1655 57.42C71.3433 57.6082 67.5189 58.1319 65.036 61.3941C60.2731 67.5461 62.0587 76.468 57.232 82.489C55.5551 84.8523 55.3517 88.2591 57.148 90.6069C59.6253 93.8669 65.8036 95.9995 72.558 96.6439C72.5218 98.5355 73.7291 100.282 76.4703 99.962C78.7171 99.7976 80.0445 98.3162 80.3815 96.7097C89.8582 95.9409 98.112 91.9547 96.4498 83.7441C95.971 82.0869 94.8951 80.4717 93.8201 79.229ZM90.8943 86.3259C86.3056 93.31 66.5219 93.898 60.487 88.3145C58.4158 85.8614 61.8842 83.3591 62.5325 80.9934C65.8425 74.0776 63.4933 60.8916 74.0332 60.8373C79.0016 60.4789 84.0313 61.6867 85.3996 67.1477C86.9176 71.691 87.1545 76.5722 88.18 81.2622C88.696 83.1239 91.0345 84.2826 90.8943 86.3259Z" fill="#25356D"/>
<path d="M26.4612 21.7611C21.7395 18.2931 16.5592 25.4196 20.2364 29.374C24.9595 33.7712 31.3472 25.5955 26.4612 21.7611Z" fill="#25356D"/>
<path d="M23.1727 54.712C30.2886 55.2231 29.3766 43.5865 22.5041 44.5833C16.7402 45.1968 17.5724 54.5161 23.1727 54.712Z" fill="#25356D"/>
<path d="M19.7378 77.9334C23.3064 81.9089 30.1305 77.3789 27.9519 72.4789C24.9926 65.7792 15.1648 72.4442 19.7378 77.9334Z" fill="#25356D"/>
<path d="M113 99.0004C113 91.8202 107.18 86.0002 100 86.0002C92.8204 86.0002 87 91.8201 87 99.0004C87 106.18 92.8204 112 100 112C107.18 112 113 106.18 113 99.0004Z" fill="#E04F5F" stroke="#FAF9F5" stroke-width="2"/>
<path d="M101.401 99L104.909 94.9273C105.292 94.4832 105.242 93.8128 104.798 93.4302C104.354 93.0478 103.683 93.0976 103.301 93.5417L99.9999 97.3733L96.6996 93.5417C96.3169 93.0973 95.6465 93.0475 95.2023 93.4302C94.7579 93.8128 94.7082 94.4832 95.0908 94.9273L98.5988 99L95.0908 103.073C94.7082 103.517 94.7579 104.187 95.2023 104.57C95.4027 104.742 95.6493 104.827 95.8947 104.827C96.1928 104.827 96.4894 104.702 96.6996 104.458L99.9999 100.627L103.301 104.458C103.51 104.702 103.807 104.827 104.105 104.827C104.351 104.827 104.597 104.742 104.798 104.57C105.242 104.187 105.292 103.517 104.909 103.073L101.401 99Z" fill="white"/>
</svg>
