<svg width="111" height="111" viewBox="0 0 111 111" fill="none" xmlns="http://www.w3.org/2000/svg">
<g clip-path="url(#clip0_1545_6439)">
<path d="M96.4757 16.8606C95.0528 -1.09593 70.3757 3.75613 55.939 1.89392C44.0092 1.60288 29.7467 1.54082 26.9881 17.4293C22.5283 43.1153 33.8932 67.1481 24.5298 91.4595C23.1264 95.8653 26.2277 98.7236 30.5957 97.4816C46.3882 94.7154 61.3977 97.1248 77.2827 97.0398C105.056 103.736 98.1621 38.1434 96.4757 16.8606Z" fill="#E49C28"/>
<path d="M80.3258 19.1454C76.3029 15.981 69.3998 18.9524 61.6731 18.1316C55.2439 17.4485 48.7333 19.5462 46.3711 19.9293C44.094 20.2986 42.4615 31.2064 45.8631 33.5308C51.4023 37.3161 67.9221 34.3693 74.8771 34.3693C81.014 34.3693 83.9718 22.0132 80.3258 19.1454Z" fill="#F77B4D"/>
<path d="M44.174 35.29C52.6594 35.4937 88.5 43.1287 85.0621 27.7732C84.746 24.2299 84.9658 18.4624 80.6792 17.2818C74.3766 16.5251 68.0331 16.1317 61.6987 16.0698C57.8021 16.0104 53.5134 16.0779 49.6024 16.1278C44.0079 15.173 41.4743 20.8225 41.9195 25.5571C42.535 28.091 40.4098 35.649 44.174 35.29ZM47.8507 19.8352C48.8305 19.8113 52.5365 19.8936 53.6586 19.893C62.1735 19.994 70.7126 20.3832 79.0823 21.9308C79.2822 24.0614 80.7189 29.515 78.2828 30.2518C67.5849 32.3491 56.3343 30.4587 45.4719 31.5607C45.954 28.1566 43.8235 21.1172 47.8507 19.8352Z" fill="#25356D"/>
<path d="M85.4237 50.1911C85.2014 48.5244 83.67 47.3534 82.0033 47.5757C78.8794 47.9922 75.7269 48.2776 72.5571 48.4942C69.387 48.7069 66.1988 48.8274 62.9996 48.8864C56.5754 49.011 50.1367 48.8446 43.6967 48.844C42.0427 48.8071 41.8513 51.4098 43.5334 51.5771C53.214 52.7153 62.922 53.6359 72.6889 53.8172C75.9688 53.8742 79.2625 53.8111 82.5632 53.634C84.3273 53.5499 85.6668 51.9426 85.4237 50.1911Z" fill="#25356D"/>
<path d="M54.2732 78.892C52.3333 79.039 38.6859 78.1505 44.1156 82.1092C49.0828 82.5673 53.9633 83.4206 58.9082 84.1839C61.8117 84.518 67.3354 86.2532 67.3841 81.6243C66.5236 76.3893 58.0842 79.7306 54.2732 78.892Z" fill="#25356D"/>
<path d="M84.546 66.2892C83.9404 63.8238 81.2981 64.7348 79.5116 65.0563C77.1782 65.3826 74.822 65.511 72.4665 65.4984C62.962 65.384 53.468 64.1144 44.0764 62.6475C39.9078 61.9589 39.3002 68.6683 43.5513 68.7091C48.1535 68.7837 53.3309 69.0133 57.9744 69.1591C63.5286 69.3366 69.4055 69.3717 74.9443 69.1368C77.7741 68.3933 84.8851 70.9114 84.546 66.2892Z" fill="#25356D"/>
<path d="M99.9245 35.6547C100.126 25.6121 100.263 14.8885 95.6148 5.65406C93.8175 3.70586 91.044 2.81227 88.5628 2.14462C79.4598 0.178766 70.2118 2.19065 61.1693 0.682346C16.7564 -4.18188 23.4115 20.2327 23.8319 53.4263C16.9392 52.6012 7.71836 51.6703 3.32324 58.4154C-1.35684 70.2783 -1.74664 85.7623 6.42017 96.2304C9.68482 99.9818 14.6655 100.61 19.1896 99.3347C19.4119 99.3864 19.6508 99.4166 19.9083 99.4199C35.6508 99.8194 51.4388 99.2197 67.1672 99.2641C77.3459 99.1519 91.6091 101.599 97.6901 91.1506C98.4024 89.2819 100.58 85.0241 98.0329 84.1104C97.2791 84.0037 96.582 84.5347 96.4838 85.2898C95.1118 96.7354 81.3024 95.8354 72.5572 95.2719C62.1053 94.5619 51.4897 94.5078 41.0354 94.176C36.4367 94.0433 31.8414 93.9095 27.2655 93.7113C29.0849 90.7286 30.27 87.3292 30.8155 83.9269C32.091 76.0272 30.7147 68.2731 29.9278 60.6228C29.2993 52.1893 29.4606 44.1728 28.5343 35.8809C27.3763 19.9468 27.4706 4.8418 47.5749 4.48912C54.2725 3.96241 61.0588 4.90001 67.7524 5.29184C74.4265 5.4833 81.1959 4.46559 87.6782 5.85079C92.399 6.44665 93.8175 9.62207 94.7218 13.8505C98.0871 28.2704 95.5391 43.3062 95.7499 58.0106C96.2342 60.3085 94.6735 67.1893 98.0003 67.2146C101.076 66.7056 98.5839 60.4105 99.181 58.0262C99.1721 50.566 99.7321 43.1513 99.9245 35.6547ZM25.2903 77.7756C25.1918 82.6429 24.2724 87.5609 21.412 91.5433C17.4594 94.6116 11.5564 95.2026 9.135 90.0506C4.6476 81.2993 4.46182 69.8246 7.61452 60.5902C11.3542 55.8722 18.4463 57.0033 23.8859 57.0187C24.1651 64.0051 25.4047 70.8906 25.2903 77.7756Z" fill="#25356D"/>
</g>
<path d="M110 97.0004C110 89.8202 104.18 84.0002 97.0001 84.0002C89.8204 84.0002 84 89.8201 84 97.0004C84 104.18 89.8204 110 97.0001 110C104.18 110 110 104.18 110 97.0004Z" fill="#E04F5F" stroke="#FAF9F5" stroke-width="2"/>
<path d="M98.401 97L101.909 92.9273C102.292 92.4832 102.242 91.8128 101.798 91.4302C101.354 91.0478 100.683 91.0976 100.301 91.5417L96.9999 95.3733L93.6996 91.5417C93.3169 91.0973 92.6465 91.0475 92.2023 91.4302C91.7579 91.8128 91.7082 92.4832 92.0908 92.9273L95.5988 97L92.0908 101.073C91.7082 101.517 91.7579 102.187 92.2023 102.57C92.4027 102.742 92.6493 102.827 92.8948 102.827C93.1928 102.827 93.4894 102.702 93.6996 102.458L96.9999 98.6265L100.301 102.458C100.51 102.702 100.807 102.827 101.105 102.827C101.351 102.827 101.597 102.742 101.798 102.57C102.242 102.187 102.292 101.517 101.909 101.073L98.401 97Z" fill="white"/>
<defs>
<clipPath id="clip0_1545_6439">
<rect width="100" height="100" fill="white"/>
</clipPath>
</defs>
</svg>
