<svg width="102" height="86" viewBox="0 0 102 86" fill="none" xmlns="http://www.w3.org/2000/svg">
<path d="M96.828 22.82C94.8363 11.0387 83.8957 20.0226 79.0859 24.7114C79.2191 24.5972 79.3272 24.5046 79.4151 24.4295C57.5209 43.6719 83.4291 2.87323 53.6984 2.5662C45.7992 2.4847 38.2423 3.78442 30.1472 3.12801C-5.08678 0.271151 6.69547 16.1202 3.98608 43.4054C1.18067 71.6566 12.977 72.7988 34.095 72.7988C63.5175 72.7988 69.8396 73.5248 69.26 42.9446C100.629 72.9896 95.05 51.3385 96.828 22.82Z" fill="#E49C28"/>
<path d="M99.7676 32.1652C102.168 2.8706 85.4908 14.9839 72.5623 26.5089C72.9656 16.5789 71.5351 6.50289 61.5838 2.39594C57.7344 0.580395 53.5466 1.53961 49.4568 1.4101C41.6269 1.45448 33.8147 1.22108 25.98 0.909613C9.44023 -2.2345 -2.86369 5.70123 0.581195 23.7068C0.741164 24.8154 1.34392 25.5261 2.11028 25.8898C2.29406 29.3083 1.93115 32.8345 1.64107 36.231C-0.693113 59.1677 -2.52157 76.7706 26.8018 75.2042C38.0542 75.7198 50.3438 76.9235 60.9675 72.6691C61.3135 72.7175 61.6937 72.6745 62.0968 72.5081C68.1615 70.699 72.3173 65.0014 71.4916 58.6259C71.4125 54.8423 71.1374 51.1846 71.0889 47.5043C75.6827 52.4248 80.6591 57.1268 86.841 59.9853C93.4824 63.2559 100.487 58.644 98.9319 51.163C98.713 49.6119 96.442 49.1842 95.6954 50.5953C94.8398 51.982 94.3521 53.9442 92.925 54.7606C86.8845 55.5913 80.9909 51.4904 76.5132 47.7393C74.6496 46.1343 72.8611 44.439 71.1967 42.6096C71.2626 41.5687 71.3574 40.5217 71.4974 39.4638C71.7103 36.8017 72.0429 33.8512 72.2912 30.8003C77.8714 26.9534 82.9606 22.3929 89.0319 19.483C96.7956 15.3436 94.0941 27.5059 93.7344 31.6376C93.336 35.5528 99.4808 36.0811 99.7676 32.1652ZM68.6533 30.1646C68.5129 30.4483 68.501 30.7593 68.5819 31.0498C67.899 39.1693 66.4879 47.5553 67.7374 53.5851C67.6739 59.4455 68.4475 64.4669 63.734 67.1591C60.2383 68.3537 56.6614 69.0773 52.992 69.4445C46.7151 70.0565 40.1061 69.7114 33.718 69.5233C28.2525 69.273 22.639 69.5223 17.1867 69.7493C5.90839 70.0674 3.96657 58.6019 4.3434 49.624C4.38536 41.4987 5.98465 33.6997 5.47993 25.5435C6.30358 24.948 6.81617 23.9575 6.54121 22.6521C2.97529 8.37028 12.9892 3.64926 25.6421 5.8727C36.1541 6.06212 46.7058 6.08633 57.2188 5.55155C68.7439 8.36019 69.5223 18.9117 68.6533 30.1646Z" fill="#25356D"/>
<path d="M48.9908 43.0033C47.4918 44.8451 45.4487 46.3508 43.1514 47.3911C36.4789 50.4145 26.6167 49.9112 22.4379 43.1564C20.7533 40.2279 16.5287 43.6073 18.994 45.8989C27.9568 55.4531 44.2028 55.8771 53.705 46.8405C56.2461 43.8175 51.4261 39.9098 48.9908 43.0033Z" fill="#25356D"/>
<path d="M101 72.0001C101 64.8199 95.1796 59 88.0001 59C80.8204 59 75 64.8198 75 72.0001C75 79.1795 80.8204 84.9997 88.0001 84.9997C95.1796 84.9997 101 79.1795 101 72.0001Z" fill="#E04F5F" stroke="#FAF9F5" stroke-width="2"/>
<path d="M89.401 72L92.9093 67.9273C93.2919 67.4832 93.2419 66.8128 92.7976 66.4302C92.3539 66.0478 91.6835 66.0976 91.3006 66.5417L87.9999 70.3733L84.6996 66.5417C84.3169 66.0973 83.6465 66.0475 83.2023 66.4302C82.7579 66.8128 82.7082 67.4832 83.0908 67.9273L86.5988 72L83.0908 76.0725C82.7082 76.5167 82.7579 77.1871 83.2023 77.5697C83.4027 77.7423 83.6493 77.8269 83.8948 77.8269C84.1928 77.8269 84.4894 77.7018 84.6996 77.4581L87.9999 73.6265L91.3006 77.4581C91.5104 77.702 91.8071 77.8269 92.1054 77.8269C92.3506 77.8269 92.5972 77.7423 92.7976 77.5697C93.242 77.1871 93.292 76.5166 92.9094 76.0725L89.401 72Z" fill="white"/>
</svg>
