<svg width="28" height="28" viewBox="0 0 28 28" fill="none" xmlns="http://www.w3.org/2000/svg">
<path d="M14.8644 21.4709L17.9551 18.3801C18.2978 18.0374 18.8368 17.9897 19.2343 18.267L23.6545 21.3498C24.1651 21.7059 24.2298 22.437 23.7896 22.8772L23.0087 23.658C22.2985 24.3683 21.2815 24.6759 20.3222 24.3783C17.9787 23.6512 13.4063 21.8543 9.63879 18.0868C5.8713 14.3193 4.07437 9.74691 3.3473 7.40339C3.04967 6.44404 3.3573 5.42713 4.06756 4.71686L4.84843 3.93599C5.2886 3.49582 6.01965 3.56046 6.37575 4.07104L9.45863 8.49128C9.73585 8.88875 9.68818 9.42779 9.34552 9.77045L6.25474 12.8612" stroke="white" stroke-width="1.5" stroke-linecap="round"/>
</svg>
