<svg width="20" height="20" viewBox="0 0 20 20" fill="none" xmlns="http://www.w3.org/2000/svg">
<path d="M10.6173 15.3363L12.6558 13.2978C12.9984 12.9552 13.5374 12.9075 13.9349 13.1847L16.6203 15.0576C17.1287 15.4122 17.1931 16.1402 16.7548 16.5785V16.5785C16.0475 17.2858 15.0318 17.5929 14.084 17.2732C12.3223 16.6791 9.36025 15.3947 6.88471 12.9191C4.40917 10.4436 3.12475 7.48154 2.53061 5.71985C2.21096 4.77207 2.51809 3.75636 3.22536 3.04909V3.04909C3.66368 2.61077 4.39164 2.67514 4.74625 3.18358L6.61914 5.86893C6.89635 6.2664 6.84869 6.80544 6.50603 7.14809L4.46753 9.1866" stroke="#17120B" stroke-linecap="round"/>
</svg>
