<svg width="20" height="12" viewBox="0 0 20 12" fill="none" xmlns="http://www.w3.org/2000/svg">
<path d="M6.1863 8.66302H0C1.26785 9.82708 2.94857 10.4967 4.69211 10.4967H6.35761C6.1534 9.90493 6.07684 9.31916 6.1863 8.66302Z" fill="#F77B4D"/>
<path d="M13.865 9.20427C13.865 9.65733 13.7866 10.0924 13.6426 10.4967H15.3081C17.0516 10.4967 18.7323 9.82708 20.0002 8.66302H13.8139C13.8471 8.87765 13.865 9.05989 13.865 9.20427Z" fill="#F77B4D"/>
<path d="M4.69211 7.49232H6.43214C6.56755 6.94404 6.74198 6.31929 6.93827 5.65863H0C1.26785 6.82268 2.94857 7.49232 4.69211 7.49232Z" fill="#F77B4D"/>
<path d="M13.5677 7.49232H15.3077C17.0512 7.49232 18.7319 6.82268 19.9998 5.65863H13.0615C13.2578 6.31929 13.4322 6.94404 13.5677 7.49232Z" fill="#F77B4D"/>
<path d="M0 2.65424C2.31761 4.73985 4.42273 4.49639 7.2965 4.48792C7.4881 3.87721 7.68985 3.25675 7.89003 2.65424H0Z" fill="#F77B4D"/>
<path d="M20.0004 2.65424H12.1104C12.3105 3.25675 12.5123 3.87721 12.7039 4.48792C15.5788 4.49713 17.686 4.73798 20.0004 2.65424Z" fill="#F77B4D"/>
<path d="M12.5094 8.07766C11.858 5.45204 10.8956 2.69293 9.9998 0.103333C9.42765 1.73148 8.85358 3.43027 8.34055 5.07329C8.02189 6.10482 7.71521 7.12327 7.49024 8.07766C7.40326 8.45317 7.31031 8.88773 7.30566 9.20425C7.30566 9.67213 7.42546 10.1127 7.63619 10.4967C8.50125 12.0814 10.6737 12.3824 11.9299 11.082C12.4165 10.5797 12.6921 9.92437 12.6939 9.20425C12.6877 8.88676 12.5969 8.45376 12.5094 8.07766ZM9.41446 7.68977H10.5851V8.86045H9.41446C9.41446 8.72934 9.41446 7.68977 9.41446 7.68977Z" fill="#F77B4D"/>
</svg>
