<svg width="24" height="24" viewBox="0 0 24 24" fill="none" xmlns="http://www.w3.org/2000/svg">
<path d="M21.0564 12H19.0564C18.7912 12 18.5369 12.1054 18.3493 12.2929C18.1618 12.4804 18.0564 12.7348 18.0564 13C18.0564 13.2652 18.1618 13.5196 18.3493 13.7071C18.5369 13.8946 18.7912 14 19.0564 14V16H17.8704C17.9892 15.6798 18.0518 15.3415 18.0554 15C18.0554 14.3396 17.8375 13.6977 17.4354 13.1738C17.0334 12.6499 16.4698 12.2733 15.8319 12.1024C15.194 11.9314 14.5176 11.9758 13.9074 12.2285C13.2973 12.4812 12.7876 12.9281 12.4574 13.5C12.3907 13.6138 12.3472 13.7396 12.3293 13.8703C12.3115 14.0009 12.3196 14.1339 12.3533 14.2614C12.387 14.3889 12.4456 14.5084 12.5257 14.6132C12.6058 14.7179 12.7059 14.8058 12.8201 14.8718C12.9343 14.9377 13.0604 14.9804 13.1912 14.9974C13.322 15.0144 13.4548 15.0054 13.5821 14.9708C13.7094 14.9363 13.8286 14.8769 13.9328 14.7961C14.037 14.7153 14.1242 14.6147 14.1894 14.5C14.2772 14.348 14.4034 14.2218 14.5554 14.134C14.7075 14.0462 14.8799 14 15.0554 14C15.3206 14 15.575 14.1054 15.7625 14.2929C15.9501 14.4804 16.0554 14.7348 16.0554 15C16.0554 15.2652 15.9501 15.5196 15.7625 15.7071C15.575 15.8946 15.3206 16 15.0554 16C14.7902 16 14.5359 16.1054 14.3483 16.2929C14.1608 16.4804 14.0554 16.7348 14.0554 17C14.0554 17.2652 14.1608 17.5196 14.3483 17.7071C14.5359 17.8946 14.7902 18 15.0554 18C15.3206 18 15.575 18.1054 15.7625 18.2929C15.9501 18.4804 16.0554 18.7348 16.0554 19C16.0554 19.2652 15.9501 19.5196 15.7625 19.7071C15.575 19.8946 15.3206 20 15.0554 20C14.8799 20 14.7075 19.9538 14.5554 19.866C14.4034 19.7783 14.2772 19.652 14.1894 19.5C14.1242 19.3854 14.037 19.2847 13.9328 19.2039C13.8286 19.1231 13.7094 19.0637 13.5821 19.0292C13.4548 18.9946 13.322 18.9856 13.1912 19.0026C13.0604 19.0196 12.9343 19.0623 12.8201 19.1282C12.7059 19.1942 12.6058 19.2821 12.5257 19.3868C12.4456 19.4916 12.387 19.6112 12.3533 19.7387C12.3196 19.8662 12.3115 19.9991 12.3293 20.1297C12.3472 20.2604 12.3907 20.3862 12.4574 20.5C12.7876 21.0719 13.2973 21.5188 13.9074 21.7715C14.5176 22.0242 15.194 22.0686 15.8319 21.8976C16.4698 21.7267 17.0334 21.3501 17.4354 20.8262C17.8375 20.3023 18.0554 19.6604 18.0554 19C18.0518 18.6585 17.9892 18.3202 17.8704 18H19.0554V21C19.0554 21.2652 19.1608 21.5196 19.3483 21.7071C19.5359 21.8946 19.7902 22 20.0554 22C20.3206 22 20.575 21.8946 20.7625 21.7071C20.9501 21.5196 21.0554 21.2652 21.0554 21V14C21.3206 14 21.575 13.8946 21.7625 13.7071C21.9501 13.5196 22.0554 13.2652 22.0554 13C22.0554 12.7348 21.9501 12.4804 21.7625 12.2929C21.575 12.1054 21.3216 12 21.0564 12ZM9.08642 11.243C9.11757 11.3712 9.17377 11.492 9.25179 11.5983C9.32981 11.7047 9.42811 11.7946 9.54102 11.8628C9.65393 11.9311 9.77923 11.9763 9.90969 11.9958C10.0401 12.0154 10.1732 12.009 10.3012 11.977C10.4291 11.9449 10.5495 11.8878 10.6553 11.8091C10.7611 11.7303 10.8503 11.6313 10.9177 11.5179C10.9851 11.4045 11.0295 11.2789 11.0481 11.1483C11.0668 11.0177 11.0594 10.8847 11.0264 10.757L9.26942 3.727C9.14652 3.23319 8.86194 2.79468 8.461 2.4813C8.06006 2.16792 7.5658 1.99768 7.05692 1.99768C6.54804 1.99768 6.05379 2.16792 5.65285 2.4813C5.25191 2.79468 4.96733 3.23319 4.84442 3.727L3.08642 10.757C3.05345 10.8847 3.04608 11.0177 3.06474 11.1483C3.08339 11.2789 3.1277 11.4045 3.19511 11.5179C3.26253 11.6313 3.35171 11.7303 3.45753 11.8091C3.56335 11.8878 3.68371 11.9449 3.81168 11.977C3.93965 12.009 4.0727 12.0154 4.20316 11.9958C4.33362 11.9763 4.45891 11.9311 4.57183 11.8628C4.68474 11.7946 4.78304 11.7047 4.86106 11.5983C4.93908 11.492 4.99528 11.3712 5.02642 11.243L5.58542 9H8.52542L9.08642 11.243ZM6.08642 7L6.78342 4.213C6.80444 4.15762 6.84182 4.10993 6.89058 4.07628C6.93934 4.04264 6.99718 4.02461 7.05642 4.02461C7.11567 4.02461 7.17351 4.04264 7.22227 4.07628C7.27103 4.10993 7.3084 4.15762 7.32942 4.213L8.02642 7H6.08642ZM14.0564 7H15.0564C15.3216 7.00027 15.5758 7.10571 15.7632 7.29319C15.9507 7.48067 16.0562 7.73487 16.0564 8V9C16.0564 9.26522 16.1618 9.51958 16.3493 9.70711C16.5369 9.89465 16.7912 10 17.0564 10C17.3216 10 17.576 9.89465 17.7635 9.70711C17.9511 9.51958 18.0564 9.26522 18.0564 9V8C18.0556 7.2046 17.7393 6.442 17.1769 5.87956C16.6144 5.31712 15.8518 5.0008 15.0564 5H14.0564C13.7912 5 13.5369 5.10536 13.3493 5.2929C13.1618 5.48043 13.0564 5.73479 13.0564 6C13.0564 6.26522 13.1618 6.51958 13.3493 6.70711C13.5369 6.89465 13.7912 7 14.0564 7ZM10.0564 16H9.05642C8.79129 15.9997 8.53709 15.8943 8.34961 15.7068C8.16213 15.5193 8.05669 15.2651 8.05642 15V14C8.05642 13.7348 7.95107 13.4804 7.76353 13.2929C7.57599 13.1054 7.32164 13 7.05642 13C6.79121 13 6.53685 13.1054 6.34932 13.2929C6.16178 13.4804 6.05642 13.7348 6.05642 14V15C6.05722 15.7954 6.37354 16.558 6.93598 17.1204C7.49842 17.6829 8.26102 17.9992 9.05642 18H10.0564C10.3216 18 10.576 17.8946 10.7635 17.7071C10.9511 17.5196 11.0564 17.2652 11.0564 17C11.0564 16.7348 10.9511 16.4804 10.7635 16.2929C10.576 16.1054 10.3216 16 10.0564 16Z" fill="#E49C28"/>
</svg>
