<svg width="24" height="24" viewBox="0 0 24 24" fill="none" xmlns="http://www.w3.org/2000/svg">
<path d="M16.627 13.7765C16.627 13.2668 17.0401 12.8536 17.5498 12.8536V12.8536C18.0595 12.8536 18.4726 13.2668 18.4726 13.7765V16.5402C18.4726 17.0499 18.0595 17.463 17.5498 17.463V17.463C17.0401 17.463 16.627 17.0499 16.627 16.5402V13.7765Z" fill="#E49C28"/>
<path d="M16.627 19.3137C16.627 18.804 17.0401 18.3909 17.5498 18.3909V18.3909C18.0595 18.3909 18.4726 18.804 18.4726 19.3137V19.3137C18.4726 19.8234 18.0595 20.2366 17.5498 20.2366V20.2366C17.0401 20.2366 16.627 19.8234 16.627 19.3137V19.3137Z" fill="#E49C28"/>
<path d="M17.5449 23.0001C16.2682 23.0001 15.0202 22.6215 13.9587 21.9122C12.8971 21.203 12.0698 20.1948 11.5812 19.0153C11.0926 17.8358 10.9648 16.5379 11.2139 15.2857C11.4629 14.0336 12.0777 12.8834 12.9805 11.9806C13.8833 11.0779 15.0334 10.4631 16.2856 10.214C17.5378 9.96493 18.8357 10.0928 20.0152 10.5813C21.1947 11.0699 22.2028 11.8973 22.9121 12.9588C23.6214 14.0203 24 15.2684 24 16.545C23.9974 18.2563 23.3165 19.8966 22.1065 21.1066C20.8965 22.3167 19.2561 22.9976 17.5449 23.0001ZM17.5449 11.9357C16.631 11.9357 15.7375 12.2068 14.9777 12.7148C14.2179 13.2228 13.6259 13.9447 13.2766 14.7893C12.9272 15.6339 12.8363 16.5631 13.0153 17.4594C13.1944 18.3557 13.6352 19.1787 14.2822 19.8243C14.9291 20.4699 15.7531 20.909 16.6497 21.0862C17.5464 21.2633 18.4754 21.1705 19.3193 20.8194C20.1631 20.4683 20.8838 19.8747 21.3902 19.1139C21.8966 18.353 22.1659 17.459 22.164 16.545C22.1614 15.3217 21.6736 14.1493 20.8077 13.2851C19.9417 12.421 18.7683 11.9357 17.5449 11.9357Z" fill="#E49C28"/>
<path d="M10.59 21H2.75C1.233 21 0 19.767 0 18.25V2.75C0 1.233 1.233 0 2.75 0H14.25C15.767 0 17 1.233 17 2.75V8.18C17 8.594 16.664 8.93 16.25 8.93C15.836 8.93 15.5 8.594 15.5 8.18V2.75C15.5 2.061 14.939 1.5 14.25 1.5H2.75C2.061 1.5 1.5 2.061 1.5 2.75V18.25C1.5 18.939 2.061 19.5 2.75 19.5H10.59C11.004 19.5 11.34 19.836 11.34 20.25C11.34 20.664 11.004 21 10.59 21Z" fill="#E49C28"/>
<path d="M13.25 9.5H3.75C3.336 9.5 3 9.164 3 8.75C3 8.336 3.336 8 3.75 8H13.25C13.664 8 14 8.336 14 8.75C14 9.164 13.664 9.5 13.25 9.5Z" fill="#E49C28"/>
<path d="M9.25 13.5H3.75C3.336 13.5 3 13.164 3 12.75C3 12.336 3.336 12 3.75 12H9.25C9.664 12 10 12.336 10 12.75C10 13.164 9.664 13.5 9.25 13.5Z" fill="#E49C28"/>
<path d="M8.25 5.5H3.75C3.336 5.5 3 5.164 3 4.75C3 4.336 3.336 4 3.75 4H8.25C8.664 4 9 4.336 9 4.75C9 5.164 8.664 5.5 8.25 5.5Z" fill="#E49C28"/>
</svg>
