<svg width="24" height="24" viewBox="0 0 24 24" fill="none" xmlns="http://www.w3.org/2000/svg">
<path d="M6.10602 0.792525L6.06783 0.792526L6.03232 0.806601C4.70695 1.33201 3.92009 2.20828 3.47988 3.29454C3.04366 4.37095 2.95124 5.64463 2.98763 6.96829C3.01162 7.84101 3.0927 8.75189 3.17277 9.65136C3.21383 10.1126 3.25462 10.5709 3.28731 11.0194C3.38441 12.3518 3.41135 13.6089 3.18253 14.6806C2.29779 17.8013 3.0055 20.2587 4.7192 21.7534C6.41734 23.2346 9.05846 23.7305 11.9798 23.0443C13.6704 23.3415 16.6081 23.3767 18.65 22.9209C19.1664 22.8056 19.6336 22.6572 20.0121 22.4692C20.3877 22.2826 20.6957 22.0472 20.8659 21.747C21.0426 21.4353 21.0558 21.0799 20.8906 20.6994C20.7295 20.3285 20.3998 19.933 19.8916 19.5071L19.5247 19.1995L19.5638 19.6767C19.6111 20.2536 19.5292 20.6822 19.3609 21.0015C19.1939 21.3184 18.9325 21.5454 18.5865 21.7043C17.8801 22.0288 16.8458 22.0589 15.6496 21.9684C15.0567 21.9236 14.4343 21.8503 13.805 21.7741C13.7465 21.767 13.6879 21.7598 13.6292 21.7527C13.059 21.6834 12.4852 21.6137 11.9308 21.5635C10.7359 21.4555 9.59315 21.434 8.73577 21.7245C7.60837 21.6208 6.77996 21.4601 6.19977 21.2655C5.60379 21.0656 5.30593 20.8418 5.19066 20.6436C5.09057 20.4715 5.10668 20.2764 5.28482 20.0353C5.468 19.7874 5.80429 19.5232 6.26924 19.2692C7.19455 18.7636 8.56227 18.3343 10.0017 18.148C11.4425 17.9615 12.9302 18.0218 14.1029 18.4721L14.1119 18.4756L14.1213 18.4782C17.0796 19.2964 19.0985 18.8995 20.2094 17.5118C21.3039 16.1446 21.4441 13.8948 20.8619 11.1853L20.8623 11.1853L20.859 11.1737C20.631 10.3545 20.6711 9.23851 20.7792 8.01273C20.8088 7.67682 20.8435 7.33298 20.8785 6.98676C20.9693 6.08627 21.0618 5.16964 21.0709 4.33443C21.0834 3.18484 20.9412 2.12013 20.3659 1.43009C19.7743 0.720597 18.7822 0.466029 17.2559 0.792414L6.10602 0.792525ZM4.98864 2.58045L6.14566 2.10306H19.556V17.1895C17.7207 17.3217 15.8381 17.2452 13.9419 17.1682C13.2707 17.141 12.5977 17.1136 11.9246 17.0955C9.39588 17.0272 6.87545 17.0895 4.50027 17.7927C4.60259 15.9229 4.54042 14.0186 4.47859 12.1245C4.4574 11.4752 4.43624 10.8271 4.42176 10.182C4.36348 7.58518 4.41264 5.02757 4.98864 2.58045Z" fill="#E49C28" stroke="#E49C28" stroke-width="0.4"/>
<path fill-rule="evenodd" clip-rule="evenodd" d="M6.56104 1.44787V16.4717C8.7275 14.1777 6.83461 7.82349 7.47139 3.99952C7.13573 3.22639 8.28797 0.767888 6.56104 1.44787Z" fill="#E49C28"/>
<path fill-rule="evenodd" clip-rule="evenodd" d="M11.8258 6.22632C6.57534 9.82447 16.961 9.73861 11.8258 6.22632V6.22632ZM11.8258 7.13685C9.92906 8.3841 13.745 8.43163 11.8258 7.13685V7.13685Z" fill="#E49C28"/>
<path fill-rule="evenodd" clip-rule="evenodd" d="M12.0092 7.97607C5.79666 12.7131 12.6273 11.6314 12.0092 7.97607V7.97607Z" fill="#E49C28"/>
<path fill-rule="evenodd" clip-rule="evenodd" d="M11.6429 7.97607C11.4917 11.9071 17.6007 12.3481 11.748 8.08167L11.6429 7.97607Z" fill="#E49C28"/>
<path fill-rule="evenodd" clip-rule="evenodd" d="M13.6377 7.36457C14.6882 10.3867 22.151 6.33011 13.6377 7.36457V7.36457Z" fill="#E49C28"/>
<path fill-rule="evenodd" clip-rule="evenodd" d="M14.0898 7.81978C13.4063 14.5903 15.6463 14.6772 15.0001 7.87068C15.038 7.5123 14.3418 7.88807 14.0898 7.81978Z" fill="#E49C28"/>
<path fill-rule="evenodd" clip-rule="evenodd" d="M16.3549 7.81978C15.6714 14.5903 17.9115 14.6772 17.2652 7.87068C17.3031 7.5123 16.6069 7.88807 16.3549 7.81978Z" fill="#E49C28"/>
<path d="M15.2488 5.77454C12.0706 5.96748 15.443 9.68782 15.0354 7.3503C14.6609 6.02693 17.5111 9.69564 17.1423 7.51391C16.4665 7.01202 16.1557 5.93388 15.2488 5.77454Z" fill="#E49C28"/>
<path fill-rule="evenodd" clip-rule="evenodd" d="M12.9725 10.0391C6.3003 14.635 15.1563 11.9698 12.9725 10.0391V10.0391Z" fill="#E49C28"/>
</svg>
