<svg width="24" height="24" viewBox="0 0 24 24" fill="none" xmlns="http://www.w3.org/2000/svg">
<g clip-path="url(#clip0_758_15284)">
<path d="M18 24C17.9 24 17.8 23.98 17.706 23.94C17.474 23.841 12 21.457 12 16.554V12.536C12 12.215 12.204 11.93 12.509 11.826L17.759 10.04C17.915 9.98699 18.085 9.98699 18.241 10.04L23.491 11.826C23.796 11.93 24 12.215 24 12.536V16.554C24 21.457 18.526 23.841 18.294 23.941C18.2 23.98 18.1 24 18 24ZM13.5 13.073V16.553C13.5 19.886 16.956 21.89 18 22.418C19.044 21.89 22.5 19.886 22.5 16.553V13.073L18 11.542L13.5 13.073Z" fill="#E49C28"/>
<path d="M17.7502 19.5001C17.5522 19.5001 17.3602 19.4221 17.2202 19.2801L15.2202 17.2801C14.9272 16.9871 14.9272 16.5121 15.2202 16.2191C15.5132 15.9261 15.9882 15.9261 16.2812 16.2191L17.6702 17.6081L20.1502 14.3001C20.3962 13.9691 20.8682 13.9011 21.2002 14.1511C21.5312 14.3991 21.5982 14.8691 21.3492 15.2011L18.3492 19.2011C18.2192 19.3751 18.0202 19.4831 17.8022 19.4991C17.7852 19.4991 17.7682 19.5001 17.7502 19.5001Z" fill="#E49C28"/>
<path d="M10.59 21H2.75C1.233 21 0 19.767 0 18.25V2.75C0 1.233 1.233 0 2.75 0H14.25C15.767 0 17 1.233 17 2.75V8.18C17 8.594 16.664 8.93 16.25 8.93C15.836 8.93 15.5 8.594 15.5 8.18V2.75C15.5 2.061 14.939 1.5 14.25 1.5H2.75C2.061 1.5 1.5 2.061 1.5 2.75V18.25C1.5 18.939 2.061 19.5 2.75 19.5H10.59C11.004 19.5 11.34 19.836 11.34 20.25C11.34 20.664 11.004 21 10.59 21Z" fill="#E49C28"/>
<path d="M13.25 9.5H3.75C3.336 9.5 3 9.164 3 8.75C3 8.336 3.336 8 3.75 8H13.25C13.664 8 14 8.336 14 8.75C14 9.164 13.664 9.5 13.25 9.5Z" fill="#E49C28"/>
<path d="M9.25 13.5H3.75C3.336 13.5 3 13.164 3 12.75C3 12.336 3.336 12 3.75 12H9.25C9.664 12 10 12.336 10 12.75C10 13.164 9.664 13.5 9.25 13.5Z" fill="#E49C28"/>
<path d="M8.25 5.5H3.75C3.336 5.5 3 5.164 3 4.75C3 4.336 3.336 4 3.75 4H8.25C8.664 4 9 4.336 9 4.75C9 5.164 8.664 5.5 8.25 5.5Z" fill="#E49C28"/>
</g>
<defs>
<clipPath id="clip0_758_15284">
<rect width="24" height="24" fill="white"/>
</clipPath>
</defs>
</svg>
