<svg width="48" height="48" viewBox="0 0 48 48" fill="none" xmlns="http://www.w3.org/2000/svg">
<g opacity="0.75">
<path fill-rule="evenodd" clip-rule="evenodd" d="M22.648 3.35C22.7704 3.09537 22.9623 2.8805 23.2015 2.73012C23.4407 2.57974 23.7175 2.49997 24 2.5C35.874 2.5 45.5 12.126 45.5 24C45.5 35.874 35.874 45.5 24 45.5C12.126 45.5 2.5 35.874 2.5 24C2.5 15.18 7.81 7.606 15.4 4.29C15.5815 4.204 15.7785 4.15533 15.9791 4.14688C16.1798 4.13844 16.3802 4.17038 16.5683 4.24082C16.7564 4.31126 16.9284 4.41876 17.0742 4.55695C17.22 4.69514 17.3365 4.8612 17.4169 5.04527C17.4973 5.22935 17.5399 5.4277 17.5421 5.62854C17.5444 5.82939 17.5063 6.02865 17.4301 6.21451C17.354 6.40036 17.2412 6.56902 17.0986 6.71048C16.956 6.85193 16.7865 6.96331 16.6 7.038C12.5377 8.80998 9.24657 11.9814 7.32534 15.9753C5.40411 19.9691 4.98049 24.52 6.13155 28.7998C7.28262 33.0796 9.93186 36.804 13.5973 39.2954C17.2627 41.7867 21.7007 42.8794 26.1038 42.3746C30.5069 41.8698 34.5824 39.8011 37.5889 36.5449C40.5954 33.2887 42.3331 29.0614 42.4857 24.6321C42.6384 20.2028 41.1958 15.8659 38.4206 12.4105C35.6454 8.95501 31.7219 6.61068 27.364 5.804L29.172 8.064C29.4205 8.37483 29.5354 8.77166 29.4913 9.16717C29.4472 9.56268 29.2478 9.92449 28.937 10.173C28.6262 10.4215 28.2293 10.5364 27.8338 10.4923C27.4383 10.4482 27.0765 10.2488 26.828 9.938L22.828 4.938C22.6514 4.71718 22.5408 4.45094 22.5089 4.16997C22.4771 3.889 22.5253 3.60475 22.648 3.35ZM20.648 15.648C20.903 15.7701 21.1183 15.9619 21.269 16.2011C21.4198 16.4403 21.4998 16.7173 21.5 17V31C21.5 31.3978 21.342 31.7794 21.0607 32.0607C20.7794 32.342 20.3978 32.5 20 32.5C19.6022 32.5 19.2206 32.342 18.9393 32.0607C18.658 31.7794 18.5 31.3978 18.5 31V20.12L15.938 22.172C15.6272 22.4208 15.2302 22.5359 14.8345 22.492C14.4388 22.4481 14.0768 22.2488 13.828 21.938C13.5792 21.6272 13.4641 21.2302 13.508 20.8345C13.5519 20.4388 13.7512 20.0768 14.062 19.828L19.062 15.828C19.2828 15.6514 19.5491 15.5407 19.83 15.5089C20.111 15.4771 20.3933 15.5253 20.648 15.648ZM28.5 18.5C27.9696 18.5 27.4609 18.7107 27.0858 19.0858C26.7107 19.4609 26.5 19.9696 26.5 20.5V27.5C26.5 28.0304 26.7107 28.5391 27.0858 28.9142C27.4609 29.2893 27.9696 29.5 28.5 29.5C29.0304 29.5 29.5391 29.2893 29.9142 28.9142C30.2893 28.5391 30.5 28.0304 30.5 27.5V20.5C30.5 19.9696 30.2893 19.4609 29.9142 19.0858C29.5391 18.7107 29.0304 18.5 28.5 18.5ZM23.5 20.5C23.5 19.1739 24.0268 17.9021 24.9645 16.9645C25.9021 16.0268 27.1739 15.5 28.5 15.5C29.8261 15.5 31.0979 16.0268 32.0355 16.9645C32.9732 17.9021 33.5 19.1739 33.5 20.5V27.5C33.5 28.8261 32.9732 30.0979 32.0355 31.0355C31.0979 31.9732 29.8261 32.5 28.5 32.5C27.1739 32.5 25.9021 31.9732 24.9645 31.0355C24.0268 30.0979 23.5 28.8261 23.5 27.5V20.5Z" fill="#FFF9F9"/>
</g>
</svg>
