<svg width="24" height="24" viewBox="0 0 24 24" fill="none" xmlns="http://www.w3.org/2000/svg">
<path d="M9.54416 4.36754L9.06982 4.20943L9.06982 4.20943L9.54416 4.36754ZM9.12864 5.61412L9.33395 6.07003L9.5337 5.98007L9.60298 5.77224L9.12864 5.61412ZM7.90698 6.32071L7.80674 6.81056L8.02173 6.85455L8.19966 6.7261L7.90698 6.32071ZM6.61804 6.05695L6.5178 6.54679L6.61804 6.05695ZM4.48502 7.01634L4.91804 7.26634L4.48502 7.01634ZM3.92654 7.98366L4.35956 8.23366L3.92654 7.98366ZM4.16219 10.3106L4.53629 9.97886H4.53629L4.16219 10.3106ZM5.03508 11.295L5.53259 11.3447L5.55437 11.127L5.40918 10.9632L5.03508 11.295ZM5.03508 12.705L5.40918 13.0368L5.55437 12.873L5.53259 12.6553L5.03508 12.705ZM4.16219 13.6894L3.78809 13.3577H3.78809L4.16219 13.6894ZM3.92654 16.0163L4.35955 15.7663L3.92654 16.0163ZM4.48502 16.9837L4.91804 16.7337L4.48502 16.9837ZM6.61804 17.9431L6.5178 17.4532H6.51779L6.61804 17.9431ZM7.90698 17.6793L8.19966 17.2739L8.02173 17.1454L7.80674 17.1894L7.90698 17.6793ZM9.12864 18.3859L9.60298 18.2278L9.5337 18.0199L9.33395 17.93L9.12864 18.3859ZM9.54416 19.6325L9.06982 19.7906L9.54416 19.6325ZM14.4559 19.6325L13.9815 19.4743L14.4559 19.6325ZM14.8714 18.3859L14.6661 17.93L14.4663 18.0199L14.397 18.2278L14.8714 18.3859ZM16.093 17.6793L16.1933 17.1894L15.9783 17.1454L15.8004 17.2739L16.093 17.6793ZM17.382 17.9431L17.2817 18.4329H17.2817L17.382 17.9431ZM19.515 16.9837L19.082 16.7337L19.515 16.9837ZM20.0735 16.0163L20.5065 16.2663L20.0735 16.0163ZM19.8378 13.6894L19.4637 14.0211V14.0211L19.8378 13.6894ZM18.9649 12.705L18.4674 12.6553L18.4457 12.873L18.5908 13.0368L18.9649 12.705ZM18.9649 11.295L18.5908 10.9632L18.4457 11.127L18.4674 11.3447L18.9649 11.295ZM19.8378 10.3106L20.2119 10.6423L19.8378 10.3106ZM20.0735 7.98366L19.6405 8.23366L19.6405 8.23366L20.0735 7.98366ZM19.515 7.01634L19.948 6.76634V6.76634L19.515 7.01634ZM17.382 6.05695L17.2817 5.5671L17.382 6.05695ZM16.093 6.32071L15.8004 6.7261L15.9783 6.85455L16.1933 6.81056L16.093 6.32071ZM14.8714 5.61412L14.397 5.77224L14.4663 5.98007L14.6661 6.07003L14.8714 5.61412ZM14.4559 4.36754L13.9815 4.52566V4.52566L14.4559 4.36754ZM10.0185 4.52566C10.2227 3.91315 10.7959 3.5 11.4415 3.5V2.5C10.3655 2.5 9.41011 3.18858 9.06982 4.20943L10.0185 4.52566ZM9.60298 5.77224L10.0185 4.52566L9.06982 4.20943L8.65429 5.45601L9.60298 5.77224ZM8.19966 6.7261C8.5529 6.47107 8.93267 6.25074 9.33395 6.07003L8.92332 5.15822C8.45994 5.3669 8.0217 5.6212 7.61431 5.91532L8.19966 6.7261ZM6.5178 6.54679L7.80674 6.81056L8.00722 5.83086L6.71828 5.5671L6.5178 6.54679ZM4.91804 7.26634C5.24086 6.7072 5.88526 6.41736 6.5178 6.54679L6.71828 5.5671C5.66405 5.35136 4.59005 5.83443 4.05201 6.76634L4.91804 7.26634ZM4.35956 8.23366L4.91804 7.26634L4.05201 6.76634L3.49353 7.73366L4.35956 8.23366ZM4.53629 9.97886C4.10792 9.49579 4.03673 8.79281 4.35956 8.23366L3.49353 7.73366C2.95549 8.66557 3.07414 9.83721 3.78809 10.6423L4.53629 9.97886ZM5.40918 10.9632L4.53629 9.97886L3.78809 10.6423L4.66097 11.6267L5.40918 10.9632ZM5.50001 12C5.50001 11.7787 5.51106 11.5601 5.53259 11.3447L4.53756 11.2452C4.51272 11.4936 4.50001 11.7454 4.50001 12H5.50001ZM5.53259 12.6553C5.51106 12.4399 5.50001 12.2213 5.50001 12H4.50001C4.50001 12.2546 4.51272 12.5064 4.53756 12.7548L5.53259 12.6553ZM4.53629 14.0211L5.40918 13.0368L4.66097 12.3733L3.78809 13.3577L4.53629 14.0211ZM4.35955 15.7663C4.03673 15.2072 4.10792 14.5042 4.53629 14.0211L3.78809 13.3577C3.07414 14.1628 2.95549 15.3344 3.49353 16.2663L4.35955 15.7663ZM4.91804 16.7337L4.35955 15.7663L3.49353 16.2663L4.05201 17.2337L4.91804 16.7337ZM6.51779 17.4532C5.88526 17.5826 5.24086 17.2928 4.91804 16.7337L4.05201 17.2337C4.59005 18.1656 5.66405 18.6486 6.71828 18.4329L6.51779 17.4532ZM7.80674 17.1894L6.5178 17.4532L6.71828 18.4329L8.00722 18.1691L7.80674 17.1894ZM9.33395 17.93C8.93267 17.7493 8.5529 17.5289 8.19966 17.2739L7.61431 18.0847C8.0217 18.3788 8.45994 18.6331 8.92332 18.8418L9.33395 17.93ZM10.0185 19.4743L9.60298 18.2278L8.65429 18.544L9.06982 19.7906L10.0185 19.4743ZM11.4415 20.5C10.7959 20.5 10.2227 20.0869 10.0185 19.4743L9.06982 19.7906C9.41011 20.8114 10.3655 21.5 11.4415 21.5V20.5ZM12.5585 20.5H11.4415V21.5H12.5585V20.5ZM13.9815 19.4743C13.7773 20.0869 13.2041 20.5 12.5585 20.5V21.5C13.6346 21.5 14.5899 20.8114 14.9302 19.7906L13.9815 19.4743ZM14.397 18.2278L13.9815 19.4743L14.9302 19.7906L15.3457 18.544L14.397 18.2278ZM15.8004 17.2739C15.4471 17.5289 15.0674 17.7493 14.6661 17.93L15.0767 18.8418C15.5401 18.6331 15.9783 18.3788 16.3857 18.0847L15.8004 17.2739ZM17.4822 17.4532L16.1933 17.1894L15.9928 18.1691L17.2817 18.4329L17.4822 17.4532ZM19.082 16.7337C18.7592 17.2928 18.1148 17.5826 17.4822 17.4532L17.2817 18.4329C18.336 18.6486 19.41 18.1656 19.948 17.2337L19.082 16.7337ZM19.6405 15.7663L19.082 16.7337L19.948 17.2337L20.5065 16.2663L19.6405 15.7663ZM19.4637 14.0211C19.8921 14.5042 19.9633 15.2072 19.6405 15.7663L20.5065 16.2663C21.0445 15.3344 20.9259 14.1628 20.2119 13.3577L19.4637 14.0211ZM18.5908 13.0368L19.4637 14.0211L20.2119 13.3577L19.339 12.3733L18.5908 13.0368ZM18.5 12C18.5 12.2213 18.489 12.4399 18.4674 12.6553L19.4625 12.7548C19.4873 12.5064 19.5 12.2546 19.5 12H18.5ZM18.4674 11.3447C18.489 11.5601 18.5 11.7787 18.5 12H19.5C19.5 11.7454 19.4873 11.4936 19.4625 11.2452L18.4674 11.3447ZM19.4637 9.97886L18.5908 10.9632L19.339 11.6267L20.2119 10.6423L19.4637 9.97886ZM19.6405 8.23366C19.9633 8.7928 19.8921 9.49579 19.4637 9.97886L20.2119 10.6423C20.9259 9.83721 21.0445 8.66557 20.5065 7.73366L19.6405 8.23366ZM19.082 7.26634L19.6405 8.23366L20.5065 7.73366L19.948 6.76634L19.082 7.26634ZM17.4822 6.54679C18.1148 6.41735 18.7592 6.7072 19.082 7.26634L19.948 6.76634C19.41 5.83443 18.336 5.35136 17.2817 5.5671L17.4822 6.54679ZM16.1933 6.81056L17.4822 6.54679L17.2817 5.5671L15.9928 5.83086L16.1933 6.81056ZM14.6661 6.07003C15.0674 6.25074 15.4471 6.47107 15.8004 6.7261L16.3857 5.91532C15.9783 5.6212 15.5401 5.3669 15.0767 5.15822L14.6661 6.07003ZM13.9815 4.52566L14.397 5.77224L15.3457 5.45601L14.9302 4.20943L13.9815 4.52566ZM12.5585 3.5C13.2041 3.5 13.7773 3.91315 13.9815 4.52566L14.9302 4.20943C14.5899 3.18858 13.6346 2.5 12.5585 2.5V3.5ZM11.4415 3.5H12.5585V2.5H11.4415V3.5Z" fill="white"/>
<path fill-rule="evenodd" clip-rule="evenodd" d="M12 13C12.5523 13 13 12.5523 13 12C13 11.4477 12.5523 11 12 11C11.4477 11 11 11.4477 11 12C11 12.5523 11.4477 13 12 13Z" stroke="white"/>
</svg>
