<svg width="16" height="16" viewBox="0 0 16 16" fill="none" xmlns="http://www.w3.org/2000/svg">
<path d="M10.8125 5.81255C11.1577 5.81255 11.4375 5.53272 11.4375 5.18755C11.4375 4.84237 11.1577 4.56255 10.8125 4.56255C10.4673 4.56255 10.1875 4.84237 10.1875 5.18755C10.1875 5.53272 10.4673 5.81255 10.8125 5.81255Z" fill="white"/>
<path d="M5.1875 5.81255C5.53268 5.81255 5.8125 5.53272 5.8125 5.18755C5.8125 4.84237 5.53268 4.56255 5.1875 4.56255C4.84232 4.56255 4.5625 4.84237 4.5625 5.18755C4.5625 5.53272 4.84232 5.81255 5.1875 5.81255Z" fill="white"/>
<path d="M10.8125 11.4376C11.1577 11.4376 11.4375 11.1577 11.4375 10.8126C11.4375 10.4674 11.1577 10.1876 10.8125 10.1876C10.4673 10.1876 10.1875 10.4674 10.1875 10.8126C10.1875 11.1577 10.4673 11.4376 10.8125 11.4376Z" fill="white"/>
<path d="M5.1875 11.4376C5.53268 11.4376 5.8125 11.1577 5.8125 10.8126C5.8125 10.4674 5.53268 10.1876 5.1875 10.1876C4.84232 10.1876 4.5625 10.4674 4.5625 10.8126C4.5625 11.1577 4.84232 11.4376 5.1875 11.4376Z" fill="white"/>
<path fill-rule="evenodd" clip-rule="evenodd" d="M14.25 0.812622L13.4956 1.56702C13.3784 1.68424 13.2195 1.75009 13.0537 1.75012H8.3125C8.06386 1.75012 7.8254 1.84889 7.64959 2.0247C7.47377 2.20052 7.375 2.43898 7.375 2.68762V7.37512H3V2.68762C3 2.43898 2.90123 2.20052 2.72541 2.0247C2.5496 1.84889 2.31114 1.75012 2.0625 1.75012H0.8125L1.56689 2.50452C1.62494 2.56255 1.67098 2.6314 1.7024 2.70723C1.73382 2.78306 1.74999 2.86433 1.75 2.94641V7.68762C1.75 7.93626 1.84877 8.17472 2.02459 8.35054C2.2004 8.52636 2.43886 8.62512 2.6875 8.62512H7.375V13.0001H2.6875C2.43886 13.0001 2.2004 13.0989 2.02459 13.2747C1.84877 13.4505 1.75 13.689 1.75 13.9376V15.1876L2.50439 14.4332C2.62158 14.316 2.78054 14.2502 2.94629 14.2501H7.6875C7.93614 14.2501 8.1746 14.1514 8.35041 13.9755C8.52623 13.7997 8.625 13.5613 8.625 13.3126V8.62512H13V13.3126C13 13.5613 13.0988 13.7997 13.2746 13.9755C13.4504 14.1514 13.6889 14.2501 13.9375 14.2501H15.1875L14.4331 13.4957C14.3751 13.4377 14.329 13.3688 14.2976 13.293C14.2662 13.2172 14.25 13.1359 14.25 13.0538V8.31262C14.25 8.06398 14.1512 7.82552 13.9754 7.6497C13.7996 7.47389 13.5611 7.37512 13.3125 7.37512H8.625V3.00012H13.3125C13.5611 3.00012 13.7996 2.90136 13.9754 2.72554C14.1512 2.54972 14.25 2.31126 14.25 2.06262V0.812622Z" fill="white"/>
</svg>
