<svg width="20" height="20" viewBox="0 0 20 20" fill="none" xmlns="http://www.w3.org/2000/svg">
<path d="M12.8125 7.81256C13.1577 7.81256 13.4375 7.53274 13.4375 7.18756C13.4375 6.84238 13.1577 6.56256 12.8125 6.56256C12.4673 6.56256 12.1875 6.84238 12.1875 7.18756C12.1875 7.53274 12.4673 7.81256 12.8125 7.81256Z" fill="#F77B4D"/>
<path d="M7.1875 7.81256C7.53268 7.81256 7.8125 7.53274 7.8125 7.18756C7.8125 6.84238 7.53268 6.56256 7.1875 6.56256C6.84232 6.56256 6.5625 6.84238 6.5625 7.18756C6.5625 7.53274 6.84232 7.81256 7.1875 7.81256Z" fill="#F77B4D"/>
<path d="M12.8125 13.4376C13.1577 13.4376 13.4375 13.1577 13.4375 12.8126C13.4375 12.4674 13.1577 12.1876 12.8125 12.1876C12.4673 12.1876 12.1875 12.4674 12.1875 12.8126C12.1875 13.1577 12.4673 13.4376 12.8125 13.4376Z" fill="#F77B4D"/>
<path d="M7.1875 13.4376C7.53268 13.4376 7.8125 13.1577 7.8125 12.8126C7.8125 12.4674 7.53268 12.1876 7.1875 12.1876C6.84232 12.1876 6.5625 12.4674 6.5625 12.8126C6.5625 13.1577 6.84232 13.4376 7.1875 13.4376Z" fill="#F77B4D"/>
<path fill-rule="evenodd" clip-rule="evenodd" d="M16.25 2.81262L15.4956 3.56702C15.3784 3.68424 15.2195 3.75009 15.0537 3.75012H10.3125C10.0639 3.75012 9.8254 3.84889 9.64959 4.0247C9.47377 4.20052 9.375 4.43898 9.375 4.68762V9.37512H5V4.68762C5 4.43898 4.90123 4.20052 4.72541 4.0247C4.5496 3.84889 4.31114 3.75012 4.0625 3.75012H2.8125L3.56689 4.50452C3.62494 4.56255 3.67098 4.6314 3.7024 4.70723C3.73382 4.78306 3.74999 4.86433 3.75 4.94641V9.68762C3.75 9.93626 3.84877 10.1747 4.02459 10.3505C4.2004 10.5264 4.43886 10.6251 4.6875 10.6251H9.375V15.0001H4.6875C4.43886 15.0001 4.2004 15.0989 4.02459 15.2747C3.84877 15.4505 3.75 15.689 3.75 15.9376V17.1876L4.50439 16.4332C4.62158 16.316 4.78054 16.2502 4.94629 16.2501H9.6875C9.93614 16.2501 10.1746 16.1514 10.3504 15.9755C10.5262 15.7997 10.625 15.5613 10.625 15.3126V10.6251H15V15.3126C15 15.5613 15.0988 15.7997 15.2746 15.9755C15.4504 16.1514 15.6889 16.2501 15.9375 16.2501H17.1875L16.4331 15.4957C16.3751 15.4377 16.329 15.3688 16.2976 15.293C16.2662 15.2172 16.25 15.1359 16.25 15.0538V10.3126C16.25 10.064 16.1512 9.82552 15.9754 9.6497C15.7996 9.47389 15.5611 9.37512 15.3125 9.37512H10.625V5.00012H15.3125C15.5611 5.00012 15.7996 4.90136 15.9754 4.72554C16.1512 4.54972 16.25 4.31126 16.25 4.06262V2.81262Z" fill="#F77B4D"/>
</svg>
