<svg width="56" height="56" viewBox="0 0 56 56" fill="none" xmlns="http://www.w3.org/2000/svg">
<mask id="path-1-inside-1_0_11229" fill="white">
<path d="M0 28C0 12.536 12.536 0 28 0V0C43.464 0 56 12.536 56 28V28C56 43.464 43.464 56 28 56V56C12.536 56 0 43.464 0 28V28Z"/>
</mask>
<path d="M0 28C0 12.536 12.536 0 28 0V0C43.464 0 56 12.536 56 28V28C56 43.464 43.464 56 28 56V56C12.536 56 0 43.464 0 28V28Z" fill="#4EB033" fill-opacity="0.05"/>
<path d="M22 28.75L25.75 32.5L34 24.25" stroke="#4EB033" stroke-width="2" stroke-linecap="round"/>
<path d="M28 43C30.0296 43 31.7454 41.6563 32.3064 39.81C32.4258 39.4168 32.9434 39.2024 33.3058 39.396C35.008 40.3049 37.1714 40.0418 38.6066 38.6066C40.0418 37.1715 40.3049 35.0081 39.3959 33.3059C39.2024 32.9434 39.4168 32.4258 39.8099 32.3064C41.6563 31.7455 43 30.0296 43 28C43 25.9704 41.6563 24.2546 39.81 23.6936C39.4168 23.5742 39.2024 23.0566 39.396 22.6942C40.3049 20.992 40.0418 18.8286 38.6066 17.3934C37.1715 15.9582 35.0081 15.6951 33.3059 16.6041C32.9434 16.7976 32.4258 16.5832 32.3064 16.19C31.7454 14.3437 30.0296 13 28 13C25.9704 13 24.2546 14.3437 23.6937 16.19C23.5742 16.5832 23.0566 16.7976 22.6942 16.604C20.992 15.6951 18.8286 15.9582 17.3934 17.3934C15.9582 18.8285 15.6951 20.9919 16.6041 22.6941C16.7976 23.0566 16.5832 23.5742 16.19 23.6936C14.3437 24.2546 13 25.9704 13 28C13 30.0296 14.3437 31.7454 16.19 32.3063C16.5832 32.4258 16.7976 32.9434 16.604 33.3058C15.6951 35.008 15.9582 37.1714 17.3934 38.6066C18.8285 40.0418 20.9919 40.3049 22.6941 39.3959C23.0566 39.2024 23.5742 39.4168 23.6936 39.8099C24.2545 41.6563 25.9704 43 28 43Z" stroke="#4EB033" stroke-width="2" stroke-linecap="round"/>
<path d="M-1 27.5C-1 11.7599 11.7599 -1 27.5 -1C43.2401 -1 56 11.7599 56 27.5V28C56 13.0883 43.464 1 28 1C13.0883 1 1 13.0883 1 28L-1 27.5ZM56 56H0H56ZM27.5 56C11.7599 56 -1 43.2401 -1 27.5C-1 11.7599 11.7599 -1 27.5 -1L28 1C13.0883 1 1 13.0883 1 28C1 43.464 13.0883 56 28 56H27.5ZM56 0V56V0Z" fill="#4EB033" mask="url(#path-1-inside-1_0_11229)"/>
</svg>
