<svg width="18" height="18" viewBox="0 0 18 18" fill="none" xmlns="http://www.w3.org/2000/svg">
<path fill-rule="evenodd" clip-rule="evenodd" d="M8.04285 4.70711C8.67282 4.07715 9.74996 4.52331 9.74996 5.41422L9.74996 12.5858C9.74996 13.4767 8.67282 13.9229 8.04285 13.2929L5.99996 11.25H3.24996C2.69767 11.25 2.24996 10.8023 2.24996 10.25V7.75C2.24996 7.19772 2.69767 6.75 3.24996 6.75L5.99996 6.75L8.04285 4.70711Z" stroke="white" stroke-linecap="round" stroke-linejoin="round"/>
<path d="M10.5 9.75C10.8785 9.37153 10.8785 8.62847 10.5 8.25" stroke="white" stroke-linecap="round"/>
<path d="M12 12C13.5644 10.4356 13.5644 7.56437 12 6" stroke="white" stroke-linecap="round"/>
<path d="M13.5 14.25C16.4891 11.2609 16.5058 6.75576 13.5 3.75" stroke="white" stroke-linecap="round"/>
</svg>
